<svg width="230" height="200" viewBox="0 0 230 200" fill="none" xmlns="http://www.w3.org/2000/svg">
<path d="M33.6824 184.775C78.5923 205.075 151.408 205.075 196.318 184.775C241.227 164.475 241.227 131.557 196.318 111.252C151.408 90.9467 78.5923 90.9516 33.6824 111.252C-11.2275 131.552 -11.2275 164.47 33.6824 184.775Z" fill="#F0F0F0"/>
<path d="M122.847 172.379C130.214 172.379 136.186 169.679 136.186 166.348C136.186 163.018 130.214 160.318 122.847 160.318C115.48 160.318 109.508 163.018 109.508 166.348C109.508 169.679 115.48 172.379 122.847 172.379Z" fill="#E0E0E0"/>
<path d="M59.6282 113.402L35.554 100.217L11.4745 113.402L35.554 126.587L59.6282 113.402Z" fill="#F0F0F0"/>
<path d="M35.5537 144.17L59.628 130.985V113.402L35.5537 126.587V144.17Z" fill="#EBEBEB"/>
<path d="M39.1512 140.092C39.1036 140.093 39.0567 140.081 39.016 140.057C38.9673 140.027 38.928 139.985 38.9024 139.936C38.8768 139.886 38.8657 139.831 38.8704 139.776V139.456C38.8704 139.425 38.8836 139.394 38.907 139.372C38.9304 139.35 38.9621 139.338 38.9952 139.338C39.0114 139.338 39.0273 139.341 39.0422 139.347C39.0571 139.353 39.0705 139.361 39.0816 139.373C39.0928 139.384 39.1015 139.397 39.1072 139.411C39.1129 139.425 39.1155 139.441 39.1148 139.456V139.776C39.1148 139.826 39.1148 139.85 39.1148 139.855C39.1148 139.86 39.1512 139.855 39.1979 139.855C39.2731 139.787 39.3323 139.704 39.3717 139.612C39.4111 139.52 39.4298 139.422 39.4267 139.323V137.242C39.4267 137.212 39.4393 137.183 39.4617 137.162C39.4841 137.141 39.5145 137.129 39.5463 137.129C39.5624 137.128 39.5785 137.13 39.5936 137.136C39.6087 137.141 39.6225 137.149 39.6342 137.16C39.6458 137.171 39.6551 137.183 39.6614 137.197C39.6678 137.212 39.671 137.227 39.671 137.242V139.283C39.6765 139.423 39.648 139.562 39.5875 139.689C39.5271 139.817 39.4365 139.929 39.3227 140.018C39.2721 140.055 39.2134 140.08 39.1512 140.092Z" fill="#E0E0E0"/>
<path d="M37.8412 138.297V138.095C37.8682 137.576 38.0235 137.071 38.2944 136.619C38.5653 136.168 38.9443 135.783 39.4007 135.497C39.5643 135.36 39.7687 135.276 39.9853 135.256C40.2019 135.236 40.4197 135.281 40.608 135.384C40.7963 135.488 40.9457 135.644 41.035 135.833C41.1243 136.021 41.1491 136.231 41.1058 136.433V136.497L37.8412 138.297ZM40.1597 135.521C39.9417 135.529 39.7298 135.592 39.5463 135.704C39.1535 135.946 38.8209 136.266 38.5714 136.643C38.3219 137.019 38.1614 137.442 38.1011 137.883L40.8771 136.364C40.8867 136.216 40.8564 136.069 40.7891 135.935C40.7218 135.801 40.6197 135.686 40.4924 135.6C40.394 135.537 40.2787 135.501 40.1597 135.497V135.521Z" fill="#E0E0E0"/>
<path d="M43.575 137.691C43.5433 137.691 43.5129 137.679 43.4905 137.658C43.4681 137.636 43.4555 137.607 43.4555 137.577V134.215C43.4517 134.197 43.452 134.18 43.4564 134.162C43.4608 134.145 43.4692 134.129 43.4809 134.116C43.4926 134.102 43.5073 134.091 43.5241 134.084C43.5408 134.076 43.5591 134.072 43.5776 134.072C43.5962 134.072 43.6145 134.076 43.6312 134.084C43.648 134.091 43.6627 134.102 43.6744 134.116C43.6861 134.129 43.6945 134.145 43.6989 134.162C43.7032 134.18 43.7036 134.197 43.6998 134.215V137.577C43.6998 137.593 43.6966 137.608 43.6902 137.622C43.6839 137.636 43.6746 137.649 43.663 137.659C43.6513 137.67 43.6375 137.678 43.6224 137.684C43.6073 137.689 43.5912 137.691 43.575 137.691Z" fill="#E0E0E0"/>
<path d="M43.2164 135.122C43.1993 135.126 43.1814 135.126 43.1644 135.122C43.1495 135.116 43.136 135.107 43.1247 135.096C43.1134 135.085 43.1046 135.072 43.0988 135.058C43.0929 135.044 43.0902 135.028 43.0908 135.013C43.0913 134.998 43.0951 134.983 43.102 134.969L43.5439 133.983L44.0325 134.52C44.0545 134.542 44.0667 134.571 44.0667 134.602C44.0667 134.632 44.0545 134.661 44.0325 134.683C44.0209 134.694 44.0072 134.703 43.992 134.709C43.9768 134.715 43.9606 134.718 43.9442 134.718C43.9277 134.718 43.9115 134.715 43.8963 134.709C43.8811 134.703 43.8674 134.694 43.8558 134.683L43.6218 134.426L43.3411 135.048C43.3313 135.071 43.3139 135.091 43.2915 135.104C43.269 135.117 43.2427 135.124 43.2164 135.122Z" fill="#E0E0E0"/>
<path d="M44.7189 137.074C44.6858 137.074 44.6541 137.062 44.6307 137.04C44.6073 137.017 44.5941 136.987 44.5941 136.956V133.598C44.5941 133.567 44.6073 133.537 44.6307 133.514C44.6541 133.492 44.6858 133.48 44.7189 133.48C44.752 133.48 44.7837 133.492 44.8071 133.514C44.8305 133.537 44.8436 133.567 44.8436 133.598V136.956C44.8436 136.987 44.8305 137.017 44.8071 137.04C44.7837 137.062 44.752 137.074 44.7189 137.074Z" fill="#E0E0E0"/>
<path d="M44.3497 134.505H44.2977C44.2828 134.5 44.2693 134.491 44.258 134.48C44.2467 134.469 44.2379 134.456 44.2321 134.442C44.2262 134.427 44.2235 134.412 44.2241 134.397C44.2246 134.381 44.2284 134.366 44.2353 134.353L44.672 133.366L45.1918 133.899C45.2141 133.922 45.2265 133.952 45.2265 133.983C45.2265 134.014 45.2141 134.044 45.1918 134.067C45.1681 134.086 45.1376 134.097 45.106 134.097C45.0745 134.097 45.044 134.086 45.0203 134.067L44.7863 133.81L44.5004 134.431C44.4964 134.446 44.4891 134.46 44.4791 134.472C44.4691 134.483 44.4566 134.493 44.4424 134.5C44.4282 134.507 44.4126 134.511 44.3966 134.512C44.3806 134.513 44.3646 134.511 44.3497 134.505Z" fill="#E0E0E0"/>
<path d="M35.554 144.17L11.4745 130.985V113.402L35.554 126.587V144.17Z" fill="#E0E0E0"/>
<path d="M22.6044 137.079L24.4187 138.075V120.492L22.6044 119.496V137.079Z" fill="#EBEBEB"/>
<path d="M49.3196 122.346L45.8626 124.235C45.5172 124.422 45.2218 124.682 44.9992 124.995C44.7766 125.308 44.6327 125.665 44.5786 126.039C44.5786 126.646 45.1556 126.823 45.8626 126.434L49.3196 124.545C49.6641 124.357 49.9585 124.097 50.1802 123.784C50.4019 123.471 50.545 123.114 50.5985 122.741C50.5881 122.134 50.0266 121.957 49.3196 122.346Z" fill="#E0E0E0"/>
<path d="M24.4187 120.492L48.4981 107.307L46.6838 106.311L22.6044 119.496L24.4187 120.492Z" fill="#FAFAFA"/>
<path d="M46.6838 120.492L22.6044 107.307L24.4187 106.311L48.4981 119.496L46.6838 120.492Z" fill="#FAFAFA"/>
<g style="mix-blend-mode:multiply" opacity="0.8">
<path d="M12.5245 112.825L35.6111 125.452L58.6197 112.854L35.5539 100.217L12.5245 112.825Z" fill="#E0E0E0"/>
</g>
<path d="M46.684 122.257V120.492L48.4982 119.496V121.261L46.684 122.257Z" fill="#F0F0F0"/>
<path d="M58.5469 93.6242L34.4674 80.4392L10.3879 93.6242L34.4674 106.809L58.5469 93.6242Z" fill="#F0F0F0"/>
<g style="mix-blend-mode:multiply" opacity="0.8">
<path d="M12.436 93.8263L35.3043 106.351L58.5468 93.6241L35.6785 81.0999L12.436 93.8263Z" fill="#E0E0E0"/>
</g>
<path d="M34.4674 124.392L58.5469 111.202V93.6241L34.4674 106.809V124.392Z" fill="#EBEBEB"/>
<path d="M38.0596 120.315C38.0123 120.313 37.966 120.301 37.9244 120.28C37.8757 120.25 37.8364 120.208 37.8108 120.159C37.7852 120.109 37.7741 120.054 37.7788 119.999V119.678C37.7751 119.661 37.7754 119.643 37.7798 119.626C37.7842 119.609 37.7925 119.593 37.8042 119.58C37.8159 119.566 37.8307 119.555 37.8474 119.548C37.8642 119.54 37.8825 119.536 37.901 119.536C37.9195 119.536 37.9378 119.54 37.9546 119.548C37.9713 119.555 37.9861 119.566 37.9978 119.58C38.0095 119.593 38.0178 119.609 38.0222 119.626C38.0266 119.643 38.0269 119.661 38.0232 119.678V119.999C38.0232 120.048 38.0232 120.073 38.0232 120.078C38.0232 120.083 38.0596 120.078 38.1012 120.053C38.1773 119.986 38.2371 119.904 38.2766 119.813C38.3161 119.722 38.3343 119.624 38.3299 119.526V117.445C38.3299 117.413 38.343 117.383 38.3664 117.361C38.3898 117.339 38.4216 117.326 38.4547 117.326C38.4877 117.326 38.5195 117.339 38.5429 117.361C38.5663 117.383 38.5794 117.413 38.5794 117.445V119.526C38.586 119.665 38.5573 119.804 38.4958 119.931C38.4343 120.058 38.3418 120.169 38.2259 120.255C38.1767 120.288 38.1194 120.309 38.0596 120.315Z" fill="#E0E0E0"/>
<path d="M36.76 118.49V118.288C36.7879 117.77 36.9435 117.266 37.2143 116.815C37.4852 116.365 37.8638 115.981 38.3196 115.694C38.483 115.561 38.6863 115.479 38.9011 115.46C39.1159 115.441 39.3317 115.485 39.5185 115.588C39.7053 115.69 39.8539 115.845 39.9436 116.031C40.0334 116.217 40.0599 116.425 40.0195 116.626V116.695L36.76 118.49ZM39.0785 115.714C38.8594 115.725 38.6467 115.787 38.4599 115.897C38.0684 116.141 37.7371 116.463 37.4886 116.84C37.2401 117.217 37.0803 117.64 37.0199 118.081L39.7959 116.562C39.806 116.414 39.7759 116.266 39.7086 116.133C39.6412 115.999 39.5389 115.884 39.4112 115.798C39.3103 115.742 39.1954 115.713 39.0785 115.714Z" fill="#E0E0E0"/>
<path d="M42.4938 117.913C42.4607 117.913 42.429 117.901 42.4056 117.879C42.3822 117.856 42.369 117.826 42.369 117.795V114.437C42.369 114.406 42.3822 114.376 42.4056 114.353C42.429 114.331 42.4607 114.319 42.4938 114.319C42.5269 114.319 42.5586 114.331 42.582 114.353C42.6054 114.376 42.6185 114.406 42.6185 114.437V117.795C42.6185 117.826 42.6054 117.856 42.582 117.879C42.5586 117.901 42.5269 117.913 42.4938 117.913Z" fill="#E0E0E0"/>
<path d="M42.1353 115.344H42.0833C42.0684 115.338 42.0549 115.33 42.0436 115.319C42.0324 115.308 42.0235 115.295 42.0177 115.281C42.0119 115.266 42.0092 115.251 42.0097 115.236C42.0103 115.22 42.0141 115.205 42.0209 115.191L42.4576 114.23L42.9775 114.763C42.9998 114.785 43.0121 114.815 43.0121 114.846C43.0121 114.877 42.9998 114.907 42.9775 114.93C42.9538 114.95 42.9233 114.961 42.8917 114.961C42.8601 114.961 42.8296 114.95 42.8059 114.93L42.572 114.674L42.2861 115.295C42.2717 115.319 42.2484 115.338 42.2206 115.347C42.1928 115.356 42.1624 115.355 42.1353 115.344Z" fill="#E0E0E0"/>
<path d="M43.6375 117.297C43.6044 117.297 43.5726 117.284 43.5492 117.262C43.5258 117.24 43.5127 117.21 43.5127 117.179V113.816C43.5127 113.784 43.5258 113.754 43.5492 113.732C43.5726 113.71 43.6044 113.697 43.6375 113.697C43.6705 113.697 43.7023 113.71 43.7257 113.732C43.7491 113.754 43.7622 113.784 43.7622 113.816V117.179C43.7622 117.21 43.7491 117.24 43.7257 117.262C43.7023 117.284 43.6705 117.297 43.6375 117.297Z" fill="#E0E0E0"/>
<path d="M43.2736 114.728H43.2268C43.1963 114.715 43.1723 114.691 43.1597 114.662C43.1471 114.633 43.147 114.6 43.1593 114.57L43.6011 113.609L44.0898 114.146C44.1014 114.157 44.1107 114.17 44.1169 114.185C44.1232 114.199 44.1265 114.214 44.1265 114.23C44.1265 114.246 44.1232 114.261 44.1169 114.275C44.1107 114.29 44.1014 114.303 44.0898 114.314C44.0658 114.335 44.0342 114.347 44.0014 114.347C43.9686 114.347 43.9371 114.335 43.913 114.314L43.6843 114.057L43.3984 114.679C43.3844 114.697 43.3653 114.711 43.3433 114.72C43.3213 114.729 43.2972 114.731 43.2736 114.728Z" fill="#E0E0E0"/>
<path d="M34.4674 124.392L10.3879 111.202V93.6241L34.4674 106.809V124.392Z" fill="#E0E0E0"/>
<path d="M21.5231 117.302L23.3374 118.293V100.715L21.5231 99.7186V117.302Z" fill="#EBEBEB"/>
<path d="M48.233 102.569L44.7812 104.457C44.4358 104.645 44.1404 104.905 43.9178 105.218C43.6952 105.531 43.5513 105.888 43.4972 106.262C43.4972 106.868 44.0742 107.046 44.7812 106.656L48.233 104.763C48.5801 104.578 48.877 104.32 49.0999 104.007C49.3228 103.695 49.4657 103.337 49.5171 102.963C49.5171 102.357 48.9452 102.179 48.233 102.569Z" fill="#E0E0E0"/>
<path d="M23.3374 100.715L47.4168 87.5296L45.6025 86.5336L21.5231 99.7186L23.3374 100.715Z" fill="#FAFAFA"/>
<path d="M45.6025 100.715L21.5231 87.5296L23.3374 86.5336L47.4168 99.7186L45.6025 100.715Z" fill="#FAFAFA"/>
<path d="M45.6025 102.48V100.715L47.4168 99.7186V101.484L45.6025 102.48Z" fill="#F0F0F0"/>
<g style="mix-blend-mode:multiply" opacity="0.8">
<path d="M35.3044 106.351L37.4722 107.539L58.547 95.9959V93.6241L35.3044 106.351Z" fill="#E0E0E0"/>
</g>
<path d="M60.959 76.0409L36.8848 62.856L12.8053 76.0409L36.8848 89.2259L60.959 76.0409Z" fill="#F0F0F0"/>
<path d="M36.8845 106.809L60.9588 93.6241V76.0409L36.8845 89.2259V106.809Z" fill="#EBEBEB"/>
<path d="M40.4717 102.731C40.4257 102.733 40.3803 102.721 40.3417 102.697C40.2917 102.668 40.251 102.626 40.2244 102.577C40.1978 102.527 40.1862 102.471 40.191 102.416V102.095C40.191 102.064 40.2041 102.034 40.2275 102.012C40.2509 101.989 40.2827 101.977 40.3157 101.977C40.3488 101.977 40.3806 101.989 40.404 102.012C40.4274 102.034 40.4405 102.064 40.4405 102.095V102.416C40.4405 102.465 40.4405 102.49 40.4405 102.495C40.4405 102.5 40.4769 102.495 40.5237 102.495C40.5998 102.428 40.6597 102.346 40.6992 102.255C40.7387 102.164 40.7568 102.065 40.7524 101.967V99.8863C40.7487 99.8691 40.749 99.8513 40.7534 99.8342C40.7578 99.8171 40.7661 99.8012 40.7778 99.7875C40.7895 99.7739 40.8043 99.7629 40.821 99.7554C40.8378 99.7478 40.8561 99.7439 40.8746 99.7439C40.8931 99.7439 40.9114 99.7478 40.9282 99.7554C40.9449 99.7629 40.9597 99.7739 40.9714 99.7875C40.9831 99.8012 40.9914 99.8171 40.9958 99.8342C41.0002 99.8513 41.0005 99.8691 40.9968 99.8863V101.967C41.0023 102.106 40.9737 102.244 40.9132 102.371C40.8528 102.497 40.7621 102.609 40.6485 102.697C40.5928 102.72 40.5325 102.732 40.4717 102.731Z" fill="#E0E0E0"/>
<path d="M39.1514 100.912V100.71C39.1796 100.191 39.3354 99.6861 39.6062 99.2349C39.877 98.7837 40.2553 98.3989 40.7109 98.1111C40.8744 97.9749 41.0789 97.8908 41.2955 97.8706C41.5121 97.8505 41.7299 97.8953 41.9182 97.9987C42.1065 98.1022 42.2559 98.2591 42.3452 98.4474C42.4345 98.6356 42.4593 98.8457 42.416 99.048V99.1121L39.1514 100.912ZM41.4699 98.1358C41.2519 98.1433 41.04 98.2063 40.8565 98.3182C40.4644 98.5614 40.1323 98.8821 39.8829 99.2582C39.6335 99.6343 39.4726 100.057 39.4113 100.498L42.1873 98.979C42.1964 98.8316 42.1665 98.6845 42.1002 98.551C42.0339 98.4174 41.9334 98.3018 41.8078 98.2147C41.7107 98.1637 41.6017 98.1366 41.4907 98.1358H41.4699Z" fill="#E0E0E0"/>
<path d="M44.906 100.33C44.8898 100.33 44.8738 100.327 44.859 100.321C44.8441 100.315 44.8307 100.306 44.8195 100.295C44.8084 100.284 44.7997 100.271 44.794 100.257C44.7883 100.242 44.7857 100.227 44.7864 100.212V96.8784C44.7826 96.8612 44.783 96.8434 44.7874 96.8264C44.7918 96.8093 44.8001 96.7934 44.8118 96.7797C44.8235 96.7661 44.8383 96.7551 44.855 96.7475C44.8717 96.74 44.89 96.7361 44.9086 96.7361C44.9271 96.7361 44.9454 96.74 44.9622 96.7475C44.9789 96.7551 44.9936 96.7661 45.0053 96.7797C45.017 96.7934 45.0254 96.8093 45.0298 96.8264C45.0342 96.8434 45.0345 96.8612 45.0307 96.8784V100.241C45.0237 100.267 45.0075 100.29 44.9848 100.306C44.9621 100.323 44.9343 100.331 44.906 100.33Z" fill="#E0E0E0"/>
<path d="M44.5472 97.7611C44.532 97.7656 44.5157 97.7656 44.5005 97.7611C44.4851 97.7557 44.471 97.7474 44.4592 97.7366C44.4474 97.7259 44.438 97.7129 44.4317 97.6986C44.4253 97.6842 44.4222 97.6688 44.4224 97.6533C44.4226 97.6377 44.4262 97.6224 44.4329 97.6082L44.8747 96.6221L45.3634 97.1595C45.3749 97.1701 45.384 97.1827 45.3902 97.1967C45.3965 97.2107 45.3997 97.2257 45.3997 97.2409C45.3997 97.2561 45.3965 97.2711 45.3902 97.2851C45.384 97.299 45.3749 97.3117 45.3634 97.3222C45.3518 97.3333 45.338 97.342 45.3229 97.348C45.3077 97.354 45.2914 97.3571 45.275 97.3571C45.2586 97.3571 45.2423 97.354 45.2272 97.348C45.212 97.342 45.1982 97.3333 45.1867 97.3222L44.9527 97.0658L44.672 97.6871C44.6622 97.7104 44.6448 97.7301 44.6223 97.7434C44.5999 97.7567 44.5736 97.7629 44.5472 97.7611Z" fill="#E0E0E0"/>
<path d="M46.0497 99.7137C46.0336 99.7144 46.0174 99.7119 46.0023 99.7065C45.9872 99.7011 45.9734 99.6929 45.9618 99.6823C45.9501 99.6717 45.9408 99.6589 45.9345 99.6449C45.9282 99.6308 45.9249 99.6156 45.9249 99.6003V96.2375C45.9249 96.2061 45.9381 96.176 45.9615 96.1538C45.9849 96.1316 46.0166 96.1191 46.0497 96.1191C46.0828 96.1191 46.1145 96.1316 46.1379 96.1538C46.1613 96.176 46.1745 96.2061 46.1745 96.2375V99.6003C46.1745 99.6156 46.1712 99.6308 46.1649 99.6449C46.1586 99.6589 46.1493 99.6717 46.1376 99.6823C46.126 99.6929 46.1122 99.7011 46.097 99.7065C46.0819 99.7119 46.0658 99.7144 46.0497 99.7137Z" fill="#E0E0E0"/>
<path d="M45.691 97.1448H45.639C45.6241 97.1389 45.6106 97.1302 45.5993 97.1192C45.588 97.1083 45.5792 97.0953 45.5734 97.081C45.5675 97.0667 45.5648 97.0514 45.5654 97.0361C45.5659 97.0208 45.5698 97.0058 45.5766 96.9919L46.0133 96.0057L46.5331 96.5383C46.5554 96.5611 46.5678 96.591 46.5678 96.6221C46.5678 96.6532 46.5554 96.6831 46.5331 96.7059C46.522 96.7168 46.5087 96.7255 46.4939 96.7314C46.4792 96.7373 46.4634 96.7403 46.4474 96.7403C46.4314 96.7403 46.4155 96.7373 46.4008 96.7314C46.3861 96.7255 46.3727 96.7168 46.3616 96.7059L46.1277 96.4495L45.8417 97.0708C45.8377 97.0855 45.8304 97.0992 45.8204 97.111C45.8104 97.1228 45.7979 97.1326 45.7837 97.1395C45.7695 97.1465 45.7539 97.1506 45.7379 97.1515C45.7219 97.1524 45.706 97.1501 45.691 97.1448Z" fill="#E0E0E0"/>
<path d="M36.8848 106.809L12.8053 93.6241V76.0409L36.8848 89.2259V106.809Z" fill="#E0E0E0"/>
<path d="M23.9352 99.7186L25.7495 100.715V83.1314L23.9352 82.1354V99.7186Z" fill="#EBEBEB"/>
<path d="M50.6504 84.9854L47.1934 86.8788C46.8475 87.064 46.5519 87.3231 46.3299 87.6354C46.108 87.9478 45.9658 88.305 45.9146 88.6785C45.9146 89.285 46.4864 89.4625 47.1934 89.073L50.6504 87.1845C50.9958 86.997 51.2912 86.7368 51.5138 86.4239C51.7364 86.111 51.8803 85.7538 51.9344 85.3798C51.9344 84.7733 51.3574 84.5958 50.6504 84.9854Z" fill="#E0E0E0"/>
<path d="M25.7495 83.1314L49.8289 69.9464L48.0147 68.9504L23.9352 82.1353L25.7495 83.1314Z" fill="#FAFAFA"/>
<path d="M48.0147 83.1314L23.9352 69.9464L25.7495 68.9504L49.8289 82.1353L48.0147 83.1314Z" fill="#FAFAFA"/>
<path d="M48.0148 84.8966V83.1314L49.829 82.1354V83.9006L48.0148 84.8966Z" fill="#F0F0F0"/>
<path d="M70.7166 140.812V133.1C70.3295 130.265 69.0629 127.603 67.0776 125.452C63.865 122.154 60.985 123.273 60.0492 124.841C59.1135 126.409 61.2449 129.377 62.6069 131.054C64.2444 133.066 70.7062 142.395 70.7062 146.601L70.7166 140.812Z" fill="#37474F"/>
<path d="M70.7164 139.594C70.6692 139.594 70.6237 139.578 70.5877 139.549C70.5516 139.52 70.5273 139.48 70.5188 139.436C69.0528 131.029 62.3052 125.26 62.2376 125.201C62.2014 125.165 62.1812 125.117 62.1812 125.068C62.1812 125.018 62.2014 124.97 62.2376 124.935C62.256 124.917 62.2778 124.903 62.3019 124.894C62.326 124.884 62.3518 124.879 62.378 124.879C62.4041 124.879 62.4299 124.884 62.454 124.894C62.4781 124.903 62.4999 124.917 62.5183 124.935C62.5911 124.989 69.4375 130.852 70.9295 139.387C70.937 139.436 70.9239 139.487 70.8928 139.527C70.8617 139.568 70.8152 139.595 70.7631 139.604L70.7164 139.594Z" fill="#FAFAFA"/>
<path d="M70.7166 140.812C70.7166 140.812 71.0389 139.885 69.5989 139.648C68.1589 139.412 67.6079 138.277 67.4779 136.374C67.3479 134.471 66.7345 133.105 64.9306 132.824C63.1267 132.543 61.6764 133.406 60.5067 132.548C59.337 131.69 56.3063 129.624 53.7798 130.576C51.2534 131.527 52.0851 133.564 53.4003 134.885C54.7156 136.207 55.0899 136.66 54.0865 138.83C53.0832 140.999 53.811 143.001 56.1348 143.504C58.4585 144.007 59.7737 143.751 59.7737 146.162C59.7737 148.573 60.1584 149.653 61.432 150.6C62.7057 151.546 66.7033 151.122 68.3668 151.487C68.8663 151.609 69.3327 151.831 69.7351 152.137C70.1375 152.443 70.4668 152.826 70.701 153.262L70.7166 140.812Z" fill="#455A64"/>
<path d="M70.7165 150.757C70.6751 150.757 70.6348 150.745 70.6012 150.722C70.5676 150.699 70.5425 150.666 70.5294 150.629C66.303 138.736 56.743 133.928 56.6442 133.864C56.6003 133.839 56.5682 133.799 56.5544 133.752C56.5406 133.705 56.5462 133.654 56.57 133.611C56.5938 133.568 56.634 133.535 56.6825 133.519C56.7311 133.503 56.7843 133.505 56.8313 133.524C56.9249 133.573 66.6253 138.455 70.9037 150.491C70.9126 150.514 70.9164 150.539 70.9149 150.564C70.9134 150.588 70.9066 150.613 70.8949 150.635C70.8832 150.657 70.8669 150.677 70.847 150.693C70.827 150.709 70.8039 150.72 70.7789 150.728C70.7614 150.743 70.7398 150.753 70.7165 150.757Z" fill="#FAFAFA"/>
<path d="M64.6552 140.388H64.624C61.8636 139.791 57.45 140.117 57.4033 140.117C57.3773 140.119 57.3512 140.116 57.3264 140.108C57.3016 140.101 57.2787 140.088 57.2588 140.072C57.239 140.056 57.2228 140.037 57.211 140.015C57.1992 139.993 57.1921 139.969 57.1901 139.944C57.1872 139.919 57.1898 139.894 57.1975 139.87C57.2052 139.847 57.218 139.825 57.235 139.806C57.2521 139.787 57.273 139.771 57.2966 139.76C57.3202 139.749 57.3458 139.743 57.3721 139.742C57.5592 139.742 61.8948 139.412 64.7124 140.023C64.7597 140.033 64.8013 140.06 64.8292 140.098C64.8571 140.136 64.8693 140.182 64.8635 140.228C64.8577 140.274 64.8343 140.316 64.7978 140.346C64.7613 140.377 64.7142 140.393 64.6656 140.393L64.6552 140.388Z" fill="#FAFAFA"/>
<path d="M66.906 146.108C65.6428 146.108 64.3068 146.029 64.2236 146.024C64.1707 146.02 64.1215 145.997 64.0865 145.959C64.0515 145.921 64.0336 145.872 64.0364 145.822C64.0377 145.797 64.0443 145.772 64.0558 145.749C64.0673 145.727 64.0835 145.707 64.1034 145.69C64.1233 145.673 64.1465 145.661 64.1716 145.653C64.1967 145.645 64.2232 145.642 64.2496 145.644C65.686 145.74 67.1279 145.74 68.5643 145.644C68.616 145.637 68.6685 145.65 68.7104 145.679C68.7523 145.709 68.7802 145.753 68.7879 145.802C68.7923 145.826 68.7915 145.852 68.7855 145.876C68.7795 145.9 68.7684 145.923 68.7529 145.944C68.7374 145.964 68.7178 145.981 68.6952 145.994C68.6727 146.007 68.6476 146.015 68.6215 146.019C68.0526 146.086 67.4793 146.116 66.906 146.108Z" fill="#FAFAFA"/>
<path d="M63.3608 138.992C63.3079 138.989 63.2587 138.965 63.2237 138.928C63.1887 138.89 63.1708 138.84 63.1736 138.79C63.2687 137.429 63.568 136.087 64.0626 134.806C64.0822 134.761 64.1199 134.724 64.1676 134.705C64.2152 134.686 64.269 134.685 64.3173 134.703C64.342 134.711 64.3646 134.724 64.3839 134.74C64.4031 134.757 64.4186 134.777 64.4293 134.8C64.44 134.823 64.4457 134.847 64.4461 134.872C64.4465 134.897 64.4416 134.921 64.4317 134.944C63.9583 136.191 63.6679 137.493 63.5687 138.815C63.5674 138.84 63.561 138.864 63.5498 138.886C63.5386 138.908 63.5229 138.928 63.5036 138.945C63.4843 138.961 63.4617 138.974 63.4372 138.982C63.4127 138.99 63.3867 138.994 63.3608 138.992Z" fill="#FAFAFA"/>
<path d="M70.6542 64.5127V154.076C70.6542 154.894 71.2572 155.225 72.0058 154.815L185.448 92.6873C185.839 92.4432 186.164 92.1152 186.397 91.7297C186.63 91.3443 186.765 90.9122 186.789 90.4684V0.915203C186.789 0.0966896 186.186 -0.233674 185.442 0.175582L72.0006 62.3037C71.6095 62.5462 71.2839 62.8724 71.05 63.2561C70.8162 63.6398 70.6806 64.0702 70.6542 64.5127Z" fill="#31AC18"/>
<path d="M185.448 0.175582L72.0058 62.3037C71.6124 62.5466 71.2849 62.8742 71.0501 63.2597C70.8152 63.6452 70.6796 64.0779 70.6542 64.5225V70.1239L186.789 6.3736V0.915203C186.789 0.0966896 186.191 -0.233674 185.448 0.175582Z" fill="#263238"/>
<path d="M170.959 10.121C170.572 10.3601 170.25 10.6826 170.02 11.0622C169.79 11.4419 169.657 11.8679 169.634 12.3053C169.634 13.1091 170.226 13.4345 170.964 13.0351C171.351 12.7943 171.673 12.4708 171.904 12.0906C172.136 11.7104 172.269 11.284 172.295 10.8458C172.29 10.0421 171.713 9.71666 170.959 10.121Z" fill="white"/>
<path d="M176.236 7.22663C175.849 7.46632 175.527 7.78889 175.296 8.16833C175.065 8.54776 174.931 8.97343 174.905 9.41098C174.905 10.2196 175.503 10.5451 176.236 10.1407C176.624 9.90222 176.947 9.57992 177.178 9.20024C177.409 8.82056 177.542 8.3943 177.567 7.95639C177.567 7.13788 176.974 6.82724 176.236 7.22663Z" fill="white"/>
<path d="M181.517 4.33718C181.131 4.57686 180.809 4.89944 180.577 5.27887C180.346 5.65831 180.212 6.08397 180.187 6.52152C180.187 7.32524 180.784 7.6556 181.517 7.25128C181.904 7.01159 182.226 6.68902 182.457 6.30958C182.688 5.93015 182.822 5.50448 182.848 5.06693C182.848 4.25828 182.25 3.93285 181.517 4.33718Z" fill="white"/>
<path d="M107.091 62.1558V88.7821L82.7876 102.095V75.4689L107.091 62.1558ZM107.61 61.3027L82.2677 75.1829V102.938L107.61 89.0582V61.3027Z" fill="#FAFAFA"/>
<path d="M115.798 84.8572V56.5347L141.655 42.3734V70.6959L115.798 84.8572ZM116.318 56.8207V84.0042L141.135 70.41V43.2264L116.318 56.8207Z" fill="#FAFAFA"/>
<path d="M131.997 56.3522L133.359 53.5614C131.851 53.3596 130.317 53.6555 129.013 54.3996V56.939C129.914 56.4414 130.961 56.2354 131.997 56.3522Z" fill="#31AC18"/>
<path d="M134.284 58.2407L136.488 56.2684C136.276 55.6737 135.924 55.1328 135.458 54.6868C134.992 54.2408 134.425 53.9014 133.8 53.6945L132.444 56.4854C132.866 56.6345 133.249 56.8687 133.567 57.1717C133.884 57.4747 134.129 57.8394 134.284 58.2407Z" fill="#31AC18"/>
<path d="M125.446 70.8784L124.089 73.6643C125.594 73.8753 127.129 73.5823 128.43 72.8359V70.3015C127.53 70.8012 126.481 71.004 125.446 70.8784Z" fill="#31AC18"/>
<path d="M132.464 66.6674L133.821 67.9692C135.028 66.281 135.935 64.4173 136.509 62.4516L134.284 62.8559C133.891 64.2087 133.277 65.4947 132.464 66.6674Z" fill="#31AC18"/>
<path d="M129.013 69.9859V72.5203C130.709 71.4774 132.182 70.1389 133.353 68.5757L131.997 67.2936C131.18 68.3532 130.169 69.2651 129.013 69.9859Z" fill="#31AC18"/>
<path d="M136.686 56.7565L134.487 58.7289C134.632 59.25 134.704 59.7873 134.7 60.3264C134.694 60.9431 134.623 61.5577 134.487 62.1607L136.686 61.7416C136.893 60.8625 137.001 59.9649 137.008 59.0641C137.015 58.2844 136.906 57.5076 136.686 56.7565Z" fill="#31AC18"/>
<g opacity="0.2">
<path d="M131.997 56.3522L133.359 53.5614C131.851 53.3596 130.317 53.6555 129.013 54.3996V56.939C129.914 56.4414 130.961 56.2354 131.997 56.3522Z" fill="black"/>
<path d="M134.284 58.2407L136.488 56.2684C136.276 55.6737 135.924 55.1328 135.458 54.6868C134.992 54.2408 134.425 53.9014 133.8 53.6945L132.444 56.4854C132.866 56.6345 133.249 56.8687 133.567 57.1717C133.884 57.4747 134.129 57.8394 134.284 58.2407Z" fill="black"/>
<path d="M125.446 70.8784L124.089 73.6643C125.594 73.8753 127.129 73.5823 128.43 72.8359V70.3015C127.53 70.8012 126.481 71.004 125.446 70.8784Z" fill="black"/>
<path d="M132.464 66.6674L133.821 67.9692C135.028 66.281 135.935 64.4173 136.509 62.4516L134.284 62.8559C133.891 64.2087 133.277 65.4947 132.464 66.6674Z" fill="black"/>
<path d="M129.013 69.9859V72.5203C130.709 71.4774 132.182 70.1389 133.353 68.5757L131.997 67.2936C131.18 68.3532 130.169 69.2651 129.013 69.9859Z" fill="black"/>
<path d="M136.686 56.7565L134.487 58.7289C134.632 59.25 134.704 59.7873 134.7 60.3264C134.694 60.9431 134.623 61.5577 134.487 62.1607L136.686 61.7416C136.893 60.8625 137.001 59.9649 137.008 59.0641C137.015 58.2844 136.906 57.5076 136.686 56.7565Z" fill="black"/>
</g>
<path d="M128.435 57.2446V54.7102C126.738 55.7516 125.264 57.0904 124.095 58.6548L125.452 59.9566C126.265 58.8887 127.276 57.9698 128.435 57.2446Z" fill="#FAFAFA"/>
<path d="M124.989 60.5631L123.632 59.2614C122.423 60.9466 121.515 62.809 120.944 64.774L123.143 64.3549C123.545 63.0069 124.168 61.7274 124.989 60.5631Z" fill="#FAFAFA"/>
<path d="M122.748 66.8844C122.756 66.2675 122.829 65.653 122.967 65.0501L120.768 65.4742C120.56 66.3516 120.452 67.2475 120.445 68.1467C120.437 68.9329 120.546 69.7164 120.768 70.474L122.967 68.5017C122.818 67.9743 122.744 67.4303 122.748 66.8844Z" fill="#FAFAFA"/>
<path d="M123.143 68.9899L120.944 70.9622C121.156 71.5566 121.508 72.0973 121.974 72.5426C122.44 72.9879 123.007 73.326 123.632 73.5311L124.989 70.7452C124.566 70.5967 124.182 70.3628 123.863 70.0597C123.544 69.7567 123.299 69.3917 123.143 68.9899Z" fill="#FAFAFA"/>
<path d="M123.783 66.3075C123.783 63.3145 125.998 59.6805 128.727 58.1865C131.456 56.6924 133.671 57.9005 133.671 60.8935C133.671 63.8865 131.456 67.5205 128.727 69.0145C125.998 70.5085 123.783 69.3104 123.783 66.3075Z" fill="#31AC18"/>
<path opacity="0.2" d="M123.783 66.3075C123.783 63.3145 125.998 59.6805 128.727 58.1865C131.456 56.6924 133.671 57.9005 133.671 60.8935C133.671 63.8865 131.456 67.5205 128.727 69.0145C125.998 70.5085 123.783 69.3104 123.783 66.3075Z" fill="black"/>
<path d="M128.238 62.072C128.248 62.2641 128.248 62.4567 128.238 62.6489C128.228 62.8074 128.2 62.9645 128.155 63.1173C128.11 63.277 128.042 63.4297 127.952 63.5709C127.759 63.8872 127.481 64.1492 127.146 64.3303C127.002 64.4167 126.841 64.4753 126.673 64.5028C126.559 64.5243 126.442 64.5068 126.34 64.4535C126.249 64.3982 126.178 64.3172 126.138 64.2218C126.088 64.1022 126.06 63.9755 126.054 63.847C126.054 63.7484 126.054 63.6547 126.054 63.566C126.054 63.4772 126.054 63.3786 126.054 63.2652C126.063 63.0984 126.091 62.9331 126.138 62.7721C126.185 62.6152 126.253 62.4644 126.34 62.3234C126.432 62.1709 126.544 62.0301 126.673 61.9043C126.814 61.7713 126.973 61.6569 127.146 61.5641C127.291 61.4778 127.451 61.4176 127.619 61.3866C127.733 61.369 127.85 61.3881 127.952 61.4408C128.043 61.4961 128.114 61.5771 128.155 61.6726C128.205 61.8006 128.233 61.9355 128.238 62.072ZM129.974 60.2229C130 60.1653 130.034 60.1107 130.073 60.0602C130.114 60.011 130.165 59.9706 130.224 59.9418L130.795 59.6312C130.811 59.6177 130.831 59.6083 130.852 59.604C130.873 59.5997 130.895 59.6006 130.915 59.6066C130.946 59.6066 130.962 59.646 130.962 59.6904C130.964 59.7035 130.964 59.7167 130.962 59.7298C130.964 59.7495 130.964 59.7693 130.962 59.789L127.526 66.6182C127.496 66.6737 127.461 66.7266 127.422 66.7759C127.382 66.8254 127.332 66.8672 127.276 66.8992L126.704 67.2098C126.686 67.2182 126.665 67.2225 126.644 67.2225C126.624 67.2225 126.603 67.2182 126.585 67.2098C126.553 67.2098 126.538 67.1704 126.538 67.126C126.538 67.0816 126.538 67.1014 126.538 67.0816C126.538 67.0619 126.538 67.0471 126.538 67.0274L129.974 60.2229ZM126.855 63.3638C126.853 63.4557 126.878 63.5462 126.928 63.6252C126.964 63.6695 127.037 63.6597 127.141 63.6252C127.233 63.5779 127.306 63.5035 127.349 63.4131C127.395 63.3048 127.421 63.1897 127.427 63.0729C127.437 62.9087 127.437 62.744 127.427 62.5798C127.428 62.489 127.401 62.3998 127.349 62.3234C127.312 62.279 127.24 62.284 127.141 62.3234C127.046 62.3689 126.971 62.4437 126.928 62.5354C126.884 62.6442 126.859 62.7592 126.855 62.8757C126.843 63.0333 126.844 63.1917 126.86 63.349L126.855 63.3638ZM131.456 62.9694C131.466 63.1632 131.466 63.3574 131.456 63.5512C131.445 63.7077 131.419 63.8628 131.378 64.0147C131.286 64.3415 131.107 64.6403 130.858 64.8825C130.718 65.0185 130.559 65.1348 130.385 65.2277C130.241 65.3141 130.08 65.3727 129.912 65.4002C129.798 65.424 129.679 65.4064 129.579 65.3509C129.488 65.2956 129.417 65.2146 129.376 65.1192C129.326 64.9996 129.298 64.8729 129.293 64.7444C129.293 64.6458 129.293 64.5521 129.293 64.4683C129.293 64.3845 129.293 64.276 129.293 64.1626C129.303 64.0057 129.331 63.8503 129.376 63.6991C129.424 63.5406 129.492 63.3883 129.579 63.2455C129.67 63.0937 129.782 62.9544 129.912 62.8313C130.051 62.6953 130.21 62.579 130.385 62.4861C130.529 62.3997 130.69 62.3411 130.858 62.3136C130.971 62.2898 131.09 62.3074 131.191 62.3629C131.282 62.4182 131.353 62.4992 131.393 62.5946C131.438 62.7151 131.461 62.8417 131.461 62.9694H131.456ZM130.078 64.2662C130.078 64.3562 130.104 64.4445 130.151 64.5226C130.192 64.5669 130.26 64.562 130.364 64.5226C130.457 64.4756 130.532 64.4012 130.577 64.3105C130.619 64.2012 130.644 64.0865 130.65 63.9703C130.66 63.8061 130.66 63.6415 130.65 63.4772C130.65 63.3872 130.624 63.2988 130.577 63.2208C130.536 63.1765 130.468 63.1814 130.364 63.2208C130.271 63.2678 130.196 63.3422 130.151 63.4329C130.109 63.5422 130.084 63.6569 130.078 63.7731C130.065 63.9373 130.067 64.1022 130.083 64.2662H130.078Z" fill="#FAFAFA"/>
<path d="M149.583 66.3568V38.0294L175.44 23.8681V52.1956L149.583 66.3568ZM150.103 38.3154V65.4989L174.921 51.9096V24.7261L150.103 38.3154Z" fill="#FAFAFA"/>
<path d="M162.226 38.7394V36.2296C160.526 37.2706 159.051 38.6093 157.88 40.1743L159.242 41.4809C160.052 40.402 161.063 39.4728 162.226 38.7394Z" fill="#FAFAFA"/>
<path d="M158.774 42.0627L157.417 40.761C156.208 42.4456 155.3 44.3082 154.73 46.2736L156.929 45.8496C157.334 44.5043 157.956 43.2268 158.774 42.0627Z" fill="#FAFAFA"/>
<path d="M165.782 37.8518L167.144 35.056C165.636 34.8542 164.102 35.1502 162.798 35.8943V38.4238C163.699 37.9268 164.748 37.7258 165.782 37.8518Z" fill="#31AC18"/>
<path d="M168.074 39.7354L170.273 37.7631C170.061 37.169 169.708 36.6287 169.243 36.1835C168.777 35.7383 168.21 35.3999 167.585 35.1942L166.229 37.9801C166.652 38.1286 167.036 38.3625 167.354 38.6656C167.673 38.9686 167.919 39.3336 168.074 39.7354Z" fill="#31AC18"/>
<path d="M159.237 52.3731L157.88 55.1639C159.128 55.4055 160.62 55.1639 162.226 54.3306V51.8011C161.323 52.2991 160.272 52.5002 159.237 52.3731Z" fill="#31AC18"/>
<path d="M170.471 38.2512L168.272 40.2235C168.419 40.7462 168.493 41.2851 168.49 41.8261C168.482 42.4429 168.409 43.0574 168.272 43.6603L170.471 43.2412C170.678 42.3621 170.786 41.4646 170.793 40.5638C170.8 39.7824 170.691 39.0041 170.471 38.2512Z" fill="#31AC18"/>
<path d="M166.25 48.1621L167.606 49.4639C168.815 47.7787 169.723 45.9162 170.294 43.9512L168.095 44.3753C167.69 45.7206 167.068 46.9981 166.25 48.1621Z" fill="#31AC18"/>
<path d="M156.533 48.384C156.541 47.7672 156.614 47.1526 156.752 46.5497L154.553 46.9689C154.346 47.848 154.238 48.7455 154.231 49.6463C154.222 50.431 154.331 51.2128 154.553 51.9687L156.752 49.9964C156.604 49.4705 156.53 48.9283 156.533 48.384Z" fill="#31AC18"/>
<path d="M156.929 50.4846L154.73 52.4569C154.942 53.051 155.294 53.5912 155.76 54.0365C156.226 54.4817 156.793 54.8201 157.417 55.0258L158.774 52.2399C158.351 52.0914 157.967 51.8575 157.648 51.5544C157.33 51.2514 157.084 50.8863 156.929 50.4846Z" fill="#31AC18"/>
<path d="M162.798 51.4855V54.015C164.495 52.9813 165.97 51.651 167.144 50.095L165.787 48.7883C164.97 49.8507 163.957 50.7644 162.798 51.4855Z" fill="#31AC18"/>
<g opacity="0.2">
<path d="M165.782 37.8518L167.144 35.056C165.636 34.8542 164.102 35.1502 162.798 35.8943V38.4238C163.699 37.9268 164.748 37.7258 165.782 37.8518Z" fill="black"/>
<path d="M168.074 39.7354L170.273 37.7631C170.061 37.169 169.708 36.6287 169.243 36.1835C168.777 35.7383 168.21 35.3999 167.585 35.1942L166.229 37.9801C166.652 38.1286 167.036 38.3625 167.354 38.6656C167.673 38.9686 167.919 39.3336 168.074 39.7354Z" fill="black"/>
<path d="M159.237 52.3731L157.88 55.1639C159.128 55.4055 160.62 55.1639 162.226 54.3306V51.8011C161.323 52.2991 160.272 52.5002 159.237 52.3731Z" fill="black"/>
<path d="M170.471 38.2512L168.272 40.2235C168.419 40.7462 168.493 41.2851 168.49 41.8261C168.482 42.4429 168.409 43.0574 168.272 43.6603L170.471 43.2412C170.678 42.3621 170.786 41.4646 170.793 40.5638C170.8 39.7824 170.691 39.0041 170.471 38.2512Z" fill="black"/>
<path d="M166.25 48.1621L167.606 49.4639C168.815 47.7787 169.723 45.9162 170.294 43.9512L168.095 44.3753C167.69 45.7206 167.068 46.9981 166.25 48.1621Z" fill="black"/>
<path d="M156.533 48.384C156.541 47.7672 156.614 47.1526 156.752 46.5497L154.553 46.9689C154.346 47.848 154.238 48.7455 154.231 49.6463C154.222 50.431 154.331 51.2128 154.553 51.9687L156.752 49.9964C156.604 49.4705 156.53 48.9283 156.533 48.384Z" fill="black"/>
<path d="M156.929 50.4846L154.73 52.4569C154.942 53.051 155.294 53.5912 155.76 54.0365C156.226 54.4817 156.793 54.8201 157.417 55.0258L158.774 52.2399C158.351 52.0914 157.967 51.8575 157.648 51.5544C157.33 51.2514 157.084 50.8863 156.929 50.4846Z" fill="black"/>
<path d="M162.798 51.4855V54.015C164.495 52.9813 165.97 51.651 167.144 50.095L165.787 48.7883C164.97 49.8507 163.957 50.7644 162.798 51.4855Z" fill="black"/>
</g>
<path d="M157.568 47.817C157.568 44.8289 159.783 41.1949 162.512 39.696C165.241 38.197 167.456 39.4149 167.456 42.403C167.456 45.3911 165.241 49.0497 162.512 50.529C159.783 52.0082 157.568 50.81 157.568 47.817Z" fill="#31AC18"/>
<path opacity="0.2" d="M157.568 47.817C157.568 44.8289 159.783 41.1949 162.512 39.696C165.241 38.197 167.456 39.4149 167.456 42.403C167.456 45.3911 165.241 49.0497 162.512 50.529C159.783 52.0082 157.568 50.81 157.568 47.817Z" fill="black"/>
<path d="M162.023 43.5716C162.033 43.7637 162.033 43.9563 162.023 44.1485C162.012 44.3065 161.986 44.4634 161.945 44.6169C161.896 44.7735 161.828 44.9241 161.742 45.0656C161.648 45.2179 161.535 45.3587 161.404 45.4847C161.264 45.6177 161.104 45.7321 160.931 45.8249C160.786 45.9105 160.626 45.9706 160.458 46.0024C160.345 46.0215 160.228 46.0041 160.126 45.9531C160.034 45.8978 159.963 45.8168 159.923 45.7214C159.873 45.6001 159.845 45.4718 159.84 45.3417C159.835 45.2497 159.835 45.1576 159.84 45.0656C159.84 44.9768 159.84 44.8782 159.84 44.7648C159.85 44.6063 159.878 44.4492 159.923 44.2964C159.972 44.1382 160.04 43.986 160.126 43.8427C160.216 43.691 160.328 43.5517 160.458 43.4286C160.599 43.2956 160.758 43.1811 160.931 43.0883C161.077 43.0028 161.237 42.9427 161.404 42.9108C161.518 42.8918 161.635 42.9091 161.737 42.9601C161.829 43.0154 161.899 43.0965 161.94 43.1919C161.99 43.3132 162.018 43.4415 162.023 43.5716ZM163.759 41.7225C163.788 41.6659 163.821 41.6115 163.858 41.5598C163.9 41.5116 163.951 41.4715 164.009 41.4414L164.581 41.1259C164.616 41.1031 164.659 41.0942 164.7 41.1012C164.732 41.1012 164.747 41.1407 164.747 41.19C164.747 41.2393 164.747 41.19 164.747 41.2294C164.749 41.2491 164.749 41.2689 164.747 41.2886L161.316 48.1128C161.288 48.1694 161.255 48.2239 161.217 48.2755C161.177 48.3247 161.125 48.3651 161.067 48.3939L160.495 48.7094C160.478 48.721 160.458 48.7291 160.438 48.7334C160.417 48.7376 160.396 48.7379 160.375 48.7341C160.344 48.7341 160.328 48.6947 160.328 48.6453C160.327 48.6323 160.327 48.619 160.328 48.6059C160.326 48.5862 160.326 48.5664 160.328 48.5467L163.759 41.7225ZM160.64 44.8634C160.639 44.9536 160.665 45.0423 160.713 45.1198C160.755 45.1642 160.822 45.1593 160.926 45.1198C161.019 45.07 161.093 44.9942 161.139 44.9029C161.181 44.7952 161.206 44.6822 161.212 44.5676C161.222 44.4034 161.222 44.2387 161.212 44.0745C161.213 43.9843 161.188 43.8956 161.139 43.8181C161.098 43.7737 161.03 43.7786 160.926 43.8181C160.833 43.868 160.759 43.9437 160.713 44.035C160.671 44.1427 160.647 44.2557 160.64 44.3703C160.632 44.5347 160.634 44.6993 160.645 44.8634H160.64ZM165.241 44.469C165.257 44.661 165.257 44.8538 165.241 45.0459C165.232 45.2123 165.206 45.3775 165.163 45.5389C165.113 45.6968 165.045 45.8489 164.96 45.9926C164.868 46.1443 164.754 46.2836 164.622 46.4068C164.48 46.5399 164.321 46.6558 164.149 46.7519C164.004 46.837 163.844 46.8956 163.676 46.9245C163.563 46.946 163.445 46.9285 163.344 46.8752C163.252 46.8199 163.181 46.7389 163.141 46.6434C163.094 46.523 163.066 46.3968 163.058 46.2687C163.058 46.1701 163.058 46.0764 163.058 45.9876C163.058 45.8989 163.058 45.8003 163.058 45.6869C163.07 45.5286 163.098 45.3718 163.141 45.2184C163.19 45.0603 163.258 44.908 163.344 44.7648C163.437 44.6147 163.548 44.4757 163.676 44.3506C163.818 44.2188 163.977 44.1045 164.149 44.0104C164.295 43.9249 164.455 43.8648 164.622 43.8329C164.736 43.8139 164.853 43.8312 164.955 43.8822C165.046 43.9375 165.117 44.0185 165.158 44.1139C165.206 44.2273 165.236 44.3471 165.246 44.469H165.241ZM163.863 45.7608C163.862 45.851 163.888 45.9397 163.936 46.0172C163.978 46.0616 164.051 46.0567 164.149 46.0172C164.244 45.9699 164.319 45.8934 164.362 45.8003C164.407 45.6934 164.432 45.5799 164.435 45.465C164.45 45.3009 164.45 45.136 164.435 44.9719C164.438 44.8815 164.413 44.7923 164.362 44.7155C164.321 44.6711 164.253 44.6761 164.149 44.7155C164.056 44.7654 163.982 44.8411 163.936 44.9325C163.895 45.0403 163.87 45.1532 163.863 45.2678C163.855 45.4321 163.857 45.5967 163.869 45.7608H163.863Z" fill="#FAFAFA"/>
<path d="M82.2677 109.881V137.636L107.61 123.756V96.0057L82.2677 109.881Z" fill="#31AC18"/>
<path opacity="0.7" d="M82.2677 109.881V137.636L107.61 123.756V96.0057L82.2677 109.881Z" fill="#FAFAFA"/>
<path d="M82.2677 117.218C83.1255 117.534 84.2327 117.405 85.4388 116.725C88.168 115.246 90.3826 111.592 90.3826 108.604C90.4485 107.632 90.1065 106.675 89.4312 105.941L82.2677 109.861V117.218Z" fill="#31AC18"/>
<path d="M93.4289 117.903C93.6784 117.124 94.1723 117.09 94.5309 117.834L98.1075 125.231L103.436 106.094C103.66 105.305 104.029 105.3 104.257 106.094L107.61 117.391V123.761L88.1316 134.431L93.4289 117.903Z" fill="#31AC18"/>
<g opacity="0.2">
<path d="M82.2677 117.218C83.1255 117.534 84.2327 117.405 85.4388 116.725C88.168 115.246 90.3826 111.592 90.3826 108.604C90.4485 107.632 90.1065 106.675 89.4312 105.941L82.2677 109.861V117.218Z" fill="black"/>
<path d="M93.4289 117.903C93.6784 117.124 94.1723 117.09 94.5309 117.834L98.1075 125.231L103.436 106.094C103.66 105.305 104.029 105.3 104.257 106.094L107.61 117.391V123.761L88.1316 134.431L93.4289 117.903Z" fill="black"/>
</g>
<path d="M107.091 96.8784V123.505L82.7876 136.818V110.192L107.091 96.8784ZM107.61 96.0254L82.2677 109.901V137.656L107.61 123.776V96.0057V96.0254Z" fill="#31AC18"/>
<path opacity="0.7" d="M107.091 96.8784V123.505L82.7876 136.818V110.192L107.091 96.8784ZM107.61 96.0254L82.2677 109.901V137.656L107.61 123.776V96.0057V96.0254Z" fill="#FAFAFA"/>
<path d="M116.058 91.3806V119.131L141.395 105.256V77.5054L116.058 91.3806Z" fill="#31AC18"/>
<path opacity="0.7" d="M116.058 91.3806V119.131L141.395 105.256V77.5054L116.058 91.3806Z" fill="#FAFAFA"/>
<path d="M116.058 98.7177C116.916 99.0332 118.018 98.9001 119.224 98.2246C121.953 96.7453 124.168 93.0916 124.168 90.0986C124.233 89.1283 123.891 88.173 123.216 87.4409L116.058 91.3609V98.7177Z" fill="#31AC18"/>
<path d="M127.214 99.403C127.469 98.619 127.962 98.5895 128.321 99.3291L131.892 106.725L137.226 87.5888C137.444 86.7999 137.814 86.795 138.047 87.5888L141.395 98.8804V105.261L121.917 115.926L127.214 99.403Z" fill="#31AC18"/>
<g opacity="0.2">
<path d="M116.058 98.7176C116.916 99.0332 118.018 98.9 119.224 98.2245C121.953 96.7453 124.168 93.0916 124.168 90.0986C124.233 89.1283 123.891 88.1729 123.216 87.4409L116.058 91.3608V98.7176Z" fill="black"/>
<path d="M127.214 99.403C127.469 98.619 127.962 98.5895 128.321 99.3291L131.892 106.725L137.226 87.5888C137.444 86.7999 137.814 86.795 138.047 87.5888L141.395 98.8804V105.261L121.917 115.926L127.214 99.403Z" fill="black"/>
</g>
<path d="M140.876 78.3583V104.985L116.578 118.298V91.6715L140.876 78.3583ZM141.395 77.5004L116.058 91.3806V119.131L141.395 105.261V77.5004Z" fill="#31AC18"/>
<path opacity="0.7" d="M140.876 78.3583V104.985L116.578 118.298V91.6715L140.876 78.3583ZM141.395 77.5004L116.058 91.3806V119.131L141.395 105.261V77.5004Z" fill="#FAFAFA"/>
<path d="M149.843 72.8753V100.631L175.181 86.7555V59.0001L149.843 72.8753Z" fill="#31AC18"/>
<path opacity="0.7" d="M149.843 72.8753V100.631L175.181 86.7555V59.0001L149.843 72.8753Z" fill="#FAFAFA"/>
<path d="M149.843 80.2173C150.701 80.5329 151.803 80.3997 153.009 79.7242C155.738 78.245 157.953 74.5962 157.953 71.6032C158.017 70.6315 157.676 69.6747 157.001 68.9406L149.843 72.8605V80.2173Z" fill="#31AC18"/>
<path d="M160.999 80.8977C161.254 80.1186 161.748 80.0891 162.106 80.8287L165.678 88.2249L171.011 69.0835C171.23 68.2946 171.599 68.2946 171.833 69.0835L175.181 80.38V86.7555L155.702 97.4208L160.999 80.8977Z" fill="#31AC18"/>
<g opacity="0.2">
<path d="M149.843 80.2173C150.701 80.5329 151.803 80.3997 153.009 79.7242C155.738 78.245 157.953 74.5962 157.953 71.6032C158.017 70.6315 157.676 69.6747 157.001 68.9406L149.843 72.8605V80.2173Z" fill="black"/>
<path d="M160.999 80.8977C161.254 80.1186 161.748 80.0891 162.106 80.8287L165.678 88.2249L171.011 69.0835C171.23 68.2946 171.599 68.2946 171.833 69.0835L175.181 80.38V86.7555L155.702 97.4208L160.999 80.8977Z" fill="black"/>
</g>
<path d="M174.661 59.8531V86.4794L150.363 99.7926V73.1663L174.661 59.8531ZM175.181 59.0001L149.843 72.8753V100.631L175.181 86.7555V59.0001Z" fill="#31AC18"/>
<path opacity="0.7" d="M174.661 59.8531V86.4794L150.363 99.7926V73.1663L174.661 59.8531ZM175.181 59.0001L149.843 72.8753V100.631L175.181 86.7555V59.0001Z" fill="#FAFAFA"/>
<path d="M172.015 68.4968L179.48 70.3853L176.964 71.7314L181.528 74.9019L180.935 75.7697L176.236 72.5795L175.612 75.1829L172.015 68.4968Z" fill="#263238"/>
<path d="M210.785 51.0565L194.482 59.9812C194.089 60.2242 193.762 60.5517 193.527 60.9373C193.292 61.3228 193.156 61.7555 193.131 62.2001V74.6898L188.972 78.7627C188.374 79.3494 188.582 79.7488 189.435 79.6502L193.11 79.241V84.6944C193.11 85.508 193.713 85.8433 194.462 85.434L210.764 76.5044C211.158 76.2617 211.486 75.9342 211.72 75.5486C211.955 75.163 212.091 74.7302 212.116 74.2855V51.7961C212.137 50.9776 211.534 50.6472 210.785 51.0565Z" fill="#37474F"/>
<path d="M198.563 64.6951L197.877 64.6458C196.973 64.5768 195.897 64.2366 195.897 63.0088C195.923 62.5567 196.061 62.1168 196.299 61.7245C196.537 61.3322 196.87 60.9986 197.269 60.7505C197.862 60.43 198.366 60.5631 198.558 61.0266C198.754 60.333 199.213 59.7325 199.847 59.3403C200.606 58.9261 201.22 59.2614 201.22 60.0947C201.22 61.2978 200.149 62.8214 199.25 63.8865L198.563 64.6951Z" fill="#FAFAFA"/>
<path d="M205.041 57.6539L208.68 55.6816C209.423 55.2724 210.031 55.4597 210.031 56.1007C209.975 56.4938 209.824 56.8692 209.589 57.1976C209.355 57.5261 209.044 57.7987 208.68 57.9942L205.041 59.9665C204.292 60.3757 203.689 60.1884 203.689 59.5474C203.744 59.154 203.895 58.7781 204.13 58.4495C204.364 58.1209 204.676 57.8485 205.041 57.6539Z" fill="#FAFAFA"/>
<path d="M197.243 68.7088L200.882 66.7365C201.631 66.3272 202.234 66.5146 202.234 67.1507C202.179 67.5449 202.029 67.9218 201.794 68.2513C201.56 68.5808 201.247 68.8539 200.882 69.049L197.243 71.0213C196.5 71.4306 195.897 71.2432 195.897 70.6071C195.951 70.2136 196.101 69.8373 196.335 69.5079C196.568 69.1786 196.879 68.905 197.243 68.7088Z" fill="#FAFAFA"/>
<path d="M197.243 73.5311L208.68 67.2739C209.423 66.8647 210.031 67.0521 210.031 67.6881C209.976 68.082 209.825 68.4584 209.59 68.7878C209.356 69.1171 209.044 69.3905 208.68 69.5865L197.243 75.8437C196.5 76.2529 195.897 76.0656 195.897 75.4295C195.951 75.0359 196.101 74.6597 196.335 74.3303C196.568 74.0009 196.879 73.7274 197.243 73.5311Z" fill="#FAFAFA"/>
<path d="M197.243 78.0329L208.68 71.7757C209.423 71.3665 210.031 71.5538 210.031 72.1948C209.975 72.5879 209.824 72.9633 209.589 73.2917C209.355 73.6202 209.044 73.8928 208.68 74.0883L197.243 80.3455C196.5 80.7547 195.897 80.5673 195.897 79.9313C195.951 79.5377 196.101 79.1614 196.335 78.8321C196.568 78.5027 196.879 78.2292 197.243 78.0329Z" fill="#FAFAFA"/>
<path d="M26.3109 168.267L51.6484 182.142L76.9911 168.267L51.6484 154.386L26.3109 168.267Z" fill="#31AC18"/>
<path opacity="0.7" d="M26.3109 168.267L51.6484 182.142L76.9911 168.267L51.6484 154.386L26.3109 168.267Z" fill="#FAFAFA"/>
<path d="M33.0118 171.935C34.5206 171.887 35.9973 171.509 37.3265 170.831C40.0558 169.351 40.0558 166.886 37.3265 165.407C36.1366 164.792 34.821 164.427 33.4693 164.337L26.3109 168.267L33.0118 171.935Z" fill="#31AC18"/>
<path d="M50.3747 169.223C50.0368 168.76 50.749 168.612 51.9655 168.883L64.104 171.605L54.6271 160.575C54.2372 160.121 54.7831 160.017 55.854 160.348L71.1948 165.081L77.0119 168.267L57.5331 178.932L50.3747 169.223Z" fill="#31AC18"/>
<g opacity="0.2">
<path d="M33.0118 171.935C34.5206 171.887 35.9973 171.509 37.3265 170.831C40.0558 169.351 40.0558 166.886 37.3265 165.407C36.1366 164.792 34.821 164.427 33.4693 164.337L26.3109 168.267L33.0118 171.935Z" fill="black"/>
<path d="M50.3747 169.223C50.0368 168.76 50.749 168.612 51.9655 168.883L64.104 171.605L54.6271 160.575C54.2372 160.121 54.7831 160.017 55.854 160.348L71.1948 165.081L77.0119 168.267L57.5331 178.932L50.3747 169.223Z" fill="black"/>
</g>
<path d="M51.6276 154.958L75.9306 168.272L51.6276 181.585L27.3298 168.272L51.6276 154.958ZM51.6276 154.391L26.3109 168.267L51.6276 182.142L76.9703 168.267L51.6276 154.391Z" fill="#31AC18"/>
<path opacity="0.7" d="M51.6276 154.958L75.9306 168.272L51.6276 181.585L27.3298 168.272L51.6276 154.958ZM51.6276 154.391L26.3109 168.267L51.6276 182.142L76.9703 168.267L51.6276 154.391Z" fill="#FAFAFA"/>
<path d="M26.3109 168.267V170.579L51.6484 184.454V182.142L26.3109 168.267Z" fill="#31AC18"/>
<path opacity="0.6" d="M26.3109 168.267V170.579L51.6484 184.454V182.142L26.3109 168.267Z" fill="#FAFAFA"/>
<path d="M76.9911 168.267L51.6484 182.142V184.454L76.9911 170.579V168.267Z" fill="#31AC18"/>
<path opacity="0.1" d="M76.9911 168.267L51.6484 182.142V184.454L76.9911 170.579V168.267Z" fill="#FAFAFA"/>
<path d="M222.695 116.266L197.352 102.391L172.015 116.266L197.352 130.142L222.695 116.266Z" fill="#263238"/>
<path d="M197.352 102.391L172.015 116.266V134.767L197.352 148.647V102.391Z" fill="#263238"/>
<path d="M178.352 138.238L174.13 110.488L199.468 96.6122L203.694 124.363L178.352 138.238Z" fill="#31AC18"/>
<path opacity="0.7" d="M178.352 138.238L174.13 110.488L199.468 96.6122L203.694 124.363L178.352 138.238Z" fill="#FAFAFA"/>
<path d="M174.13 110.487L171.687 109.984L175.773 136.828L178.351 138.238L174.13 110.487Z" fill="#31AC18"/>
<path opacity="0.1" d="M174.13 110.487L171.687 109.984L175.773 136.828L178.351 138.238L174.13 110.487Z" fill="#FAFAFA"/>
<path d="M197.03 96.1093L199.468 96.6122L174.13 110.487L171.687 109.985L197.03 96.1093Z" fill="#31AC18"/>
<path opacity="0.6" d="M197.03 96.1093L199.468 96.6122L174.13 110.487L171.687 109.985L197.03 96.1093Z" fill="#FAFAFA"/>
<path d="M181.689 110.28C181.558 109.701 181.294 109.155 180.916 108.683C180.538 108.211 180.054 107.824 179.501 107.549L174.13 110.507L174.931 115.763C175.44 116.009 175.995 116.156 176.565 116.196C177.134 116.236 177.706 116.167 178.248 115.995C179.463 115.612 180.486 114.817 181.121 113.762C181.756 112.707 181.958 111.468 181.689 110.28Z" fill="#31AC18"/>
<path opacity="0.2" d="M181.689 110.28C181.558 109.701 181.294 109.155 180.916 108.683C180.538 108.211 180.054 107.824 179.501 107.549L174.13 110.507L174.931 115.763C175.44 116.009 175.995 116.156 176.565 116.196C177.134 116.236 177.706 116.167 178.248 115.995C179.463 115.612 180.486 114.817 181.121 113.762C181.756 112.707 181.958 111.468 181.689 110.28Z" fill="black"/>
<path d="M187.423 111.439C187.584 110.635 188.021 110.581 188.4 111.316L192.133 118.574L194.982 103.037C195.127 102.233 195.574 102.164 195.98 102.884L202.067 113.678L203.694 124.353L182.578 135.925C182.536 135.709 186.326 116.873 187.423 111.439Z" fill="#31AC18"/>
<path opacity="0.2" d="M187.423 111.439C187.584 110.635 188.021 110.581 188.4 111.316L192.133 118.574L194.982 103.037C195.127 102.233 195.574 102.164 195.98 102.884L202.067 113.678L203.694 124.353L182.578 135.925C182.536 135.709 186.326 116.873 187.423 111.439Z" fill="black"/>
<path d="M199.063 97.4012L203.128 124.101L178.757 137.449L174.692 110.749L199.063 97.4012ZM199.468 96.6122L174.13 110.488L178.352 138.238L203.694 124.363L199.468 96.6122Z" fill="#31AC18"/>
<path opacity="0.7" d="M199.063 97.4012L203.128 124.101L178.757 137.449L174.692 110.749L199.063 97.4012ZM199.468 96.6122L174.13 110.488L178.352 138.238L203.694 124.363L199.468 96.6122Z" fill="#FAFAFA"/>
<path d="M186.799 142.863L182.573 115.113L207.916 101.237L212.137 128.988L186.799 142.863Z" fill="#31AC18"/>
<path opacity="0.7" d="M186.799 142.863L182.573 115.113L207.916 101.237L212.137 128.988L186.799 142.863Z" fill="#FAFAFA"/>
<path d="M182.573 115.113L180.135 114.61L184.221 141.453L186.799 142.863L182.573 115.113Z" fill="#31AC18"/>
<path opacity="0.1" d="M182.573 115.113L180.135 114.61L184.221 141.453L186.799 142.863L182.573 115.113Z" fill="#FAFAFA"/>
<path d="M205.472 100.734L207.915 101.237L182.573 115.113L180.135 114.61L205.472 100.734Z" fill="#31AC18"/>
<path opacity="0.6" d="M205.472 100.734L207.915 101.237L182.573 115.113L180.135 114.61L205.472 100.734Z" fill="#FAFAFA"/>
<path d="M190.131 114.905C190.002 114.325 189.738 113.778 189.36 113.305C188.981 112.832 188.498 112.444 187.943 112.169L182.573 115.127L183.373 120.384C183.882 120.629 184.438 120.776 185.007 120.816C185.577 120.856 186.149 120.788 186.69 120.615C187.904 120.232 188.926 119.438 189.561 118.384C190.196 117.331 190.399 116.092 190.131 114.905Z" fill="#31AC18"/>
<path opacity="0.2" d="M190.131 114.905C190.002 114.325 189.738 113.778 189.36 113.305C188.981 112.832 188.498 112.444 187.943 112.169L182.573 115.127L183.373 120.384C183.882 120.629 184.438 120.776 185.007 120.816C185.577 120.856 186.149 120.788 186.69 120.615C187.904 120.232 188.926 119.438 189.561 118.384C190.196 117.331 190.399 116.092 190.131 114.905Z" fill="black"/>
<path d="M195.87 116.064C196.032 115.26 196.468 115.206 196.848 115.941L200.58 123.204L203.424 107.672C203.569 106.863 204.022 106.799 204.427 107.519L210.515 118.313L212.137 128.988L191.02 140.551C190.979 140.334 194.774 121.498 195.87 116.064Z" fill="#31AC18"/>
<path opacity="0.2" d="M195.87 116.064C196.032 115.26 196.468 115.206 196.848 115.941L200.58 123.204L203.424 107.672C203.569 106.863 204.022 106.799 204.427 107.519L210.515 118.313L212.137 128.988L191.02 140.551C190.979 140.334 194.774 121.498 195.87 116.064Z" fill="black"/>
<path d="M207.51 102.026L211.575 128.727L187.205 142.074L183.15 115.374L207.52 102.026M207.926 101.237L182.573 115.122L186.789 142.863L212.126 128.988L207.905 101.237H207.926Z" fill="#31AC18"/>
<path opacity="0.7" d="M207.51 102.026L211.575 128.727L187.205 142.074L183.15 115.374L207.52 102.026M207.926 101.237L182.573 115.122L186.789 142.863L212.126 128.988L207.905 101.237H207.926Z" fill="#FAFAFA"/>
<path d="M197.352 148.647L222.695 134.772V116.266L197.352 130.142V148.647Z" fill="#37474F"/>
<path d="M197.357 130.142L172.015 116.266V134.767L197.357 148.652V130.142ZM186.503 128.825L182.864 126.853C182.499 126.658 182.186 126.385 181.952 126.055C181.717 125.726 181.567 125.349 181.512 124.954C181.512 124.313 182.115 124.131 182.864 124.535L186.503 126.508C186.867 126.704 187.179 126.977 187.413 127.306C187.648 127.636 187.799 128.012 187.854 128.406C187.854 129.047 187.246 129.234 186.503 128.825Z" fill="#455A64"/>
<path d="M222.698 116.264L197.356 130.142L203.69 140.548L229.032 126.671L222.698 116.264Z" fill="#455A64"/>
<path d="M172.014 120.891L169.904 122.05L172.014 116.266V120.891Z" fill="#263238"/>
<path d="M81.4203 30.3521L79.788 30.9487V27.5316C79.788 24.8246 77.5058 24.1738 75.0313 25.5297C72.5568 26.8808 70.5554 30.1795 70.5554 32.8865V33.3796C70.2071 33.2775 69.8388 33.252 69.4785 33.3049C69.1183 33.3579 68.7754 33.488 68.476 33.6853C67.536 34.2642 66.7536 35.0458 66.1926 35.9661C65.6316 36.8864 65.3078 37.9194 65.2477 38.981V39.2078L62.9708 40.4553C62.3517 40.8361 61.8363 41.3505 61.4668 41.9564C61.0972 42.5622 60.884 43.2424 60.8446 43.9414C60.8446 45.2283 61.7959 45.746 62.9708 45.105L81.4203 35.0018C82.0401 34.6205 82.5559 34.1053 82.9255 33.4985C83.295 32.8918 83.5078 32.2106 83.5465 31.5108C83.5465 30.2337 82.5951 29.7111 81.4203 30.3521Z" fill="#F0F0F0"/>
<path d="M117.742 162.424L117.649 159.44L120.248 159.016L120.399 161.561C120.523 162.152 120.965 162.345 121.08 162.68C121.194 163.015 119.302 166.427 118.241 167.182C117.181 167.936 115.455 166.97 115.288 166.61C115.122 166.25 116.708 166.516 116.968 165.994C117.321 165.293 117.742 162.424 117.742 162.424Z" fill="#FFA8A7"/>
<path d="M120.632 162.054C120.289 162.325 120.029 163.01 119.556 163.947C119.083 164.884 118.413 166.413 117.68 166.615C116.827 166.871 115.153 166.408 116.219 166.329C116.453 166.329 116.864 166.23 116.973 165.994C117.015 165.911 117.048 165.826 117.072 165.737C116.703 165.832 116.319 165.865 115.938 165.836C115.655 165.794 115.366 165.829 115.103 165.936C114.84 166.043 114.614 166.219 114.451 166.442C114.275 166.694 114.561 167.118 114.561 167.118C114.888 167.497 115.496 167.877 116.9 167.976C118.304 168.074 119.135 167.882 119.64 166.99C120.289 165.992 121.001 165.032 121.771 164.115C122.296 163.351 121.449 162.256 120.632 162.054Z" fill="#263238"/>
<path d="M117.056 165.791C116.973 165.994 116.354 166.058 116.048 166.097C115.741 166.137 115.59 166.408 116.089 166.561C116.952 166.644 117.378 165.777 117.056 165.791Z" fill="#FFA8A7"/>
<path d="M142.388 152.779L140.226 150.624L141.879 148.652L143.771 150.461C144.291 150.826 144.748 150.693 145.066 150.871C145.383 151.048 146.36 154.815 146.105 156.028C145.85 157.241 143.875 157.621 143.506 157.453C143.137 157.286 144.504 156.492 144.333 155.94C144.078 155.19 142.388 152.779 142.388 152.779Z" fill="#FFA8A7"/>
<path d="M144.291 150.683C144.223 151.102 144.504 151.778 144.811 152.774C145.118 153.77 145.674 155.333 145.273 155.954C144.816 156.679 143.241 157.389 143.984 156.66C144.145 156.497 144.395 156.166 144.312 155.935C144.286 155.846 144.251 155.761 144.208 155.678C143.995 155.982 143.73 156.249 143.423 156.467C143.182 156.613 142.99 156.82 142.869 157.066C142.748 157.311 142.704 157.584 142.742 157.853C142.783 158.154 143.293 158.292 143.293 158.292C143.813 158.37 144.525 158.267 145.643 157.463C146.76 156.66 147.249 155.984 146.994 154.998C146.784 153.843 146.643 152.677 146.573 151.507C146.443 150.624 145.04 150.318 144.291 150.683Z" fill="#263238"/>
<path d="M144.229 155.728C144.307 155.935 143.885 156.369 143.683 156.595C143.48 156.822 143.558 157.113 144.041 156.911C144.748 156.433 144.457 155.516 144.229 155.728Z" fill="#FFA8A7"/>
<path d="M124.869 107.095C125.561 104.817 125.124 103.431 124.594 101.459C123.617 97.8498 122.691 94.2257 122.691 94.2257C122.691 94.2257 122 80.4786 121.969 79.2262C121.932 77.7469 121.631 76.9186 121.501 75.6661C121.428 74.9561 120.893 74.8821 120.944 74.9068V77.6878C120.465 77.2818 120.012 76.8487 119.588 76.391C119.099 75.8338 118.605 75.8979 118.449 76.1789C118.293 76.46 119.099 77.0073 119.489 77.7321C119.928 78.4564 120.416 79.1531 120.95 79.8179V87.3324L118.87 88.4764L118.465 95.6556L121.698 106.824L124.869 107.095Z" fill="#FFA8A7"/>
<path d="M115.434 102.376L115.881 106.114L119.764 106.538L119.203 101.578L115.434 102.376Z" fill="#FFA8A7"/>
<path d="M95.6017 73.4572V101.208L120.944 87.3324V59.577L95.6017 73.4572Z" fill="#31AC18"/>
<path opacity="0.7" d="M95.6017 73.4572V101.208L120.944 87.3324V59.577L95.6017 73.4572Z" fill="#FAFAFA"/>
<path d="M95.6017 80.7942C96.4594 81.1098 97.5667 80.9766 98.7728 80.3011C101.502 78.8219 103.717 75.1681 103.717 72.1751C103.78 71.2036 103.439 70.2472 102.765 69.5125L95.6017 73.4572V80.7942Z" fill="#31AC18"/>
<path opacity="0.2" d="M95.6017 80.7942C96.4594 81.1098 97.5667 80.9766 98.7728 80.3011C101.502 78.8219 103.717 75.1681 103.717 72.1751C103.78 71.2036 103.439 70.2472 102.765 69.5125L95.6017 73.4572V80.7942Z" fill="black"/>
<path d="M106.763 81.4796C107.013 80.6956 107.506 80.666 107.865 81.4056L111.442 88.8018L116.775 69.6654C116.994 68.8765 117.363 68.8715 117.591 69.6654L120.944 80.9619V87.3374L101.466 98.0027L106.763 81.4796Z" fill="#31AC18"/>
<path opacity="0.2" d="M106.763 81.4796C107.013 80.6956 107.506 80.666 107.865 81.4056L111.442 88.8018L116.775 69.6654C116.994 68.8765 117.363 68.8715 117.591 69.6654L120.944 80.9619V87.3374L101.466 98.0027L106.763 81.4796Z" fill="black"/>
<path d="M120.425 60.4349V87.0612L96.1215 100.374V73.7481L120.425 60.4349ZM120.944 59.577L95.6017 73.4572V101.208L120.944 87.3324V59.577Z" fill="#31AC18"/>
<path opacity="0.7" d="M120.425 60.4349V87.0612L96.1215 100.374V73.7481L120.425 60.4349ZM120.944 59.577L95.6017 73.4572V101.208L120.944 87.3324V59.577Z" fill="#FAFAFA"/>
<path d="M95.6017 101.208L93.4911 100.054V72.2984L95.6017 73.4571V101.208Z" fill="#31AC18"/>
<path opacity="0.1" d="M95.6017 101.208L93.4911 100.054V72.2984L95.6017 73.4571V101.208Z" fill="#FAFAFA"/>
<path d="M93.4911 72.2984L118.829 58.4232L120.944 59.577L95.6017 73.4572L93.4911 72.2984Z" fill="#31AC18"/>
<path opacity="0.6" d="M93.4911 72.2984L118.829 58.4232L120.944 59.577L95.6017 73.4572L93.4911 72.2984Z" fill="#FAFAFA"/>
<path d="M124.869 107.095C124.802 107.416 124.646 108.047 124.35 109.112C123.778 111.084 122.915 113.88 122.546 114.812C122.546 114.851 122.514 114.886 122.499 114.915L124.032 117.282C124.032 117.282 122.993 118.49 119.946 119.333C116.9 120.177 113.188 118.466 113.188 118.466C113.188 118.466 112.403 114.56 112.258 113.466C112.258 113.402 112.258 113.303 112.216 113.19C112.185 112.958 112.154 112.751 112.107 112.558C112.107 112.558 112.107 112.524 112.107 112.504C112.05 112.268 112.008 111.952 111.935 111.602C111.853 110.998 111.621 110.422 111.258 109.92C110.896 109.418 110.414 109.004 109.851 108.712C109.419 108.491 100.462 105.128 99.0484 104.309C98.6869 104.132 98.3709 103.882 98.123 103.576C97.875 103.27 97.7011 102.916 97.6136 102.539C97.4161 102.021 94.6921 93.491 94.3698 92.6429C94.0969 91.9359 93.639 91.3064 93.0389 90.8136C92.3319 90.0937 92.0824 89.931 91.8641 89.2851C91.6457 88.6391 91.9213 88.4813 92.0304 88.1608C92.1812 87.7171 92.0304 87.4064 92.1136 87.0711C92.2436 86.652 92.5139 86.5435 92.5815 86.3562C92.6151 86.0235 92.6759 85.6937 92.7634 85.37C92.9051 85.0582 93.1595 84.8047 93.4808 84.655V85.6412C93.8707 87.1549 95.6226 87.8995 95.8461 87.791C96.0697 87.6825 96.3972 86.8049 96.8858 86.44C97.3745 86.0751 98.0503 86.1096 97.8008 86.5682C97.6604 86.8344 97.3381 87.8255 97.1717 88.2644C97.0054 88.7032 96.5115 89.6253 96.6207 90.3304C96.7611 91.2722 101.377 100.981 101.377 100.981C101.377 100.981 106.394 102.539 110.376 103.713C112.845 104.442 114.878 104.891 114.878 104.891L116.11 104.684L116.573 104.605L122.572 103.56L122.79 103.52C122.987 103.496 123.186 103.496 123.383 103.52C123.658 103.597 123.913 103.728 124.132 103.905C124.35 104.082 124.527 104.3 124.651 104.546C125.038 105.345 125.115 106.247 124.869 107.095Z" fill="#FFA8A7"/>
<path d="M116.177 120.453C116.177 120.453 123.726 137.937 124.412 139.535C124.845 140.702 125.697 141.688 126.819 142.321C127.827 142.986 140.974 151.571 140.974 151.571C142.986 150.777 143.028 149.535 143.028 149.535C143.028 149.535 136.239 141.325 134.804 140.141C133.369 138.958 130.713 138.356 130.713 138.356L127.37 125.043C126.923 123.002 127.198 120.744 123.996 117.267L116.177 120.453Z" fill="#37474F"/>
<path d="M118.538 119.476C120.097 121.528 121.527 123.332 121.932 125.694C122.785 130.689 120.721 136.783 120.471 140.511C121.221 141.636 121.677 142.914 121.802 144.239C121.875 145.772 120.451 159.889 120.451 159.889C119.57 160.35 118.555 160.523 117.56 160.382C117.56 160.382 114.389 139.984 113.781 133.352C113.173 126.72 113.157 118.485 113.157 118.485L118.538 119.476Z" fill="#37474F"/>
<path d="M112.928 96.8193C112.726 96.2929 112.668 95.7266 112.759 95.1731C112.85 94.6195 113.087 94.0969 113.448 93.6537C114.93 91.7554 117.748 90.9467 120.726 91.928C122.208 92.421 124.017 94.0186 123.97 97.485C123.939 99.6101 117.607 100.754 117.638 102.214L112.928 96.8193Z" fill="#263238"/>
<path d="M112.736 97.6132C112.736 97.6132 111.795 98.8409 111.904 98.9839C112.104 99.1204 112.327 99.2223 112.565 99.2847L112.736 97.6132Z" fill="#F28F8F"/>
<path d="M115.621 93.7129C114.743 94.0975 113.225 94.8124 112.7 97.7956C112.18 100.863 112.7 101.868 113.11 102.292C113.396 102.578 115.008 102.647 115.819 102.445C116.858 102.189 119.146 101.459 120.243 99.8961C121.532 98.0766 121.896 95.5964 120.555 94.561C119.874 94.0366 119.065 93.6838 118.203 93.5355C117.34 93.3872 116.452 93.4483 115.621 93.7129Z" fill="#FFA8A7"/>
<path d="M113.157 118.47L124.017 117.282C124.781 118.47 126.616 120.502 126.226 122.455C125.753 124.816 124.412 126.478 120.31 127.637" fill="#37474F"/>
<path d="M123.887 110.626C123.336 112.563 122.883 113.929 122.535 114.812C122.535 114.851 122.504 114.886 122.488 114.915L124.022 117.282C124.022 117.282 122.982 118.49 119.936 119.333C116.89 120.177 113.178 118.466 113.178 118.466C113.178 118.466 112.393 114.56 112.247 113.466C112.247 113.402 112.247 113.303 112.206 113.19C112.164 113.076 112.138 112.785 112.097 112.558C112.097 112.558 112.097 112.524 112.097 112.504C112.029 112.115 111.956 111.735 111.925 111.602C115.84 109.945 114.919 104.876 114.919 104.876L116.151 104.669L116.614 104.59C118.408 104.289 119.686 104.063 121.293 103.762C121.355 103.747 124.781 107.47 123.887 110.626Z" fill="#FAFAFA"/>
<path d="M122.847 113.914C121.602 114.67 120.289 115.318 118.922 115.852C120.173 115.827 121.398 115.505 122.483 114.915L122.847 113.914Z" fill="#F0F0F0"/>
<path d="M115.361 93.8312C115.361 93.8312 114.483 96.6073 115.294 98.4218C115.294 98.4218 115.871 97.3469 116.853 97.7068C117.836 98.0668 117.69 99.3241 116.853 99.9356C116.644 100.112 116.387 100.229 116.111 100.273C115.835 100.316 115.552 100.285 115.294 100.182C115.337 101.083 115.683 101.947 116.281 102.648C117.31 102.98 118.418 103.03 119.475 102.792C120.533 102.554 121.498 102.037 122.26 101.301C124.771 98.9691 124.667 94.5955 121.178 93.3283C117.69 92.0611 115.361 93.8312 115.361 93.8312Z" fill="#263238"/>
<path d="M121.677 133.199L122.566 126.419C122.566 126.419 125.166 125.482 126.283 124.032C125.781 125.29 124.871 126.364 123.684 127.099C123.507 127.311 122.124 134.264 122.124 134.264L121.677 133.199Z" fill="#263238"/>
<path d="M125.618 96.6171C124.412 97.1102 123.502 96.2029 122.842 94.7533C122.182 93.3036 122.036 91.854 123.237 91.3609C124.438 90.8678 125.888 91.7948 126.543 93.2445C127.198 94.6941 126.819 96.124 125.618 96.6171Z" fill="#263238"/>
<path d="M120.944 77.6878C120.588 77.492 120.282 77.2223 120.05 76.8988C119.686 76.4058 119.167 76.1691 118.855 76.3367C118.626 76.4551 118.896 76.8298 119.068 77.1405C119.321 77.7425 119.671 78.3033 120.107 78.8021C120.591 79.2262 120.939 79.3297 120.939 79.8179C121.205 79.5331 121.344 79.1623 121.329 78.7824C121.324 78.3884 121.19 78.0057 120.944 77.6878Z" fill="#FFA8A7"/>
</svg>
