<svg width="21" height="20" viewBox="0 0 21 20" fill="none" xmlns="http://www.w3.org/2000/svg">
<path d="M5.4987 16.6654V8.33203H15.4987V9.16536C16.082 9.16536 16.6404 9.2487 17.1654 9.40703V8.33203C17.1654 7.41536 16.4154 6.66536 15.4987 6.66536H14.6654V4.9987C14.6654 2.6987 12.7987 0.832031 10.4987 0.832031C8.1987 0.832031 6.33203 2.6987 6.33203 4.9987V6.66536H5.4987C4.58203 6.66536 3.83203 7.41536 3.83203 8.33203V16.6654C3.83203 17.582 4.58203 18.332 5.4987 18.332H10.7154C10.3654 17.832 10.0904 17.2654 9.90703 16.6654H5.4987ZM7.9987 4.9987C7.9987 3.61536 9.11536 2.4987 10.4987 2.4987C11.882 2.4987 12.9987 3.61536 12.9987 4.9987V6.66536H7.9987V4.9987Z" fill="#31AC18"/>
<path d="M15.4987 10.832C13.1987 10.832 11.332 12.6987 11.332 14.9987C11.332 17.2987 13.1987 19.1654 15.4987 19.1654C17.7987 19.1654 19.6654 17.2987 19.6654 14.9987C19.6654 12.6987 17.7987 10.832 15.4987 10.832ZM15.4987 12.4987C16.1904 12.4987 16.7487 13.057 16.7487 13.7487C16.7487 14.4404 16.1904 14.9987 15.4987 14.9987C14.807 14.9987 14.2487 14.4404 14.2487 13.7487C14.2487 13.057 14.807 12.4987 15.4987 12.4987ZM15.4987 17.4987C14.6404 17.4987 13.882 17.0654 13.432 16.3987C14.0404 16.0487 14.7404 15.832 15.4987 15.832C16.257 15.832 16.957 16.0487 17.5654 16.3987C17.1154 17.0654 16.357 17.4987 15.4987 17.4987Z" fill="#31AC18"/>
</svg>
