<svg width="38" height="38" viewBox="0 0 38 38" fill="none" xmlns="http://www.w3.org/2000/svg">
<g filter="url(#filter0_d_5273_2062)">
<rect x="5" y="4" width="28" height="28" rx="14" fill="white"/>
<path d="M21.707 24.364C21.8945 24.1764 21.9998 23.9221 21.9998 23.657C21.9998 23.3918 21.8945 23.1375 21.707 22.95L16.757 18L21.707 13.05C21.8891 12.8613 21.9899 12.6087 21.9877 12.3465C21.9854 12.0844 21.8802 11.8335 21.6948 11.6481C21.5094 11.4627 21.2586 11.3576 20.9964 11.3553C20.7342 11.353 20.4816 11.4538 20.293 11.636L14.636 17.293C14.4485 17.4805 14.3432 17.7348 14.3432 18C14.3432 18.2651 14.4485 18.5194 14.636 18.707L20.293 24.364C20.4805 24.5514 20.7348 24.6567 21 24.6567C21.2652 24.6567 21.5195 24.5514 21.707 24.364Z" fill="#656565"/>
</g>
<defs>
<filter id="filter0_d_5273_2062" x="0" y="0" width="38" height="38" filterUnits="userSpaceOnUse" color-interpolation-filters="sRGB">
<feFlood flood-opacity="0" result="BackgroundImageFix"/>
<feColorMatrix in="SourceAlpha" type="matrix" values="0 0 0 0 0 0 0 0 0 0 0 0 0 0 0 0 0 0 127 0" result="hardAlpha"/>
<feOffset dy="1"/>
<feGaussianBlur stdDeviation="2.5"/>
<feComposite in2="hardAlpha" operator="out"/>
<feColorMatrix type="matrix" values="0 0 0 0 0 0 0 0 0 0 0 0 0 0 0 0 0 0 0.25 0"/>
<feBlend mode="normal" in2="BackgroundImageFix" result="effect1_dropShadow_5273_2062"/>
<feBlend mode="normal" in="SourceGraphic" in2="effect1_dropShadow_5273_2062" result="shape"/>
</filter>
</defs>
</svg>
