<svg width="38" height="38" viewBox="0 0 38 38" fill="none" xmlns="http://www.w3.org/2000/svg">
<g filter="url(#filter0_d_5273_2064)">
<rect x="5" y="4" width="28" height="28" rx="14" fill="white"/>
<path d="M16.293 11.636C16.1055 11.8236 16.0002 12.0779 16.0002 12.343C16.0002 12.6082 16.1055 12.8625 16.293 13.05L21.243 18L16.293 22.95C16.1109 23.1387 16.0101 23.3913 16.0123 23.6535C16.0146 23.9156 16.1198 24.1665 16.3052 24.3519C16.4906 24.5373 16.7414 24.6424 17.0036 24.6447C17.2658 24.647 17.5184 24.5462 17.707 24.364L23.364 18.707C23.5515 18.5195 23.6568 18.2652 23.6568 18C23.6568 17.7349 23.5515 17.4806 23.364 17.293L17.707 11.636C17.5195 11.4486 17.2652 11.3433 17 11.3433C16.7348 11.3433 16.4805 11.4486 16.293 11.636Z" fill="#656565"/>
</g>
<defs>
<filter id="filter0_d_5273_2064" x="0" y="0" width="38" height="38" filterUnits="userSpaceOnUse" color-interpolation-filters="sRGB">
<feFlood flood-opacity="0" result="BackgroundImageFix"/>
<feColorMatrix in="SourceAlpha" type="matrix" values="0 0 0 0 0 0 0 0 0 0 0 0 0 0 0 0 0 0 127 0" result="hardAlpha"/>
<feOffset dy="1"/>
<feGaussianBlur stdDeviation="2.5"/>
<feComposite in2="hardAlpha" operator="out"/>
<feColorMatrix type="matrix" values="0 0 0 0 0 0 0 0 0 0 0 0 0 0 0 0 0 0 0.25 0"/>
<feBlend mode="normal" in2="BackgroundImageFix" result="effect1_dropShadow_5273_2064"/>
<feBlend mode="normal" in="SourceGraphic" in2="effect1_dropShadow_5273_2064" result="shape"/>
</filter>
</defs>
</svg>
