<svg width="230" height="200" viewBox="0 0 230 200" fill="none" xmlns="http://www.w3.org/2000/svg">
<path d="M33.6812 179.004C78.6027 206.999 151.402 206.999 196.313 179.004C241.224 151.01 241.234 105.64 196.313 77.6457C151.391 49.6516 78.5921 49.6579 33.6812 77.6457C-11.2297 105.633 -11.2244 151.017 33.6812 179.004Z" fill="#F5F5F5"/>
<path d="M20.3577 134.378H22.2497C23.1169 130.923 23.6853 127.372 23.9462 123.779C24.3584 117.127 21.6578 106.945 16.7111 103.534C11.7645 100.123 9.08506 104.341 10.7445 107.947C12.404 111.554 18.0007 121.812 18.0746 130.639L20.3577 134.378Z" fill="#31AC18"/>
<path d="M19.9038 134.378H20.4323C20.9486 130.022 20.9486 125.601 20.4323 121.245C19.5761 112.613 17.1979 108.603 14.9888 105.816C14.9405 105.755 14.8738 105.72 14.8034 105.717C14.7331 105.715 14.6648 105.746 14.6136 105.804C14.5625 105.861 14.5326 105.941 14.5306 106.025C14.5286 106.109 14.5547 106.19 14.6031 106.251C16.754 108.956 19.0688 112.865 19.8879 121.314C20.4115 125.646 20.4168 130.044 19.9038 134.378Z" fill="white"/>
<path d="M20.5111 134.378C19.5386 128.905 15.1205 122.398 10.9507 121.276C6.11505 120.015 3.76328 123.06 4.4556 125.69C5.14792 128.319 8.96888 129.542 12.6789 131.604C13.9281 132.294 15.07 133.232 16.0559 134.378H20.5111Z" fill="#31AC18"/>
<path d="M18.7518 134.378H19.3173C17.272 128.243 12.6213 123.867 8.81623 123.464C8.78178 123.46 8.74696 123.464 8.71381 123.476C8.68067 123.488 8.64988 123.507 8.62327 123.534C8.59666 123.56 8.57477 123.593 8.5589 123.63C8.54302 123.666 8.53348 123.706 8.53085 123.748C8.52644 123.789 8.5292 123.831 8.53897 123.871C8.54873 123.911 8.56529 123.948 8.5876 123.98C8.60992 124.012 8.63751 124.038 8.66867 124.056C8.69982 124.075 8.73386 124.086 8.76867 124.088C12.3624 124.473 16.7541 128.584 18.7518 134.378Z" fill="white"/>
<path d="M191.112 76.6936L195.071 79.1715L195.404 76.2144C193.443 69.6194 195.055 62.1417 197.174 59.0271C199.293 55.9124 198.886 53.6237 198.12 52.6023C197.354 51.5809 194.447 50.8054 191.572 54.8154C188.697 58.8253 188.037 63.6928 188.518 68.6043C188.824 71.6749 190.177 74.8273 191.112 76.6936Z" fill="#31AC18"/>
<path opacity="0.2" d="M191.112 76.6936L195.071 79.1715L195.404 76.2144C193.443 69.6194 195.055 62.1417 197.174 59.0271C199.293 55.9124 198.886 53.6237 198.12 52.6023C197.354 51.5809 194.447 50.8054 191.572 54.8154C188.697 58.8253 188.037 63.6928 188.518 68.6043C188.824 71.6749 190.177 74.8273 191.112 76.6936Z" fill="black"/>
<path d="M192.746 77.715L193.528 78.2068C193.52 78.1891 193.511 78.1723 193.501 78.1564C192.381 76.5675 190.933 68.7872 191.541 64.2287C192.291 58.5984 194.712 54.9226 196.783 53.3652C196.809 53.3466 196.831 53.3221 196.848 53.2931C196.865 53.2642 196.877 53.2313 196.884 53.1966C196.89 53.1619 196.891 53.126 196.885 53.0911C196.88 53.0561 196.869 53.0229 196.852 52.9932C196.819 52.933 196.767 52.8907 196.707 52.8754C196.648 52.8601 196.586 52.8729 196.535 52.9113C194.421 54.5316 191.863 58.3335 191.086 64.1467C190.526 68.39 191.646 75.1111 192.746 77.715Z" fill="white"/>
<path d="M195.15 65.4392C196.307 68.825 196.302 70.4832 194.415 70.83C192.714 71.1326 190.647 73.5979 192.566 77.6015L203.791 84.6253C203.819 83.8767 203.974 83.1428 204.247 82.4677C204.519 81.7926 204.903 81.1904 205.376 80.6973C207.221 78.4968 208.922 76.8386 208.658 74.3923C208.394 71.946 206.613 69.5879 206.317 67.4568C206.021 65.3258 206.93 64.1089 208.87 61.7193C210.809 59.3297 212.569 55.6224 209.979 53.9327C207.39 52.2429 204.425 55.1369 203.188 57.0852C201.952 59.0334 200.821 59.8909 198.384 59.7269C195.948 59.563 193.993 62.0535 195.15 65.4392Z" fill="#31AC18"/>
<path d="M198.326 81.208C198.274 70.8174 204.515 58.6488 207.987 56.1899C208.038 56.1509 208.075 56.0899 208.09 56.0196C208.105 55.9492 208.096 55.8748 208.066 55.8116C208.035 55.7509 207.985 55.7072 207.927 55.6896C207.868 55.672 207.807 55.6818 207.755 55.717C204.235 58.239 197.941 70.4139 197.872 80.9369L198.326 81.208Z" fill="white"/>
<path d="M199.997 70.4076C199.949 70.4206 199.899 70.414 199.855 70.3888C199.811 70.3637 199.775 70.3214 199.754 70.2689C198.745 68.0249 197.897 65.6838 197.217 63.2704C197.208 63.2364 197.204 63.2007 197.207 63.1652C197.21 63.1297 197.218 63.0952 197.232 63.0636C197.245 63.032 197.264 63.0039 197.287 62.981C197.31 62.958 197.336 62.9407 197.365 62.9299C197.393 62.9192 197.423 62.9152 197.453 62.9182C197.483 62.9213 197.512 62.9313 197.538 62.9477C197.565 62.9641 197.588 62.9865 197.607 63.0138C197.627 63.041 197.641 63.0725 197.65 63.1065C198.324 65.4864 199.162 67.7956 200.155 70.0104C200.183 70.0749 200.189 70.15 200.171 70.2196C200.154 70.2892 200.114 70.3477 200.06 70.3824L199.997 70.4076Z" fill="white"/>
<path d="M198.495 76.7756C198.452 76.7852 198.407 76.7802 198.366 76.7613C198.325 76.7423 198.289 76.7102 198.263 76.6684C198.228 76.6081 198.214 76.5339 198.225 76.4618C198.236 76.3898 198.271 76.3258 198.321 76.2838C200.597 74.383 203.358 73.4909 206.127 73.7618C206.187 73.771 206.242 73.8084 206.279 73.8658C206.316 73.9231 206.332 73.9957 206.325 74.0676C206.317 74.1395 206.286 74.2048 206.238 74.2492C206.19 74.2935 206.129 74.3133 206.068 74.3041C203.417 74.0633 200.777 74.9109 198.585 76.7062C198.559 76.7363 198.529 76.7599 198.495 76.7756Z" fill="white"/>
<path d="M132.17 13.3035L119.291 4.43237L106.417 13.3035L119.291 22.1746L132.17 13.3035Z" fill="#F5F5F5"/>
<path d="M119.291 39.9231L132.17 31.052V13.3035L119.291 22.1746V39.9231Z" fill="#EBEBEB"/>
<path d="M121.775 34.0342C121.707 34.0357 121.64 34.0161 121.58 33.9775C121.497 33.9058 121.432 33.8103 121.389 33.6999C121.347 33.5896 121.329 33.4681 121.337 33.347V31.4555V31.3168H121.416L122.652 30.453V32.5526C122.651 32.823 122.595 33.0889 122.489 33.3281C122.383 33.5673 122.231 33.7727 122.045 33.927C121.965 33.9914 121.872 34.0285 121.775 34.0342ZM121.537 31.5942V33.3344C121.529 33.4154 121.537 33.4977 121.562 33.5737C121.587 33.6498 121.627 33.7171 121.68 33.7694C121.723 33.7922 121.77 33.8008 121.817 33.7941C121.863 33.7874 121.907 33.7658 121.944 33.7316C122.103 33.5998 122.233 33.4257 122.325 33.2232C122.416 33.0207 122.467 32.7953 122.473 32.5652V32.4138H122.013L121.923 31.6762L121.537 31.5942ZM122.172 32.1743H122.457V30.8817L121.717 31.3924L122.082 31.4744L122.172 32.1743Z" fill="white"/>
<path d="M121.995 35.5348C121.969 35.5348 121.944 35.5222 121.925 35.4997C121.907 35.4773 121.897 35.4468 121.897 35.415V33.8388C121.896 33.8228 121.898 33.8068 121.902 33.7919C121.907 33.7769 121.914 33.7634 121.924 33.752C121.933 33.7407 121.944 33.7319 121.956 33.7263C121.968 33.7206 121.982 33.7181 121.995 33.719C122.021 33.719 122.046 33.7316 122.064 33.7541C122.082 33.7765 122.093 33.807 122.093 33.8388V35.3898C122.095 35.4074 122.094 35.4253 122.09 35.4424C122.086 35.4595 122.08 35.4754 122.07 35.4891C122.061 35.5028 122.05 35.514 122.036 35.5218C122.023 35.5297 122.009 35.5341 121.995 35.5348Z" fill="white"/>
<path d="M121.42 35.932C121.403 35.9319 121.386 35.9259 121.371 35.9148C121.356 35.9036 121.344 35.8878 121.336 35.869C121.329 35.8561 121.324 35.8414 121.322 35.826C121.32 35.8107 121.32 35.7949 121.324 35.7799C121.327 35.7649 121.333 35.751 121.342 35.7392C121.35 35.7273 121.361 35.7178 121.373 35.7113L122.52 34.9169C122.531 34.909 122.544 34.9039 122.557 34.9018C122.57 34.8998 122.583 34.9008 122.596 34.9049C122.609 34.909 122.621 34.9161 122.631 34.9257C122.642 34.9354 122.651 34.9474 122.657 34.9611C122.669 34.989 122.672 35.0212 122.665 35.0516C122.658 35.0819 122.642 35.1081 122.62 35.125L121.468 35.9131L121.42 35.932Z" fill="white"/>
<path d="M125.522 33.2082C125.486 33.2214 125.448 33.2214 125.411 33.2082C125.373 33.1773 125.342 33.1348 125.321 33.085C125.301 33.0352 125.292 32.9798 125.295 32.9245V32.603C125.294 32.5875 125.296 32.5721 125.301 32.5576C125.305 32.5431 125.312 32.5298 125.321 32.5186C125.33 32.5074 125.341 32.4985 125.353 32.4924C125.364 32.4863 125.377 32.4831 125.39 32.4832C125.404 32.4822 125.417 32.4847 125.43 32.4904C125.442 32.4961 125.453 32.5049 125.463 32.5162C125.472 32.5275 125.48 32.5411 125.485 32.5561C125.489 32.571 125.491 32.587 125.491 32.603V32.8678C125.491 32.9182 125.491 32.9434 125.491 32.9434C125.491 32.9434 125.522 32.9434 125.554 32.9434C125.616 32.8768 125.664 32.7948 125.696 32.7032C125.728 32.6117 125.743 32.5129 125.739 32.4138V30.3458C125.739 30.3303 125.742 30.315 125.747 30.3008C125.752 30.2866 125.759 30.2738 125.769 30.2632C125.778 30.2526 125.789 30.2444 125.801 30.239C125.814 30.2337 125.826 30.2314 125.839 30.2323C125.865 30.2323 125.889 30.2442 125.907 30.2655C125.925 30.2868 125.935 30.3157 125.935 30.3458V32.4516C125.938 32.592 125.915 32.7316 125.867 32.8595C125.818 32.9874 125.745 33.1003 125.654 33.1893C125.612 33.2055 125.567 33.2119 125.522 33.2082Z" fill="white"/>
<path d="M124.476 31.3735V31.1718C124.5 30.6466 124.628 30.1358 124.848 29.6802C125.068 29.2247 125.375 28.8372 125.744 28.5489C125.876 28.4165 126.039 28.3356 126.211 28.3174C126.382 28.2992 126.555 28.3444 126.704 28.447C126.853 28.5496 126.973 28.7045 127.046 28.8908C127.119 29.0771 127.142 29.2857 127.113 29.4883V29.5577L124.476 31.3735ZM126.336 28.5741C126.161 28.5806 125.991 28.6439 125.844 28.7569C125.531 29.0039 125.264 29.328 125.064 29.7074C124.863 30.0869 124.733 30.513 124.682 30.9574L126.912 29.4253C126.92 29.2765 126.897 29.1276 126.843 28.9929C126.789 28.8582 126.707 28.7422 126.605 28.6561C126.523 28.6005 126.43 28.5722 126.336 28.5741Z" fill="white"/>
<path d="M129.055 30.7872C129.03 30.7872 129.006 30.7755 128.987 30.7543C128.969 30.7332 128.958 30.7043 128.957 30.6737V26.6511C128.957 26.6193 128.967 26.5889 128.986 26.5664C129.004 26.5439 129.029 26.5313 129.055 26.5313C129.081 26.5313 129.106 26.5439 129.124 26.5664C129.143 26.5889 129.153 26.6193 129.153 26.6511V30.6737C129.152 30.7043 129.141 30.7332 129.123 30.7543C129.104 30.7755 129.08 30.7872 129.055 30.7872Z" fill="white"/>
<path d="M128.788 27.5654H128.751C128.739 27.5592 128.728 27.5502 128.719 27.5389C128.709 27.5276 128.702 27.5143 128.697 27.4996C128.692 27.485 128.69 27.4693 128.69 27.4536C128.69 27.4378 128.693 27.4222 128.698 27.4077L129.052 26.4368L129.443 26.979C129.452 26.9906 129.458 27.004 129.462 27.0185C129.466 27.033 129.468 27.0483 129.467 27.0636C129.466 27.0788 129.462 27.0936 129.456 27.1072C129.451 27.1209 129.443 27.133 129.433 27.1429C129.423 27.1529 129.412 27.1604 129.4 27.1652C129.388 27.1699 129.375 27.1717 129.362 27.1706C129.349 27.1694 129.337 27.1652 129.325 27.1583C129.314 27.1514 129.304 27.1419 129.295 27.1303L129.105 26.8781L128.878 27.5086C128.869 27.5272 128.856 27.5425 128.84 27.5525C128.824 27.5625 128.806 27.567 128.788 27.5654Z" fill="white"/>
<path d="M129.991 30.1693C129.966 30.1677 129.942 30.1543 129.925 30.132C129.908 30.1097 129.898 30.0802 129.898 30.0495V26.0269C129.895 26.0093 129.895 25.9911 129.898 25.9734C129.901 25.9558 129.908 25.9393 129.917 25.9252C129.926 25.911 129.938 25.8996 129.951 25.8918C129.964 25.8839 129.979 25.8798 129.994 25.8798C130.008 25.8798 130.023 25.8839 130.036 25.8918C130.05 25.8996 130.061 25.911 130.071 25.9252C130.08 25.9393 130.086 25.9558 130.089 25.9734C130.093 25.9911 130.093 26.0093 130.089 26.0269V30.0495C130.089 30.0813 130.079 30.1117 130.06 30.1342C130.042 30.1567 130.017 30.1693 129.991 30.1693Z" fill="white"/>
<path d="M129.702 26.9412H129.665C129.653 26.935 129.642 26.926 129.633 26.9147C129.624 26.9034 129.616 26.8901 129.611 26.8754C129.607 26.8608 129.604 26.8451 129.604 26.8294C129.604 26.8136 129.607 26.798 129.612 26.7835L129.967 25.8126L130.358 26.3548C130.375 26.377 130.385 26.4063 130.385 26.4368C130.385 26.4672 130.375 26.4965 130.358 26.5187C130.338 26.54 130.313 26.5518 130.286 26.5518C130.26 26.5518 130.234 26.54 130.215 26.5187L130.03 26.2602L129.803 26.8907C129.792 26.9098 129.777 26.9246 129.759 26.9336C129.741 26.9425 129.721 26.9452 129.702 26.9412Z" fill="white"/>
<path d="M119.291 39.9231L106.411 31.052L106.417 13.3035L119.291 22.1746V39.9231Z" fill="#E0E0E0"/>
<path d="M113.551 18.2214L126.42 9.34398L124.967 8.34149L112.093 17.2189L113.551 18.2214Z" fill="white"/>
<path d="M108.367 23.4797L112.981 26.6322C113.246 26.8407 113.467 27.1204 113.626 27.4487C113.784 27.7771 113.877 28.1452 113.895 28.5237V31.9158C113.895 32.6156 113.483 32.8993 112.981 32.5463L108.367 29.3938C108.101 29.1856 107.88 28.9061 107.721 28.5776C107.563 28.2491 107.471 27.8808 107.453 27.5023V24.1102C107.453 23.4103 107.865 23.1329 108.367 23.4797Z" fill="#31AC18"/>
<path d="M108.013 24.3246L108.183 24.4507V28.2148L108.013 28.095V24.3246Z" fill="#31AC18"/>
<path d="M108.727 24.8163L109.028 25.0307V28.7948L108.727 28.5867V24.8163Z" fill="#31AC18"/>
<path d="M109.44 25.3082L109.611 25.428V29.1983L109.44 29.0785V25.3082Z" fill="#31AC18"/>
<path d="M109.974 25.6738L110.328 25.9197V29.6901L109.974 29.4379V25.6738Z" fill="#31AC18"/>
<path d="M110.862 26.2917L111.037 26.4115V30.1819L110.862 30.0558V26.2917Z" fill="#31AC18"/>
<path d="M111.38 26.6385L111.75 26.9033V30.6674L111.375 30.4026L111.38 26.6385Z" fill="#31AC18"/>
<path d="M112.289 27.2753L112.459 27.3951V31.1592L112.289 31.0394V27.2753Z" fill="#31AC18"/>
<path d="M112.696 27.5464L112.78 27.6094V31.3735L112.696 31.3168V27.5464Z" fill="#31AC18"/>
<path d="M111.967 27.0672L112.046 27.1302V30.8943L111.967 30.8376V27.0672Z" fill="#31AC18"/>
<path d="M110.529 26.0648L110.608 26.1215V29.8919L110.529 29.8288V26.0648Z" fill="#31AC18"/>
<path d="M109.741 25.5225L109.826 25.5856V29.3559L109.741 29.2929V25.5225Z" fill="#31AC18"/>
<path d="M109.176 25.1505L109.261 25.2136V28.9839L109.176 28.9209V25.1505Z" fill="#31AC18"/>
<path d="M108.409 24.5957L108.494 24.6587V28.4291L108.409 28.3661V24.5957Z" fill="#31AC18"/>
<path d="M113.002 27.7608L113.173 27.8806V31.651L113.002 31.5312V27.7608Z" fill="#31AC18"/>
<path d="M115 10.3465L99.9695 0L84.9446 10.3465L99.9695 20.6992L115 10.3465Z" fill="#F5F5F5"/>
<path d="M93.5271 16.2605L108.557 5.91405L107.099 4.91156L92.0737 15.258L93.5271 16.2605Z" fill="white"/>
<path d="M99.9698 53.2266L115 42.8802V10.3465L99.9698 20.6993V53.2266Z" fill="#EBEBEB"/>
<path d="M102.453 47.3693C102.384 47.3707 102.317 47.3488 102.258 47.3062C102.174 47.2359 102.108 47.1405 102.065 47.0299C102.023 46.9192 102.005 46.797 102.015 46.6757V44.7842V44.6455H102.099L103.331 43.7817V45.8813C103.328 46.1515 103.271 46.4171 103.166 46.6561C103.06 46.8951 102.908 47.1007 102.723 47.2558C102.643 47.3224 102.55 47.3617 102.453 47.3693ZM102.215 44.9292V46.6694C102.207 46.7504 102.215 46.8327 102.24 46.9088C102.265 46.9848 102.306 47.0521 102.358 47.1045C102.401 47.1273 102.448 47.1358 102.495 47.1291C102.541 47.1225 102.585 47.1009 102.622 47.0666C102.781 46.9349 102.911 46.7608 103.003 46.5582C103.094 46.3557 103.145 46.1303 103.151 45.9002V45.7489H102.691L102.601 45.0112L102.215 44.9292ZM102.85 45.5093H103.161V44.2168L102.422 44.7338L102.786 44.8095L102.85 45.5093Z" fill="white"/>
<path d="M102.673 48.8446C102.647 48.8446 102.622 48.832 102.603 48.8095C102.585 48.7871 102.575 48.7566 102.575 48.7248V47.1423C102.575 47.1268 102.577 47.1115 102.582 47.0973C102.587 47.0832 102.595 47.0703 102.604 47.0597C102.613 47.0491 102.624 47.0409 102.636 47.0356C102.648 47.0302 102.66 47.0279 102.673 47.0288C102.698 47.0288 102.722 47.0405 102.74 47.0616C102.759 47.0827 102.77 47.1116 102.771 47.1423V48.7248C102.77 48.7561 102.759 48.7857 102.741 48.8078C102.723 48.83 102.698 48.8431 102.673 48.8446Z" fill="white"/>
<path d="M102.105 49.2607C102.088 49.2612 102.071 49.2562 102.056 49.2462C102.041 49.2362 102.029 49.2216 102.02 49.204C102.008 49.1761 102.005 49.1438 102.012 49.1135C102.019 49.0832 102.035 49.057 102.057 49.0401L103.204 48.2519C103.215 48.244 103.228 48.2389 103.241 48.2369C103.254 48.2348 103.268 48.2359 103.28 48.24C103.293 48.2441 103.305 48.2511 103.316 48.2608C103.326 48.2704 103.335 48.2824 103.341 48.2961C103.348 48.3092 103.352 48.3238 103.354 48.339C103.355 48.3542 103.354 48.3696 103.351 48.3843C103.348 48.399 103.342 48.4127 103.334 48.4247C103.326 48.4366 103.316 48.4465 103.304 48.4537L102.152 49.2481C102.138 49.2582 102.121 49.2626 102.105 49.2607Z" fill="white"/>
<path d="M106.2 46.5181C106.162 46.5182 106.124 46.5074 106.089 46.4865C106.051 46.4556 106.02 46.4131 105.999 46.3633C105.979 46.3135 105.97 46.2581 105.973 46.2028V45.875C105.973 45.8595 105.976 45.8442 105.981 45.83C105.986 45.8158 105.993 45.803 106.003 45.7924C106.012 45.7818 106.023 45.7735 106.035 45.7682C106.047 45.7629 106.06 45.7606 106.073 45.7615C106.086 45.7615 106.098 45.7644 106.11 45.7701C106.121 45.7758 106.132 45.7842 106.141 45.7947C106.149 45.8052 106.156 45.8177 106.161 45.8315C106.166 45.8453 106.168 45.8601 106.168 45.875V46.2028C106.168 46.2469 106.168 46.2722 106.168 46.2785C106.168 46.2848 106.2 46.2785 106.232 46.2785C106.294 46.2106 106.342 46.1275 106.374 46.0349C106.406 45.9423 106.421 45.8426 106.417 45.7425V43.643C106.417 43.6112 106.427 43.5807 106.446 43.5583C106.465 43.5358 106.491 43.5232 106.517 43.5232C106.543 43.5247 106.568 43.5378 106.587 43.56C106.605 43.5821 106.616 43.6117 106.618 43.643V45.7425C106.623 45.8837 106.599 46.0243 106.55 46.1526C106.5 46.2808 106.426 46.3932 106.332 46.4802C106.291 46.5047 106.246 46.5176 106.2 46.5181Z" fill="white"/>
<path d="M105.154 44.6833V44.4753C105.179 43.9511 105.307 43.4413 105.527 42.9869C105.747 42.5324 106.054 42.146 106.422 41.8587C106.554 41.7263 106.717 41.6455 106.889 41.6272C107.061 41.609 107.233 41.6543 107.382 41.7568C107.532 41.8594 107.651 42.0143 107.724 42.2006C107.797 42.3869 107.821 42.5955 107.791 42.7981V42.8675L105.154 44.6833ZM107.014 41.8776C106.84 41.8871 106.671 41.9501 106.523 42.0605C106.208 42.3081 105.942 42.6332 105.741 43.0138C105.541 43.3944 105.411 43.8217 105.36 44.2672L107.59 42.7351C107.598 42.5855 107.574 42.4359 107.521 42.3003C107.467 42.1647 107.385 42.0475 107.284 41.9596C107.201 41.9059 107.108 41.8777 107.014 41.8776Z" fill="white"/>
<path d="M109.755 44.097C109.729 44.097 109.704 44.0844 109.686 44.0619C109.667 44.0394 109.657 44.009 109.657 43.9772V39.9546C109.657 39.9229 109.667 39.8924 109.686 39.8699C109.704 39.8475 109.729 39.8348 109.755 39.8348C109.781 39.8348 109.806 39.8475 109.824 39.8699C109.843 39.8924 109.853 39.9229 109.853 39.9546V43.9772C109.853 44.009 109.843 44.0394 109.824 44.0619C109.806 44.0844 109.781 44.097 109.755 44.097Z" fill="white"/>
<path d="M109.466 40.8752H109.429C109.417 40.8696 109.407 40.8613 109.397 40.8506C109.388 40.8399 109.381 40.8271 109.376 40.813C109.371 40.7988 109.369 40.7836 109.369 40.7683C109.369 40.753 109.371 40.7379 109.377 40.7238L109.731 39.7529L110.122 40.2951C110.139 40.3185 110.147 40.3489 110.145 40.3797C110.143 40.4104 110.131 40.439 110.111 40.459C110.092 40.4791 110.066 40.489 110.04 40.4867C110.015 40.4843 109.991 40.4698 109.974 40.4464L109.784 40.1879L109.556 40.8184C109.547 40.837 109.534 40.8523 109.518 40.8623C109.502 40.8723 109.484 40.8768 109.466 40.8752Z" fill="white"/>
<path d="M110.669 43.4728C110.644 43.4728 110.621 43.4608 110.603 43.4395C110.586 43.4182 110.576 43.3894 110.576 43.3593V39.3367C110.575 39.3213 110.577 39.3059 110.582 39.2913C110.586 39.2768 110.593 39.2636 110.601 39.2524C110.61 39.2411 110.621 39.2322 110.632 39.2261C110.644 39.22 110.656 39.2169 110.669 39.2169C110.682 39.216 110.695 39.2185 110.707 39.2242C110.72 39.2299 110.731 39.2387 110.74 39.25C110.749 39.2613 110.757 39.2749 110.761 39.2898C110.766 39.3048 110.768 39.3207 110.767 39.3367V43.3593C110.767 43.3747 110.765 43.39 110.76 43.4042C110.755 43.4184 110.747 43.4312 110.738 43.4418C110.729 43.4525 110.718 43.4607 110.706 43.466C110.694 43.4713 110.682 43.4736 110.669 43.4728Z" fill="white"/>
<path d="M110.386 40.251H110.343C110.32 40.2373 110.301 40.2135 110.291 40.1844C110.282 40.1552 110.281 40.1228 110.291 40.0933L110.645 39.1224L111.041 39.6646C111.057 39.6874 111.066 39.7165 111.066 39.7466C111.066 39.7766 111.057 39.8057 111.041 39.8285C111.032 39.8398 111.021 39.8487 111.008 39.8548C110.996 39.8609 110.983 39.864 110.97 39.864C110.956 39.864 110.943 39.8609 110.931 39.8548C110.919 39.8487 110.908 39.8398 110.898 39.8285L110.713 39.57L110.486 40.2005C110.476 40.2202 110.461 40.2356 110.443 40.2446C110.425 40.2536 110.405 40.2558 110.386 40.251Z" fill="white"/>
<path d="M99.9695 53.2266L84.9446 42.8802V10.3465L99.9695 20.6993V53.2266Z" fill="#E0E0E0"/>
<path d="M87.9991 36.1149L92.6075 39.2674C92.8742 39.4749 93.0962 39.7541 93.256 40.0826C93.4157 40.4111 93.5085 40.7798 93.5271 41.1589V44.5573C93.5271 45.2508 93.1149 45.5345 92.6075 45.1878L87.9991 42.0353C87.7326 41.8282 87.5109 41.5489 87.352 41.2202C87.1931 40.8915 87.1016 40.5227 87.0848 40.1438V36.7517C87.0848 36.0203 87.4971 35.7681 87.9991 36.1149Z" fill="#F5F5F5"/>
<path d="M87.6453 36.9597L87.8157 37.0858V40.8499L87.6453 40.7301V36.9597Z" fill="#E0E0E0"/>
<path d="M88.3584 37.4515L88.6596 37.6659V41.4363L88.3584 41.2219V37.4515Z" fill="#E0E0E0"/>
<path d="M89.0668 37.9433L89.2424 38.0631L89.2372 41.8335L89.0668 41.7137V37.9433Z" fill="#E0E0E0"/>
<path d="M89.6062 38.309L89.955 38.5549V42.3252L89.6062 42.073V38.309Z" fill="#E0E0E0"/>
<path d="M90.4934 38.9269L90.6639 39.0467V42.817L90.4934 42.6909V38.9269Z" fill="#E0E0E0"/>
<path d="M91.0062 39.2737L91.3815 39.5385V43.3026L91.0062 43.0378V39.2737Z" fill="#E0E0E0"/>
<path d="M91.9208 39.9042L92.0912 40.0303V43.7943L91.9208 43.6745V39.9042Z" fill="#E0E0E0"/>
<path d="M92.3274 40.1816L92.4121 40.2446V44.015L92.3274 43.9519V40.1816Z" fill="#E0E0E0"/>
<path d="M91.5984 39.7024L91.6781 39.7654V43.5295L91.5984 43.4728V39.7024Z" fill="#E0E0E0"/>
<path d="M90.1608 38.7L90.2404 38.7567V42.5271L90.1608 42.464V38.7Z" fill="#E0E0E0"/>
<path d="M89.3733 38.1577L89.453 38.2207V41.9911L89.3733 41.928V38.1577Z" fill="#E0E0E0"/>
<path d="M88.8076 37.7857L88.8923 37.8487V41.6191L88.8076 41.5561V37.7857Z" fill="#E0E0E0"/>
<path d="M88.0417 37.2309L88.1264 37.2939V41.0643L88.0417 41.0013V37.2309Z" fill="#E0E0E0"/>
<path d="M92.6342 40.3959L92.8046 40.5157V44.2861L92.6342 44.1663V40.3959Z" fill="#E0E0E0"/>
<path d="M92.0737 19.4572L93.5271 20.4597V16.2605L92.0737 15.2581V19.4572Z" fill="#F0F0F0"/>
<path d="M69.9144 44.3554L59.1808 36.966L44.1559 47.3125L54.8895 54.7082L69.9144 44.3554Z" fill="#F5F5F5"/>
<path d="M54.8894 84.2785L69.9143 73.9321V44.3555L54.8894 54.7082V84.2785Z" fill="#EBEBEB"/>
<path d="M57.3685 78.396C57.3013 78.3977 57.2351 78.3757 57.1782 78.3329C57.0952 78.2621 57.0292 78.1668 56.9865 78.0562C56.9439 77.9456 56.9262 77.8237 56.9351 77.7025V75.811V75.6722H57.0144L58.2511 74.8085V76.908C58.2485 77.1782 58.192 77.4438 58.0863 77.6828C57.9806 77.9218 57.8288 78.1274 57.6433 78.2825C57.5617 78.3485 57.4669 78.3877 57.3685 78.396ZM57.1359 75.956V77.6961C57.1261 77.7772 57.1341 77.8599 57.1591 77.9362C57.1841 78.0124 57.2253 78.0796 57.2786 78.1312C57.3218 78.1515 57.3686 78.1587 57.4148 78.1521C57.4609 78.1455 57.5049 78.1253 57.5429 78.0934C57.7011 77.9616 57.8314 77.7875 57.9231 77.585C58.0149 77.3824 58.0657 77.1571 58.0714 76.9269V76.7756H57.6116L57.5217 76.0379L57.1359 75.956ZM57.7701 76.536H58.0555V75.2372L57.3156 75.7542L57.6803 75.8299L57.7701 76.536Z" fill="white"/>
<path d="M57.5933 79.8966C57.5672 79.8966 57.5423 79.8839 57.5239 79.8615C57.5055 79.839 57.4951 79.8085 57.4951 79.7768V78.1942C57.4951 78.1788 57.4977 78.1635 57.5027 78.1493C57.5077 78.1351 57.515 78.1223 57.5242 78.1117C57.5333 78.101 57.5442 78.0928 57.5561 78.0875C57.568 78.0822 57.5806 78.0799 57.5933 78.0807C57.6179 78.0807 57.6416 78.0927 57.659 78.114C57.6764 78.1353 57.6862 78.1641 57.6862 78.1942V79.7768C57.6863 79.8075 57.6766 79.837 57.6593 79.8593C57.642 79.8816 57.6184 79.895 57.5933 79.8966Z" fill="white"/>
<path d="M57.0196 80.2875C57.0024 80.2887 56.9853 80.2839 56.9703 80.2739C56.9553 80.2638 56.9431 80.2488 56.935 80.2307C56.9274 80.2177 56.9222 80.203 56.9197 80.1874C56.9172 80.1718 56.9174 80.1558 56.9204 80.1404C56.9234 80.1249 56.9291 80.1104 56.937 80.0977C56.945 80.0851 56.9551 80.0745 56.9667 80.0668L58.1188 79.2787C58.1303 79.2708 58.1429 79.2657 58.156 79.2636C58.1691 79.2615 58.1825 79.2626 58.1952 79.2667C58.208 79.2708 58.2199 79.2779 58.2304 79.2875C58.2409 79.2971 58.2497 79.3091 58.2562 79.3228C58.2627 79.336 58.267 79.3506 58.2686 79.3657C58.2703 79.3809 58.2693 79.3963 58.2659 79.411C58.2624 79.4257 58.2565 79.4395 58.2485 79.4514C58.2405 79.4633 58.2305 79.4732 58.2192 79.4804L57.0671 80.2749C57.0528 80.2849 57.0362 80.2893 57.0196 80.2875Z" fill="white"/>
<path d="M61.1203 77.5701C61.0818 77.5702 61.0437 77.5594 61.0094 77.5386C60.9708 77.5076 60.9397 77.4651 60.9193 77.4153C60.8989 77.3655 60.8899 77.3101 60.8931 77.2548V76.927C60.8931 76.8969 60.9031 76.868 60.921 76.8467C60.9388 76.8254 60.963 76.8135 60.9882 76.8135C61.0012 76.8126 61.0141 76.8149 61.0263 76.8202C61.0384 76.8256 61.0495 76.8338 61.0589 76.8444C61.0683 76.855 61.0758 76.8678 61.0809 76.882C61.086 76.8962 61.0887 76.9115 61.0886 76.927V77.2548C61.0886 77.299 61.0886 77.3242 61.0886 77.3305C61.0886 77.3368 61.1203 77.3305 61.1521 77.3305C61.2126 77.2616 61.2604 77.1783 61.2923 77.086C61.3242 76.9937 61.3394 76.8944 61.337 76.7946V74.695C61.3336 74.6774 61.3335 74.6591 61.3368 74.6415C61.3401 74.6239 61.3467 74.6074 61.3561 74.5933C61.3655 74.5791 61.3775 74.5677 61.3911 74.5598C61.4047 74.552 61.4197 74.5479 61.4348 74.5479C61.4499 74.5479 61.4649 74.552 61.4785 74.5598C61.4921 74.5677 61.5041 74.5791 61.5135 74.5933C61.5229 74.6074 61.5295 74.6239 61.5328 74.6415C61.5361 74.6591 61.536 74.6774 61.5326 74.695V76.7946C61.5369 76.935 61.5139 77.0747 61.4653 77.2027C61.4167 77.3307 61.3438 77.4435 61.2525 77.5322C61.2114 77.5567 61.1662 77.5696 61.1203 77.5701Z" fill="white"/>
<path d="M60.0741 75.7416V75.5336C60.0991 75.0094 60.2269 74.4996 60.4472 74.0452C60.6675 73.5907 60.9742 73.2043 61.3425 72.917C61.4737 72.7831 61.6365 72.7011 61.8085 72.6822C61.9805 72.6634 62.1531 72.7085 62.3026 72.8116C62.4522 72.9146 62.5713 73.0704 62.6435 73.2575C62.7157 73.4447 62.7376 73.6539 62.706 73.8564V73.9258L60.0741 75.7416ZM61.9344 72.9359C61.7601 72.9454 61.5908 73.0084 61.4429 73.1188C61.1284 73.3664 60.862 73.6915 60.6614 74.0721C60.4609 74.4527 60.3309 74.88 60.2802 75.3255L62.5104 73.7871C62.5179 73.6384 62.4937 73.49 62.4401 73.3555C62.3865 73.221 62.3052 73.1048 62.2039 73.0179C62.1232 72.963 62.0325 72.9327 61.9397 72.9296L61.9344 72.9359Z" fill="white"/>
<path d="M64.6745 75.1489C64.6485 75.1489 64.6236 75.1363 64.6052 75.1139C64.5868 75.0914 64.5764 75.0609 64.5764 75.0291V71.0066C64.5764 70.9748 64.5868 70.9443 64.6052 70.9219C64.6236 70.8994 64.6485 70.8868 64.6745 70.8868C64.7006 70.8868 64.7255 70.8994 64.7439 70.9219C64.7623 70.9443 64.7727 70.9748 64.7727 71.0066V75.0291C64.7727 75.0609 64.7623 75.0914 64.7439 75.1139C64.7255 75.1363 64.7006 75.1489 64.6745 75.1489Z" fill="white"/>
<path d="M64.3866 71.9586H64.3496C64.3377 71.9531 64.3267 71.9448 64.3176 71.9341C64.3084 71.9234 64.3011 71.9106 64.2961 71.8965C64.2912 71.8823 64.2887 71.8671 64.2888 71.8518C64.2889 71.8365 64.2916 71.8214 64.2968 71.8073L64.6509 70.8364L65.042 71.3786C65.0588 71.402 65.0671 71.4324 65.0651 71.4632C65.0631 71.4939 65.051 71.5225 65.0314 71.5425C65.0217 71.5525 65.0104 71.56 64.9982 71.5648C64.9861 71.5695 64.9732 71.5713 64.9605 71.5702C64.9347 71.5678 64.9108 71.5533 64.894 71.5299L64.7037 71.2714L64.4765 71.9019C64.4675 71.9205 64.4543 71.9358 64.4384 71.9458C64.4225 71.9558 64.4046 71.9603 64.3866 71.9586Z" fill="white"/>
<path d="M65.5894 74.5248C65.5642 74.5248 65.54 74.5131 65.5217 74.4919C65.5035 74.4708 65.4925 74.442 65.4912 74.4113V70.3887C65.4912 70.3569 65.5016 70.3265 65.52 70.304C65.5384 70.2815 65.5633 70.2689 65.5894 70.2689C65.6024 70.268 65.6155 70.2705 65.6278 70.2762C65.64 70.2819 65.6511 70.2907 65.6604 70.302C65.6697 70.3133 65.6769 70.3269 65.6815 70.3418C65.6862 70.3568 65.6882 70.3727 65.6875 70.3887V74.4113C65.6875 74.4267 65.6849 74.442 65.6799 74.4562C65.675 74.4704 65.6676 74.4832 65.6585 74.4938C65.6493 74.5045 65.6384 74.5127 65.6265 74.518C65.6146 74.5233 65.602 74.5256 65.5894 74.5248Z" fill="white"/>
<path d="M65.3004 71.3282C65.2885 71.3335 65.2754 71.3335 65.2635 71.3282C65.2515 71.3226 65.2406 71.3143 65.2314 71.3036C65.2222 71.2929 65.2149 71.2801 65.21 71.266C65.205 71.2518 65.2025 71.2366 65.2026 71.2213C65.2028 71.206 65.2055 71.1909 65.2106 71.1768L65.5647 70.2059L65.9558 70.7481C65.9732 70.7703 65.983 70.7996 65.983 70.8301C65.983 70.8605 65.9732 70.8898 65.9558 70.912C65.9464 70.9233 65.9353 70.9322 65.9231 70.9383C65.9108 70.9444 65.8977 70.9475 65.8844 70.9475C65.8712 70.9475 65.858 70.9444 65.8458 70.9383C65.8335 70.9322 65.8224 70.9233 65.8131 70.912L65.6281 70.6535L65.4009 71.284C65.3893 71.3019 65.3738 71.3156 65.356 71.3234C65.3382 71.3312 65.319 71.3328 65.3004 71.3282Z" fill="white"/>
<path d="M54.8895 84.2785L44.1559 76.8891V47.3125L54.8895 54.7082V84.2785Z" fill="#E0E0E0"/>
<path d="M49.1393 54.9478L50.5926 55.9503V51.7512L49.1393 50.7487V54.9478Z" fill="#F5F5F5"/>
<path d="M50.5926 51.7512L65.6228 41.3984L64.1642 40.3959L49.1393 50.7487L50.5926 51.7512Z" fill="white"/>
<path d="M50.5931 69.4934L31.2769 56.1899L11.9553 69.4934L31.2769 82.8032L50.5931 69.4934Z" fill="#F5F5F5"/>
<path d="M31.2767 100.545L50.593 87.2419V69.4934L31.2767 82.8032V100.545Z" fill="#EBEBEB"/>
<path d="M33.7556 94.6566C33.6887 94.655 33.6233 94.6334 33.5653 94.5935C33.4827 94.5223 33.4169 94.4268 33.3744 94.3164C33.3318 94.2059 33.3138 94.0842 33.3222 93.963V92.0715V91.9328H33.4015L34.6381 91.0627V93.1686C34.6347 93.4377 34.5778 93.7021 34.4722 93.9399C34.3665 94.1777 34.2151 94.3823 34.0304 94.5368C33.9491 94.6045 33.8543 94.6458 33.7556 94.6566ZM33.5177 92.2166V93.9567C33.5083 94.0368 33.5166 94.1185 33.5416 94.1936C33.5666 94.2688 33.6075 94.3349 33.6604 94.3855C33.7037 94.4091 33.7514 94.4186 33.7988 94.413C33.8461 94.4075 33.8914 94.3871 33.93 94.3539C34.0876 94.2215 34.2174 94.0472 34.3091 93.8448C34.4008 93.6424 34.4519 93.4174 34.4585 93.1875V93.0299H33.9828L33.893 92.2922L33.5177 92.2166ZM34.1519 92.7966H34.4585V91.5041L33.7239 92.0211L34.0885 92.0968L34.1519 92.7966Z" fill="white"/>
<path d="M33.9751 96.1571C33.9629 96.1571 33.9508 96.1542 33.9395 96.1485C33.9282 96.1428 33.918 96.1344 33.9093 96.1239C33.9007 96.1133 33.8938 96.1008 33.8892 96.087C33.8845 96.0733 33.8821 96.0585 33.8821 96.0436V94.4611C33.8787 94.4435 33.8787 94.4252 33.8819 94.4076C33.8851 94.39 33.8916 94.3735 33.9008 94.3593C33.9099 94.3452 33.9216 94.3337 33.935 94.3259C33.9483 94.318 33.9629 94.314 33.9777 94.314C33.9924 94.314 34.007 94.318 34.0204 94.3259C34.0337 94.3337 34.0454 94.3452 34.0546 94.3593C34.0637 94.3735 34.0702 94.39 34.0734 94.4076C34.0767 94.4252 34.0766 94.4435 34.0732 94.4611V96.0436C34.0732 96.0591 34.0707 96.0743 34.0657 96.0885C34.0607 96.1027 34.0534 96.1156 34.0442 96.1262C34.035 96.1368 34.0241 96.145 34.0122 96.1503C34.0004 96.1557 33.9877 96.158 33.9751 96.1571Z" fill="white"/>
<path d="M33.4011 96.548C33.38 96.5464 33.3598 96.5369 33.3434 96.5208C33.3271 96.5047 33.3155 96.4828 33.3102 96.4583C33.3049 96.4338 33.3062 96.4079 33.314 96.3844C33.3218 96.3609 33.3357 96.3409 33.3536 96.3273L34.5057 95.5392C34.5162 95.5303 34.5281 95.5241 34.5408 95.5212C34.5534 95.5182 34.5665 95.5185 34.579 95.5221C34.5915 95.5257 34.6033 95.5325 34.6134 95.542C34.6236 95.5514 34.6319 95.5634 34.6378 95.5771C34.6454 95.5901 34.6506 95.6048 34.6531 95.6204C34.6556 95.6359 34.6554 95.652 34.6524 95.6674C34.6494 95.6829 34.6438 95.6974 34.6358 95.7101C34.6278 95.7227 34.6177 95.7333 34.6061 95.741L33.454 96.548H33.4011Z" fill="white"/>
<path d="M37.5023 93.8369C37.4675 93.8461 37.4314 93.8461 37.3966 93.8369C37.3562 93.8062 37.3236 93.763 37.3022 93.7119C37.2808 93.6609 37.2714 93.6038 37.2751 93.5468V93.2253C37.2751 93.1935 37.2856 93.163 37.3045 93.1406C37.3233 93.1181 37.3488 93.1055 37.3755 93.1055C37.4021 93.1055 37.4276 93.1181 37.4465 93.1406C37.4653 93.163 37.4759 93.1935 37.4759 93.2253V93.5468C37.4686 93.5735 37.4686 93.6022 37.4759 93.6288C37.4759 93.6288 37.5076 93.6288 37.5446 93.6288C37.6042 93.5594 37.651 93.4758 37.682 93.3835C37.7129 93.2912 37.7273 93.1922 37.7243 93.0929V90.9933C37.7256 90.9621 37.7366 90.9325 37.7551 90.9103C37.7737 90.8882 37.7985 90.8751 37.8247 90.8735C37.8513 90.8735 37.8769 90.8862 37.8957 90.9086C37.9145 90.9311 37.9251 90.9616 37.9251 90.9933V93.0929C37.9295 93.2333 37.9064 93.373 37.8578 93.5011C37.8092 93.6291 37.7364 93.7419 37.645 93.8306C37.5985 93.846 37.5496 93.8482 37.5023 93.8369Z" fill="white"/>
<path d="M36.4614 92.0021V91.7941C36.4844 91.2694 36.6113 90.7586 36.8318 90.3038C37.0523 89.8489 37.36 89.4629 37.7298 89.1775C37.8611 89.0436 38.0239 88.9616 38.1958 88.9427C38.3678 88.9238 38.5404 88.969 38.69 89.0721C38.8395 89.1751 38.9586 89.3309 39.0308 89.518C39.1031 89.7052 39.1249 89.9144 39.0933 90.1169V90.1863L36.4614 92.0021ZM38.3217 89.1964C38.1459 89.2071 37.9752 89.2699 37.8249 89.3793C37.5114 89.6276 37.246 89.9529 37.0464 90.3335C36.8468 90.714 36.7176 91.1411 36.6675 91.586L38.8925 90.0476C38.901 89.8994 38.8778 89.7511 38.8251 89.6166C38.7724 89.482 38.692 89.3656 38.5912 89.2784C38.5091 89.2228 38.4161 89.1945 38.3217 89.1964Z" fill="white"/>
<path d="M41.0621 91.4158C41.0491 91.4167 41.036 91.4142 41.0237 91.4085C41.0115 91.4029 41.0004 91.3941 40.9911 91.3827C40.9818 91.3714 40.9746 91.3579 40.9699 91.3429C40.9653 91.328 40.9633 91.312 40.964 91.296V87.2734C40.9606 87.2559 40.9606 87.2376 40.9638 87.22C40.967 87.2023 40.9735 87.1858 40.9827 87.1717C40.9919 87.1576 41.0035 87.1461 41.0169 87.1383C41.0302 87.1304 41.0448 87.1263 41.0596 87.1263C41.0744 87.1263 41.089 87.1304 41.1023 87.1383C41.1156 87.1461 41.1273 87.1576 41.1365 87.1717C41.1457 87.1858 41.1521 87.2023 41.1553 87.22C41.1586 87.2376 41.1585 87.2559 41.1551 87.2734V91.296C41.1558 91.3114 41.1539 91.3269 41.1496 91.3414C41.1452 91.3559 41.1385 91.3691 41.1298 91.3804C41.1211 91.3916 41.1106 91.4005 41.099 91.4066C41.0873 91.4127 41.0748 91.4158 41.0621 91.4158Z" fill="white"/>
<path d="M40.8001 88.1939H40.7579C40.7457 88.1878 40.7347 88.1788 40.7256 88.1674C40.7165 88.156 40.7094 88.1424 40.705 88.1276C40.7005 88.1128 40.6987 88.097 40.6996 88.0813C40.7005 88.0655 40.7041 88.0502 40.7103 88.0363L41.0591 87.0653L41.4555 87.6075C41.473 87.6318 41.4817 87.6633 41.4797 87.6953C41.4777 87.7272 41.4652 87.7569 41.4449 87.7778C41.4246 87.7987 41.3981 87.8091 41.3714 87.8067C41.3446 87.8044 41.3197 87.7894 41.3022 87.7652L41.1172 87.5067L40.89 88.1372C40.8806 88.1553 40.8673 88.1701 40.8515 88.1801C40.8357 88.1901 40.818 88.1948 40.8001 88.1939Z" fill="white"/>
<path d="M41.9764 90.7916C41.9504 90.7916 41.9254 90.779 41.907 90.7565C41.8886 90.734 41.8783 90.7036 41.8783 90.6718V86.6492C41.8783 86.6174 41.8886 86.587 41.907 86.5645C41.9254 86.542 41.9504 86.5294 41.9764 86.5294C42.0025 86.5294 42.0274 86.542 42.0458 86.5645C42.0642 86.587 42.0746 86.6174 42.0746 86.6492V90.6718C42.0746 90.7036 42.0642 90.734 42.0458 90.7565C42.0274 90.779 42.0025 90.7916 41.9764 90.7916Z" fill="white"/>
<path d="M41.6878 87.5697H41.6508C41.6388 87.5642 41.6279 87.5559 41.6187 87.5452C41.6095 87.5345 41.6022 87.5217 41.5973 87.5076C41.5923 87.4934 41.5899 87.4782 41.59 87.4629C41.5901 87.4476 41.5928 87.4325 41.5979 87.4184L41.952 86.4412L42.3431 86.9834C42.3525 86.9945 42.36 87.0078 42.3651 87.0224C42.3702 87.037 42.3729 87.0527 42.3729 87.0685C42.3729 87.0843 42.3702 87.1 42.3651 87.1146C42.36 87.1292 42.3525 87.1425 42.3431 87.1536C42.3342 87.1647 42.3236 87.1735 42.3118 87.1795C42.2999 87.1855 42.2872 87.1886 42.2744 87.1886C42.2616 87.1886 42.2489 87.1855 42.237 87.1795C42.2252 87.1735 42.2146 87.1647 42.2057 87.1536L42.0154 86.8951L41.7882 87.5256C41.7771 87.5441 41.7616 87.5583 41.7437 87.5661C41.7258 87.574 41.7063 87.5753 41.6878 87.5697Z" fill="white"/>
<path d="M31.2769 100.545L11.9553 87.2419V69.4934L31.2769 82.8032V100.545Z" fill="#E0E0E0"/>
<path d="M20.8868 79.8461L22.3402 80.8486V76.6495L20.8868 75.647V79.8461Z" fill="#F5F5F5"/>
<path d="M22.3402 76.6496L41.6617 63.3461L40.2084 62.3373L20.8868 75.6471L22.3402 76.6496Z" fill="white"/>
<path d="M15.0149 80.4767L19.6233 83.6291C19.8899 83.8366 20.112 84.1159 20.2717 84.4444C20.4314 84.7729 20.5243 85.1415 20.5429 85.5206V88.919C20.5429 89.6126 20.1306 89.8963 19.6233 89.5495L15.0149 86.397C14.7484 86.19 14.5266 85.9107 14.3677 85.582C14.2089 85.2533 14.1173 84.8845 14.1006 84.5055V81.1135C14.1006 80.4073 14.5128 80.1551 15.0149 80.4767Z" fill="#F5F5F5"/>
<path d="M14.6609 81.3215L14.8313 81.4413V85.2117L14.6609 85.0919V81.3215Z" fill="#E0E0E0"/>
<path d="M15.369 81.8133L15.6755 82.0277V85.7917L15.369 85.5837V81.8133Z" fill="#E0E0E0"/>
<path d="M16.0828 82.3051L16.2584 82.4249L16.2532 86.1953L16.0828 86.0755V82.3051Z" fill="#E0E0E0"/>
<path d="M16.6216 82.6708L16.9757 82.9167L16.9704 86.687L16.6216 86.4348V82.6708Z" fill="#E0E0E0"/>
<path d="M17.5099 83.2887L17.6803 83.4085V87.1789L17.5099 87.0528V83.2887Z" fill="#E0E0E0"/>
<path d="M18.0225 83.6354L18.3977 83.9002V87.6643L18.0225 87.3995V83.6354Z" fill="#E0E0E0"/>
<path d="M18.9363 84.2723L19.1067 84.3921V88.1561L18.9363 88.0363V84.2723Z" fill="#E0E0E0"/>
<path d="M19.3436 84.5433L19.4283 84.6064V88.3704L19.3436 88.3137V84.5433Z" fill="#E0E0E0"/>
<path d="M18.6141 84.0642L18.6938 84.121V87.8913L18.6141 87.8346V84.0642Z" fill="#E0E0E0"/>
<path d="M17.177 83.0617L17.2567 83.1184V86.8888L17.177 86.8258V83.0617Z" fill="#E0E0E0"/>
<path d="M16.3889 82.5194L16.4736 82.5825V86.3465L16.3889 86.2898V82.5194Z" fill="#E0E0E0"/>
<path d="M15.8239 82.1475L15.9085 82.2106V85.9809L15.8239 85.9179V82.1475Z" fill="#E0E0E0"/>
<path d="M15.0574 81.5927L15.142 81.6557V85.4198L15.0574 85.363V81.5927Z" fill="#E0E0E0"/>
<path d="M19.6503 84.7577L19.8207 84.8838V88.6479L19.6503 88.5281V84.7577Z" fill="#E0E0E0"/>
<path d="M46.3019 34.009L31.277 23.6562L16.2468 34.009L31.277 44.3555L46.3019 34.009Z" fill="#F5F5F5"/>
<path d="M31.2767 79.8461L46.3017 69.4934V34.009L31.2767 44.3554V79.8461Z" fill="#EBEBEB"/>
<path d="M33.7556 73.9573C33.6891 73.958 33.6237 73.9385 33.5653 73.9006C33.4827 73.8293 33.4169 73.7339 33.3744 73.6234C33.3318 73.513 33.3138 73.3912 33.3222 73.2701V71.3786V71.2399H33.4015L34.6381 70.3761V72.4757C34.6351 72.7458 34.5785 73.0112 34.4728 73.2501C34.3672 73.489 34.2155 73.6947 34.0304 73.8501C33.9482 73.9139 33.8535 73.9509 33.7556 73.9573ZM33.5177 71.5173V73.2638C33.5094 73.3438 33.5181 73.425 33.543 73.5C33.5679 73.5749 33.6083 73.6411 33.6604 73.6925C33.7037 73.7161 33.7514 73.7256 33.7988 73.7201C33.8461 73.7145 33.8914 73.6941 33.93 73.661C34.0878 73.5272 34.2175 73.3518 34.3092 73.1484C34.4009 72.945 34.4519 72.7191 34.4585 72.4883V72.3369H33.9828L33.893 71.5993L33.5177 71.5173ZM34.1519 72.0974H34.4585V70.8048L33.7239 71.3218L34.0885 71.3975L34.1519 72.0974Z" fill="white"/>
<path d="M33.9754 75.4579C33.9628 75.458 33.9503 75.4548 33.9386 75.4487C33.927 75.4426 33.9165 75.4337 33.9078 75.4225C33.8991 75.4113 33.8924 75.398 33.888 75.3835C33.8836 75.369 33.8818 75.3536 33.8825 75.3381V73.7619C33.8818 73.7465 33.8836 73.731 33.888 73.7165C33.8924 73.702 33.8991 73.6888 33.9078 73.6775C33.9165 73.6663 33.927 73.6574 33.9386 73.6513C33.9503 73.6452 33.9628 73.6421 33.9754 73.6421C33.9885 73.6412 34.0016 73.6436 34.0139 73.6493C34.0261 73.655 34.0372 73.6638 34.0465 73.6751C34.0558 73.6865 34.063 73.7 34.0676 73.715C34.0723 73.7299 34.0743 73.7459 34.0736 73.7619V75.3381C34.0743 75.3541 34.0723 75.3701 34.0676 75.385C34.063 75.4 34.0558 75.4136 34.0465 75.4249C34.0372 75.4362 34.0261 75.445 34.0139 75.4507C34.0016 75.4564 33.9885 75.4588 33.9754 75.4579Z" fill="white"/>
<path d="M33.4011 75.8551C33.38 75.8535 33.3598 75.844 33.3434 75.8279C33.3271 75.8117 33.3155 75.7899 33.3102 75.7654C33.3049 75.7409 33.3062 75.715 33.314 75.6915C33.3218 75.668 33.3357 75.648 33.3536 75.6344L34.5057 74.84C34.5288 74.8241 34.5563 74.8198 34.582 74.8281C34.6078 74.8364 34.6298 74.8565 34.6431 74.8841C34.6564 74.9117 34.66 74.9445 34.653 74.9752C34.6461 75.006 34.6292 75.0322 34.6061 75.048L33.454 75.8362C33.4385 75.8489 33.42 75.8555 33.4011 75.8551Z" fill="white"/>
<path d="M37.5024 73.1377C37.4648 73.1378 37.428 73.1246 37.3967 73.0998C37.3563 73.0707 37.3236 73.0287 37.3021 72.9786C37.2806 72.9285 37.2713 72.8722 37.2751 72.8161V72.4946C37.2751 72.4628 37.2857 72.4323 37.3046 72.4099C37.3234 72.3874 37.3489 72.3748 37.3756 72.3748C37.4022 72.3748 37.4277 72.3874 37.4466 72.4099C37.4654 72.4323 37.476 72.4628 37.476 72.4946V72.8161C37.4687 72.8427 37.4687 72.8714 37.476 72.8981C37.4984 72.9056 37.5222 72.9056 37.5447 72.8981C37.605 72.8306 37.6523 72.7483 37.6833 72.6568C37.7144 72.5654 37.7284 72.467 37.7244 72.3685V70.2689C37.7244 70.2371 37.7349 70.2067 37.7538 70.1842C37.7726 70.1617 37.7981 70.1491 37.8248 70.1491C37.8382 70.1482 37.8516 70.1507 37.8641 70.1564C37.8766 70.1621 37.888 70.1708 37.8975 70.1822C37.907 70.1935 37.9143 70.207 37.9191 70.222C37.9239 70.2369 37.9259 70.2529 37.9252 70.2689V72.3685C37.9295 72.5089 37.9065 72.6486 37.8579 72.7766C37.8093 72.9046 37.7364 73.0174 37.6451 73.1061C37.6003 73.1301 37.5514 73.1409 37.5024 73.1377Z" fill="white"/>
<path d="M36.4614 71.3281V71.1264C36.4852 70.601 36.6125 70.0898 36.8329 69.6341C37.0532 69.1784 37.3605 68.7911 37.7298 68.5035C37.8622 68.3727 38.0251 68.2935 38.1965 68.2766C38.3678 68.2597 38.5394 68.3059 38.688 68.409C38.8367 68.5121 38.9552 68.6671 39.0277 68.8532C39.1002 69.0392 39.1231 69.2472 39.0933 69.4493V69.5123L36.4614 71.3281ZM38.3217 68.5287C38.1459 68.5394 37.9752 68.6022 37.8249 68.7116C37.512 68.9592 37.247 69.2835 37.0474 69.663C36.8478 70.0424 36.7183 70.4682 36.6675 70.912L38.8925 69.3799C38.902 69.2316 38.8793 69.0829 38.8265 68.9481C38.7738 68.8133 38.6927 68.6971 38.5912 68.6107C38.5118 68.5441 38.4186 68.5048 38.3217 68.4972V68.5287Z" fill="white"/>
<path d="M41.0621 70.6977C41.0361 70.6977 41.0112 70.685 40.9928 70.6626C40.9743 70.6401 40.964 70.6096 40.964 70.5779V66.5553C40.9606 66.5377 40.9606 66.5194 40.9638 66.5018C40.967 66.4842 40.9735 66.4677 40.9827 66.4536C40.9919 66.4394 41.0035 66.428 41.0169 66.4201C41.0302 66.4123 41.0448 66.4082 41.0596 66.4082C41.0744 66.4082 41.089 66.4123 41.1023 66.4201C41.1156 66.428 41.1273 66.4394 41.1365 66.4536C41.1457 66.4677 41.1521 66.4842 41.1553 66.5018C41.1586 66.5194 41.1585 66.5377 41.1551 66.5553V70.5779C41.1552 70.6086 41.1455 70.6381 41.1282 70.6604C41.1109 70.6827 41.0873 70.696 41.0621 70.6977Z" fill="white"/>
<path d="M40.8001 67.4885H40.7579C40.7457 67.4824 40.7347 67.4734 40.7256 67.4619C40.7165 67.4505 40.7094 67.437 40.705 67.4221C40.7005 67.4073 40.6987 67.3915 40.6996 67.3758C40.7005 67.3601 40.7041 67.3448 40.7103 67.3308L41.0591 66.3599L41.4555 66.9021C41.4729 66.9243 41.4826 66.9536 41.4826 66.9841C41.4826 67.0145 41.4729 67.0438 41.4555 67.066C41.436 67.0873 41.4105 67.0991 41.3841 67.0991C41.3577 67.0991 41.3323 67.0873 41.3128 67.066L41.1278 66.8075L40.9006 67.438C40.8902 67.4577 40.875 67.4731 40.857 67.4821C40.839 67.4911 40.8192 67.4933 40.8001 67.4885Z" fill="white"/>
<path d="M41.9764 70.0672C41.9508 70.0656 41.9266 70.0525 41.9084 70.0304C41.8903 70.0082 41.8795 69.9786 41.8783 69.9474V65.9248C41.8783 65.893 41.8886 65.8625 41.907 65.8401C41.9254 65.8176 41.9504 65.805 41.9764 65.805C42.0025 65.805 42.0274 65.8176 42.0458 65.8401C42.0642 65.8625 42.0746 65.893 42.0746 65.9248V69.9474C42.0733 69.9786 42.0626 70.0082 42.0444 70.0304C42.0263 70.0525 42.0021 70.0656 41.9764 70.0672Z" fill="white"/>
<path d="M41.6878 66.8705H41.6508C41.6386 66.8643 41.6276 66.8553 41.6183 66.844C41.6091 66.8327 41.6018 66.8194 41.5969 66.8048C41.592 66.7901 41.5896 66.7745 41.5897 66.7587C41.5899 66.7429 41.5927 66.7273 41.5979 66.7128L41.952 65.7419L42.3431 66.2841C42.3525 66.2952 42.36 66.3085 42.3651 66.3231C42.3702 66.3377 42.3728 66.3534 42.3728 66.3692C42.3728 66.3851 42.3702 66.4007 42.3651 66.4153C42.36 66.4299 42.3525 66.4432 42.3431 66.4543C42.3239 66.4739 42.2996 66.4846 42.2744 66.4846C42.2492 66.4846 42.2248 66.4739 42.2057 66.4543L42.0154 66.1958L41.7882 66.8263C41.7766 66.8442 41.7611 66.8579 41.7433 66.8657C41.7255 66.8735 41.7063 66.8752 41.6878 66.8705Z" fill="white"/>
<path d="M31.277 79.8461L16.2468 69.4934V34.009L31.277 44.3554V79.8461Z" fill="#E0E0E0"/>
<path d="M23.3759 43.1134L24.8345 44.1158V39.923L23.3759 38.9142V43.1134Z" fill="#F5F5F5"/>
<path d="M24.8345 39.9231L39.8594 29.5703L38.4061 28.5678L23.3759 38.9143L24.8345 39.9231Z" fill="white"/>
<path d="M19.3067 62.7281L23.9151 65.8806C24.1819 66.0873 24.4038 66.3665 24.5628 66.6953C24.7217 67.0241 24.813 67.3931 24.8294 67.7721V71.1642C24.8294 71.8577 24.4224 72.1415 23.9151 71.7947L19.3067 68.6422C19.0392 68.4358 18.8164 68.1569 18.6566 67.8281C18.4968 67.4994 18.4044 67.1302 18.3871 66.7507V63.3586C18.3924 62.6651 18.7993 62.3814 19.3067 62.7281Z" fill="#F5F5F5"/>
<path d="M18.9474 63.5793L19.1178 63.6991V67.4695L18.9474 67.3434V63.5793Z" fill="#E0E0E0"/>
<path d="M19.6609 64.0711L19.9621 64.2792V68.0495L19.6609 67.8352V64.0711Z" fill="#E0E0E0"/>
<path d="M20.3741 64.5566L20.5446 64.6827V68.4467L20.3741 68.327V64.5566Z" fill="#E0E0E0"/>
<path d="M20.9133 64.9223L21.2621 65.1745V68.9386L20.9133 68.6927V64.9223Z" fill="#E0E0E0"/>
<path d="M21.8004 65.5402L21.9709 65.6599V69.4303L21.8004 69.3105V65.5402Z" fill="#E0E0E0"/>
<path d="M22.314 65.887L22.6892 66.1518V69.9222L22.314 69.6573V65.887Z" fill="#E0E0E0"/>
<path d="M23.2277 66.5237L23.3981 66.6435V70.4139L23.2277 70.2878V66.5237Z" fill="#E0E0E0"/>
<path d="M23.635 66.8011L23.7147 66.8579V70.6283L23.635 70.5652V66.8011Z" fill="#E0E0E0"/>
<path d="M22.9004 66.3157L22.9851 66.3787V70.1491L22.9004 70.086V66.3157Z" fill="#E0E0E0"/>
<path d="M21.4623 65.3132L21.5469 65.3762V69.1403L21.4623 69.0835V65.3132Z" fill="#E0E0E0"/>
<path d="M20.6752 64.7773L20.7598 64.834V68.6044L20.6752 68.5414V64.7773Z" fill="#E0E0E0"/>
<path d="M20.1147 64.4053L20.1944 64.462V68.2324L20.1147 68.1693V64.4053Z" fill="#E0E0E0"/>
<path d="M19.3484 63.8505L19.4281 63.9072V67.6776L19.3484 67.6145V63.8505Z" fill="#E0E0E0"/>
<path d="M23.9363 67.0156L24.1119 67.1354V70.8994L23.9363 70.7796V67.0156Z" fill="#E0E0E0"/>
<path d="M16.3891 131.698L74.0683 171.42C74.7774 171.849 75.5614 172.073 76.3566 172.073C77.1518 172.073 77.9358 171.849 78.645 171.42L205.022 84.411C206.285 83.5409 206.285 82.1286 205.022 81.2585L147.343 41.5371C146.635 41.1049 145.85 40.8796 145.055 40.8796C144.259 40.8796 143.475 41.1049 142.766 41.5371L16.3891 128.546C15.126 129.416 15.126 130.828 16.3891 131.698Z" fill="#455A64"/>
<path d="M47.5643 150.14C48.5477 150.732 49.6338 151.041 50.7352 151.041C51.8367 151.041 52.9228 150.732 53.9061 150.14C55.666 148.93 55.666 146.988 53.9061 145.758C52.9235 145.164 51.8371 144.854 50.7352 144.854C49.6333 144.854 48.5469 145.164 47.5643 145.758C45.8044 146.988 45.8044 148.942 47.5643 150.14Z" fill="#263238"/>
<path d="M75.1519 171.42L17.4727 131.698C16.3417 130.916 16.2254 129.706 17.1186 128.836C16.5545 129.368 16.0907 130.036 15.7574 130.797C15.4241 131.557 15.2289 132.393 15.1843 133.249V135.815C15.2277 136.763 15.4575 137.684 15.8551 138.506C16.2526 139.327 16.8068 140.026 17.4727 140.544L75.1519 180.265C75.8571 180.705 76.6449 180.922 77.4402 180.896V172.075C76.643 172.094 75.8552 171.868 75.1519 171.42Z" fill="#37474F"/>
<path d="M205.017 93.2506C205.685 92.7336 206.24 92.0358 206.639 91.214C207.037 90.3923 207.268 89.4699 207.311 88.5218V85.9557C207.268 85.0981 207.073 84.2612 206.738 83.5004C206.404 82.7395 205.938 82.0721 205.371 81.5422C206.27 82.4123 206.153 83.6229 205.022 84.3984L78.645 171.42C77.9393 171.858 77.1519 172.074 76.3567 172.05V180.921C77.1519 180.946 77.9393 180.729 78.645 180.291L205.017 93.2506Z" fill="#263238"/>
<path d="M83.5708 163.192L28.365 125.147C27.6039 124.624 27.6039 123.773 28.365 123.256L135.077 49.7336C135.503 49.4756 135.974 49.3411 136.451 49.3411C136.929 49.3411 137.4 49.4756 137.825 49.7336L193.052 87.7715C193.808 88.2948 193.808 89.1397 193.052 89.663L86.2978 163.192C85.8748 163.446 85.4078 163.578 84.9343 163.578C84.4608 163.578 83.9938 163.446 83.5708 163.192Z" fill="white"/>
<path d="M61.3267 141.95L67.769 137.511L65.6233 136.036L59.181 140.469L61.3267 141.95Z" fill="#31AC18"/>
<path d="M138.613 88.7173L145.055 84.2786L142.904 82.8032L136.467 87.2419L138.613 88.7173Z" fill="#31AC18"/>
<path d="M151.492 79.8462L157.934 75.4075L155.788 73.9321L149.346 78.3645L151.492 79.8462Z" fill="#31AC18"/>
<path d="M172.166 64.3044C172.417 64.4537 172.693 64.5314 172.972 64.5314C173.252 64.5314 173.528 64.4537 173.778 64.3044C173.875 64.2649 173.959 64.1901 174.019 64.0906C174.079 63.9911 174.111 63.8719 174.111 63.7496C174.111 63.6273 174.079 63.508 174.019 63.4085C173.959 63.3091 173.875 63.2343 173.778 63.1947C173.529 63.0426 173.253 62.9632 172.972 62.9632C172.692 62.9632 172.416 63.0426 172.166 63.1947C172.069 63.2343 171.985 63.3091 171.926 63.4085C171.866 63.508 171.834 63.6273 171.834 63.7496C171.834 63.8719 171.866 63.9911 171.926 64.0906C171.985 64.1901 172.069 64.2649 172.166 64.3044Z" fill="#263238"/>
<path d="M174.74 73.0116C175.238 73.313 175.79 73.47 176.349 73.47C176.908 73.47 177.459 73.313 177.958 73.0116C178.846 72.3811 178.846 71.4038 177.958 70.7923C177.459 70.4909 176.908 70.3339 176.349 70.3339C175.79 70.3339 175.238 70.4909 174.74 70.7923C173.852 71.4038 173.852 72.4 174.74 73.0116Z" fill="#263238"/>
<path d="M172.467 69.1529C173.059 68.7431 173.028 68.0622 172.399 67.6271L161.829 60.3323C161.489 60.1147 161.11 59.9967 160.724 59.9879C160.338 59.9791 159.956 60.0799 159.609 60.2818C159.017 60.6916 159.049 61.3726 159.678 61.8076L170.279 69.1025C170.616 69.3134 170.989 69.4278 171.368 69.4365C171.748 69.4453 172.125 69.3482 172.467 69.1529Z" fill="#263238"/>
<path d="M154.425 39.57L154.784 39.3178C154.536 40.3938 154.415 41.5058 154.425 42.6216V44.1601C154.425 49.6832 159.98 63.7937 162.025 68.7873C162.236 69.3106 159.43 72.8729 159.43 72.8729L162.765 70.5779C162.765 70.5779 171.099 62.3814 171.099 55.6477V54.1093C171.099 47.3441 167.368 39.2926 162.765 36.1212C160.439 34.5261 158.341 34.4693 156.83 35.6799L153.659 37.8488L154.425 39.57ZM158.595 44.7338C158.595 41.5813 160.46 40.2762 162.765 41.865C162.574 43.9016 165.692 50.2443 166.929 50.4776C166.929 53.6301 165.064 54.9352 162.765 53.3464C161.555 52.4006 160.548 51.128 159.828 49.6316C159.107 48.1352 158.692 46.4573 158.616 44.7338H158.595Z" fill="#31AC18"/>
<path d="M150.995 46.6253C151.09 53.3842 159.694 72.8729 159.694 72.8729C159.694 72.8729 167.917 64.5377 167.827 57.7787V56.2403C167.732 49.4814 163.89 41.4993 159.239 38.4225C154.589 35.3457 150.9 38.3216 150.995 45.0868V46.6253ZM155.17 47.117C155.128 43.9646 156.978 42.6216 159.298 44.16C160.524 45.0798 161.551 46.3316 162.296 47.8138C163.041 49.296 163.482 50.9668 163.584 52.6906C163.631 55.8431 161.782 57.1861 159.456 55.6477C158.231 54.726 157.205 53.4738 156.461 51.992C155.716 50.5101 155.274 48.8402 155.17 47.117Z" fill="#31AC18"/>
<path opacity="0.1" d="M150.995 46.6253C151.09 53.3842 159.694 72.8729 159.694 72.8729C159.694 72.8729 167.917 64.5377 167.827 57.7787V56.2403C167.732 49.4814 163.89 41.4993 159.239 38.4225C154.589 35.3457 150.9 38.3216 150.995 45.0868V46.6253ZM155.17 47.117C155.128 43.9646 156.978 42.6216 159.298 44.16C160.524 45.0798 161.551 46.3316 162.296 47.8138C163.041 49.296 163.482 50.9668 163.584 52.6906C163.631 55.8431 161.782 57.1861 159.456 55.6477C158.231 54.726 157.205 53.4738 156.461 51.992C155.716 50.5101 155.274 48.8402 155.17 47.117Z" fill="black"/>
<path d="M70.3956 136.767C75.7387 140.437 88.2638 137.77 98.3738 130.803L126.146 111.68C136.256 104.713 140.114 96.1004 134.76 92.4372C129.407 88.774 116.871 91.4536 106.75 98.4143L79.0311 117.512C68.9264 124.473 65.0579 133.117 70.3956 136.767Z" fill="#F0F0F0"/>
<path d="M74.2111 133.079L80.6481 128.64L78.5024 127.165L72.0654 131.597L74.2111 133.079Z" fill="#31AC18"/>
<path d="M87.0896 124.208L93.5319 119.769L91.381 118.294L84.944 122.726L87.0896 124.208Z" fill="#31AC18"/>
<path d="M84.4421 122.398C84.4421 126.106 82.2648 130.595 79.5748 132.486C78.1426 133.476 76.8531 133.508 75.9652 132.764C75.6072 132.428 75.3132 132.006 75.1028 131.524C74.8923 131.043 74.7701 130.513 74.7444 129.971C74.9251 129.87 75.1015 129.758 75.2729 129.637C77.9629 127.789 80.1403 123.281 80.1403 119.549C80.1428 119.272 80.1287 118.996 80.098 118.723C80.5011 118.468 80.9443 118.317 81.3992 118.278C81.8541 118.238 82.3109 118.313 82.7404 118.496C83.7974 119.025 84.4421 120.393 84.4421 122.398Z" fill="#263238"/>
<path d="M84.8813 114.782L84.7915 114.719C83.4385 113.861 81.6205 114.019 79.5753 115.419C75.4266 118.275 72.0602 125.223 72.0602 130.942C72.0602 133.817 72.911 135.828 74.2851 136.761C75.6592 137.694 77.5142 137.537 79.57 136.131C83.7186 133.274 87.0798 126.32 87.0798 120.601C87.0851 117.726 86.2501 115.715 84.8813 114.782ZM79.5964 132.474C78.1589 133.464 76.8694 133.495 75.9816 132.745C75.1994 132.114 74.7238 130.853 74.7238 129.12C74.7238 125.419 76.9064 120.923 79.5964 119.032C80.8225 118.187 81.9376 118.042 82.7674 118.477C83.7926 119 84.4374 120.368 84.4374 122.386C84.4427 126.118 82.2653 130.626 79.5753 132.486L79.5964 132.474Z" fill="#37474F"/>
<path d="M83.0154 118.647L82.9573 118.609C82.08 118.048 80.8909 118.155 79.5749 119.057C76.8849 120.91 74.7023 125.419 74.7023 129.145C74.7023 131.036 75.2308 132.297 76.145 132.928C77.0593 133.558 78.259 133.432 79.5749 132.512C82.2649 130.658 84.4423 126.15 84.4423 122.424C84.4423 120.557 83.898 119.246 83.0154 118.647ZM79.5749 131.162C78.4228 131.957 77.387 131.982 76.6682 131.377C76.0446 130.853 75.6588 129.851 75.6588 128.464C75.7329 126.843 76.126 125.266 76.8064 123.861C77.4868 122.455 78.4353 121.261 79.5749 120.375C79.9451 120.066 80.3706 119.865 80.8174 119.787C81.2642 119.71 81.7201 119.757 82.1487 119.927C82.9731 120.349 83.491 121.446 83.491 123.079C83.4174 124.699 83.0244 126.276 82.3439 127.68C81.6635 129.085 80.7147 130.278 79.5749 131.162Z" fill="#31AC18"/>
<path d="M99.9693 115.331L106.412 110.898L104.266 109.416L97.8236 113.855L99.9693 115.331Z" fill="#31AC18"/>
<path d="M112.854 106.459L119.291 102.027L117.146 100.545L110.703 104.984L112.854 106.459Z" fill="#31AC18"/>
<path d="M125.733 97.5883L132.17 93.1559L130.025 91.6743L123.582 96.113L125.733 97.5883Z" fill="#31AC18"/>
<path d="M93.6809 56.3349C93.7482 56.2276 93.8424 56.1488 93.9499 56.1097C94.0574 56.0706 94.1725 56.0735 94.2785 56.1177C94.3845 56.162 94.476 56.2454 94.5396 56.3559C94.6032 56.4664 94.6356 56.5982 94.6321 56.7321C94.6735 57.091 94.6428 57.4565 94.5426 57.7985C94.4425 58.1404 94.2758 58.4492 94.0561 58.6993C93.6333 59.1343 93.2052 58.9578 93.1048 58.3021C93.0639 57.9432 93.0948 57.5779 93.1949 57.236C93.295 56.8941 93.4616 56.5853 93.6809 56.3349Z" fill="#31AC18"/>
<path d="M98.6373 59.1217L94.3301 56.1521L93.3842 58.8696L97.7072 61.8455L98.6373 59.1217Z" fill="#31AC18"/>
<path d="M97.9768 59.2919C98.3996 58.8632 98.8224 59.0397 98.9281 59.6954C98.967 60.0538 98.9347 60.418 98.8337 60.7587C98.7327 61.0994 98.5659 61.4069 98.3468 61.6563C97.924 62.0913 97.4959 61.9148 97.3955 61.2591C97.357 60.8998 97.3895 60.5348 97.4904 60.1932C97.5914 59.8516 97.7579 59.5429 97.9768 59.2919Z" fill="#31AC18"/>
<path d="M131.081 84.1587C131.081 84.2848 131.081 84.3983 131.081 84.5244C131.081 84.7766 131.081 85.0351 131.081 85.2936C130.225 84.8586 129.11 85.0036 127.884 85.8485C125.194 87.7021 123.011 92.2102 123.011 95.9364C123.011 97.664 123.487 98.9124 124.269 99.5618C124.05 99.7481 123.822 99.9207 123.587 100.079L123.339 100.23L122.594 103.578L118.281 100.709C116.918 99.7698 116.078 97.7649 116.078 94.9024C116.078 89.1838 119.439 82.2357 123.587 79.3733C125.638 77.9609 127.493 77.8159 128.872 78.7428L133.1 81.5674L133.19 81.6304L131.081 84.1587Z" fill="#455A64"/>
<path d="M133.185 81.5737L133.095 81.5107C131.742 80.6532 129.924 80.8108 127.879 82.2105C123.73 85.0667 120.363 92.0147 120.363 97.7333C120.363 100.608 121.214 102.62 122.588 103.553C123.962 104.486 125.817 104.328 127.873 102.922C132.022 100.066 135.383 93.1118 135.383 87.3932C135.399 84.5181 134.548 82.5068 133.185 81.5737ZM127.9 99.2655C126.462 100.255 125.173 100.287 124.285 99.5366C123.503 98.9061 123.027 97.6451 123.027 95.9112C123.027 92.2102 125.21 87.7147 127.9 85.8233C129.126 84.9784 130.241 84.8334 131.097 85.2684C132.122 85.7917 132.767 87.1599 132.767 89.1775C132.756 92.91 130.569 97.4181 127.879 99.2655H127.9Z" fill="#37474F"/>
<path d="M132.756 89.2027C132.756 92.91 130.579 97.3992 127.889 99.2907C126.457 100.281 125.167 100.312 124.28 99.5681C123.922 99.2325 123.628 98.8099 123.417 98.3283C123.207 97.8467 123.084 97.3172 123.059 96.775C123.239 96.6743 123.416 96.5627 123.587 96.4408C126.277 94.5935 128.455 90.0854 128.455 86.3529C128.457 86.0767 128.443 85.8007 128.412 85.5269C128.815 85.2724 129.259 85.1209 129.714 85.0818C130.168 85.0427 130.625 85.117 131.055 85.2999C132.101 85.8296 132.756 87.1851 132.756 89.2027Z" fill="#263238"/>
<path d="M131.319 85.4387L131.261 85.3945C130.384 84.8397 129.189 84.9406 127.879 85.8485C125.189 87.7021 123.006 92.2039 123.006 95.9364C123.006 97.8279 123.534 99.0889 124.449 99.7194C125.363 100.35 126.563 100.217 127.879 99.297C130.569 97.4496 132.746 92.9416 132.746 89.209C132.756 87.3491 132.228 86.0439 131.319 85.4387ZM127.879 97.9477C126.721 98.7484 125.685 98.7737 124.972 98.1684C124.343 97.6451 123.962 96.6426 123.962 95.2555C124.036 93.6349 124.43 92.0579 125.11 90.6524C125.79 89.247 126.739 88.0526 127.879 87.1662C128.862 86.4853 129.76 86.3655 130.447 86.7186C131.271 87.141 131.789 88.2381 131.789 89.871C131.716 91.4894 131.324 93.0643 130.644 94.4676C129.964 95.871 129.017 97.0634 127.879 97.9477Z" fill="#31AC18"/>
<path d="M123.582 91.0879L135.737 82.7149C137.148 81.7376 132.566 76.0316 129.157 75.647C127.281 75.3765 125.377 75.5916 123.577 76.2775C123.577 76.2775 126.171 80.2433 125.727 82.4942C125.284 84.7451 123.582 91.0879 123.582 91.0879Z" fill="#31AC18"/>
<path d="M106.412 67.4254C106.412 67.4254 124.032 78.0303 124.793 78.6671C125.554 79.3039 124.793 86.6997 123.582 91.0879C122.372 95.4762 120.512 102.222 119.767 104.114C119.022 106.005 118.049 106.712 116.263 107.941L103.579 116.686L86.4086 119.183L79.5911 114.769L81.3668 101.46C81.3668 101.46 99.6155 89.8774 102.115 88.1561C104.615 86.4348 112.009 78.3582 106.412 67.4254Z" fill="#31AC18"/>
<path opacity="0.2" d="M106.412 67.4254C106.412 67.4254 124.032 78.0303 124.793 78.6671C125.554 79.3039 124.793 86.6997 123.582 91.0879C122.372 95.4762 120.512 102.222 119.767 104.114C119.022 106.005 118.049 106.712 116.263 107.941L103.579 116.686L86.4086 119.183L79.5911 114.769L81.3668 101.46C81.3668 101.46 99.6155 89.8774 102.115 88.1561C104.615 86.4348 112.009 78.3582 106.412 67.4254Z" fill="black"/>
<path d="M125.131 88.5596C126.716 83.4778 127.9 79.2661 127.699 76.4225C127.456 73.0494 126.399 70.2941 121.738 68.907C117.077 67.5199 110.56 67.5451 110.56 67.5451L108.578 68.9133C108.578 68.9133 121.981 78.1816 123.503 79.1904C124.433 79.8209 125.427 82.6014 123.603 91.0942L123.915 91.3086C124.068 91.4221 124.623 90.1926 125.131 88.5596Z" fill="#31AC18"/>
<path opacity="0.3" d="M125.131 88.5596C126.716 83.4778 127.9 79.2661 127.699 76.4225C127.456 73.0494 126.399 70.2941 121.738 68.907C117.077 67.5199 110.56 67.5451 110.56 67.5451L108.578 68.9133C108.578 68.9133 121.981 78.1816 123.503 79.1904C124.433 79.8209 125.427 82.6014 123.603 91.0942L123.915 91.3086C124.068 91.4221 124.623 90.1926 125.131 88.5596Z" fill="white"/>
<path d="M114.978 73.3395L117.145 71.8641C117.145 71.8641 117.018 62.9047 113.858 60.7295C110.698 58.5543 99.9693 60.036 99.9693 60.036L97.8236 61.5113L114.978 73.3395Z" fill="#31AC18"/>
<path d="M107.949 62.7785C106.919 63.491 106.919 64.6385 107.949 65.3447C108.527 65.6957 109.166 65.8787 109.815 65.8787C110.463 65.8787 111.102 65.6957 111.68 65.3447C112.706 64.6385 112.706 63.4847 111.68 62.7785C111.102 62.4305 110.463 62.2491 109.815 62.2491C109.167 62.2491 108.528 62.4305 107.949 62.7785Z" fill="#F0F0F0"/>
<path d="M111.247 67.0597C110.523 67.5641 110.523 68.3774 111.247 68.8755C111.656 69.1251 112.109 69.2552 112.569 69.2552C113.028 69.2552 113.481 69.1251 113.89 68.8755C114.619 68.3774 114.619 67.5641 113.89 67.0597C113.48 66.813 113.028 66.6846 112.569 66.6846C112.11 66.6846 111.657 66.813 111.247 67.0597Z" fill="#F0F0F0"/>
<path d="M102.944 61.6374C102.215 62.1355 102.215 62.9488 102.944 63.4532C103.354 63.6999 103.807 63.8283 104.266 63.8283C104.725 63.8283 105.177 63.6999 105.587 63.4532C106.316 62.9488 106.316 62.1355 105.587 61.6374C105.178 61.3878 104.725 61.2577 104.266 61.2577C103.806 61.2577 103.353 61.3878 102.944 61.6374Z" fill="#F0F0F0"/>
<path d="M115.317 70.7418C115.74 70.3067 116.163 70.4833 116.268 71.139C116.307 71.4983 116.275 71.8635 116.174 72.2052C116.073 72.5468 115.906 72.8554 115.687 73.1062C115.62 73.2134 115.525 73.2923 115.418 73.3314C115.31 73.3704 115.195 73.3676 115.089 73.3233C114.983 73.2791 114.892 73.1956 114.828 73.0852C114.765 72.9747 114.732 72.8429 114.736 72.7089C114.695 72.3495 114.726 71.9838 114.828 71.6418C114.929 71.2997 115.096 70.9913 115.317 70.7418Z" fill="#31AC18"/>
<path d="M120.248 73.5285L115.935 70.5589L114.995 73.2763L119.312 76.246L120.248 73.5285Z" fill="#31AC18"/>
<path d="M119.582 73.6988C119.649 73.5915 119.743 73.5126 119.851 73.4736C119.958 73.4345 120.073 73.4374 120.18 73.4816C120.286 73.5259 120.377 73.6093 120.441 73.7198C120.504 73.8303 120.537 73.9621 120.533 74.096C120.573 74.4554 120.542 74.821 120.441 75.163C120.34 75.5049 120.172 75.8134 119.952 76.0632C119.529 76.4982 119.106 76.3154 119.001 75.666C118.961 75.3067 118.993 74.9413 119.094 74.5996C119.195 74.2578 119.362 73.9492 119.582 73.6988Z" fill="#31AC18"/>
<path d="M119.582 73.6988C119.649 73.5915 119.743 73.5126 119.851 73.4736C119.958 73.4345 120.073 73.4374 120.18 73.4816C120.286 73.5259 120.377 73.6093 120.441 73.7198C120.504 73.8303 120.537 73.9621 120.533 74.096C120.573 74.4554 120.542 74.821 120.441 75.163C120.34 75.5049 120.172 75.8134 119.952 76.0632C119.529 76.4982 119.106 76.3154 119.001 75.666C118.961 75.3067 118.993 74.9413 119.094 74.5996C119.195 74.2578 119.362 73.9492 119.582 73.6988Z" fill="black"/>
<path d="M82.7779 117.354C82.7779 117.481 82.7779 117.594 82.7779 117.72C82.7779 117.972 82.7779 118.231 82.7779 118.489C81.9217 118.054 80.8066 118.199 79.607 119.044C76.917 120.898 74.7343 125.406 74.7343 129.132C74.7343 130.86 75.2099 132.108 75.9921 132.757C75.7725 132.944 75.545 133.116 75.3104 133.274L75.062 133.426L74.3168 136.774L70.0043 133.905C68.6408 132.966 67.8005 130.961 67.8005 128.098C67.8005 122.379 71.1617 115.431 75.3104 112.569C77.3609 111.157 79.2159 111.012 80.5952 111.938L84.8231 114.763L84.913 114.826L82.7779 117.354Z" fill="#455A64"/>
<path d="M69.9145 107.348L66.696 120.658L73.1383 125.097L76.4731 111.869L69.9145 107.348Z" fill="#31AC18"/>
<path opacity="0.2" d="M69.9145 107.348L66.696 120.658L73.1383 125.097L76.4731 111.869L69.9145 107.348Z" fill="black"/>
<path d="M69.9141 107.348C69.9141 107.348 73.5659 111.049 76.4726 111.869C80.2883 112.972 86.3553 113.092 88.5063 113.269C91.7935 113.54 94.2774 113.534 95.44 113.035C96.9462 112.405 100.994 109.599 102.115 108.83C104.26 107.355 105.175 101.548 99.261 99.959C95.2624 98.9706 91.1893 98.4741 87.1058 98.4773L69.9141 107.348Z" fill="#31AC18"/>
<path d="M106.332 105.646C106.148 106.195 106.024 106.769 105.962 107.355C105.792 107.964 105.752 108.614 105.846 109.246C106.249 110.041 106.883 110.631 107.627 110.904C108.163 111.047 108.718 111.056 109.257 110.931C109.796 110.806 110.308 110.55 110.761 110.179C111.855 109.398 112.679 108.452 114.233 107.922C115.344 107.642 116.39 107.076 117.298 106.264C118.16 105.438 119.312 103.156 117.663 102.626C116.014 102.096 112.431 103.963 109.165 104.133L106.332 105.646Z" fill="#37474F"/>
<path d="M106.332 103.212V106.125C106.432 106.453 106.606 106.741 106.835 106.958C107.063 107.175 107.337 107.312 107.627 107.355C107.893 107.401 108.164 107.366 108.415 107.254C108.811 107.074 109.154 106.759 109.401 106.349C109.649 105.939 109.791 105.451 109.81 104.946L109.905 103.212H106.332Z" fill="#FFA8A7"/>
<path d="M110.983 85.1991C110.983 88.8245 110.127 104.499 110.127 104.499C110.127 104.499 108.885 106.39 106.185 104.499L105.276 86.9834L110.983 85.1991Z" fill="#37474F"/>
<path d="M96.8199 100.646L105.276 94.833C105.622 94.6161 105.912 94.2902 106.115 93.8907C106.317 93.4912 106.424 93.0333 106.424 92.5664C106.424 92.0996 106.317 91.6416 106.115 91.2421C105.912 90.8426 105.622 90.5167 105.276 90.2998L98.9762 85.962C98.6215 85.7476 98.2296 85.6359 97.832 85.6359C97.4344 85.6359 97.0425 85.7476 96.6878 85.962L88.232 91.7751C87.887 91.9936 87.5984 92.32 87.3971 92.7193C87.1958 93.1186 87.0895 93.5758 87.0895 94.0418C87.0895 94.5077 87.1958 94.9649 87.3971 95.3642C87.5984 95.7636 87.887 96.09 88.232 96.3084L94.5316 100.646C94.8862 100.861 95.2782 100.972 95.6758 100.972C96.0733 100.972 96.4653 100.861 96.8199 100.646Z" fill="#31AC18"/>
<path d="M96.8199 100.646L105.276 94.833C105.622 94.6161 105.912 94.2902 106.115 93.8907C106.317 93.4912 106.424 93.0333 106.424 92.5664C106.424 92.0996 106.317 91.6416 106.115 91.2421C105.912 90.8426 105.622 90.5167 105.276 90.2998L98.9762 85.962C98.6215 85.7476 98.2296 85.6359 97.832 85.6359C97.4344 85.6359 97.0425 85.7476 96.6878 85.962L88.232 91.7751C87.887 91.9936 87.5984 92.32 87.3971 92.7193C87.1958 93.1186 87.0895 93.5758 87.0895 94.0418C87.0895 94.5077 87.1958 94.9649 87.3971 95.3642C87.5984 95.7636 87.887 96.09 88.232 96.3084L94.5316 100.646C94.8862 100.861 95.2782 100.972 95.6758 100.972C96.0733 100.972 96.4653 100.861 96.8199 100.646Z" fill="white"/>
<path d="M88.2316 93.3514L94.5312 97.6892C94.8858 97.9036 95.2778 98.0153 95.6754 98.0153C96.073 98.0153 96.4649 97.9036 96.8196 97.6892L105.275 91.876C105.413 91.8201 105.533 91.7141 105.618 91.5727C105.703 91.4313 105.749 91.2618 105.749 91.0879C105.749 90.914 105.703 90.7444 105.618 90.6031C105.533 90.4617 105.413 90.3557 105.275 90.2998L98.9758 85.962C98.6212 85.7476 98.2292 85.6359 97.8316 85.6359C97.434 85.6359 97.0421 85.7476 96.6874 85.962L88.2316 91.7751C88.0936 91.831 87.9737 91.9371 87.8888 92.0784C87.8039 92.2198 87.7582 92.3893 87.7582 92.5633C87.7582 92.7372 87.8039 92.9067 87.8888 93.0481C87.9737 93.1894 88.0936 93.2955 88.2316 93.3514Z" fill="#31AC18"/>
<path d="M93.3849 54.765L92.312 60.0422L87.7036 60.3764L88.6972 53.0626L93.3849 54.765Z" fill="#FFA8A7"/>
<path d="M97.8763 50.7928C97.8763 50.7928 98.4048 53.0248 98.1881 53.1509C97.8553 53.2115 97.5167 53.2115 97.184 53.1509L97.8763 50.7928Z" fill="#F28F8F"/>
<path d="M96.9943 43.6683C97.7342 44.7086 98.4106 46.4172 97.8874 50.6037C97.3167 55.1811 96.6085 55.7107 96.0377 56.1521C95.2926 56.7322 92.3119 56.4232 91.4716 55.6918C90.4622 54.8154 88.9031 52.035 88.5332 49.2923C88.0998 46.0705 89.0036 42.4955 90.9907 41.884C93.7864 41.0202 96.3654 42.7856 96.9943 43.6683Z" fill="#FFA8A7"/>
<path d="M88.2318 54.5443C88.9452 55.427 90.4091 55.6666 91.3287 55.8683C92.2483 56.0701 95.0757 56.2908 95.9107 53.8886C96.7457 51.4864 96.1749 49.7588 97.2002 49.1788C98.2255 48.5987 99.2507 48.2204 99.5203 47.9178C99.7898 47.6151 99.7951 43.6619 97.0416 41.6128C94.2882 39.5637 90.0709 39.0908 87.2963 43.2458C85.1929 46.455 86.0544 51.8332 88.2318 54.5443Z" fill="#455A64"/>
<path d="M91.0061 55.8999C91.7196 55.9755 93.9762 55.5531 94.658 54.4434C95.3397 53.3337 95.6145 51.3477 95.7149 50.3073C95.7242 49.8976 95.8501 49.5039 96.072 49.191C96.2939 48.8781 96.5986 48.6648 96.9357 48.5861C97.6175 48.3276 99.1237 47.4449 99.1237 47.4449V46.9531C99.6094 46.9167 100.097 46.9167 100.582 46.9531C100.899 47.0225 100.725 47.5836 99.9217 48.0691C99.1184 48.5546 96.9146 49.494 96.5764 49.8156C96.2381 50.1371 96.0796 51.4927 95.8101 52.9365C95.5405 54.3804 94.7055 56.5367 91.0061 55.8999Z" fill="#37474F"/>
<path d="M97.3484 61.8707L99.9908 60.0611C100.244 59.1469 99.8376 58.6866 99.1188 58.7434C98.4001 58.8001 98.622 57.9679 98.1834 57.7346C97.6073 57.4193 97.2797 57.5959 97.0207 57.4509C96.7618 57.3059 96.6508 56.9402 96.3125 56.896C94.8011 56.7258 93.7705 59.2982 93.7705 59.2982L97.3484 61.8707Z" fill="#F28F8F"/>
<path d="M79.411 85.0225C79.411 85.0225 91.0853 78.1186 93.12 77.0026C95.1547 75.8866 98.3467 74.2662 100.043 74.2662C100.706 74.3316 101.327 74.68 101.792 75.2475C102.257 75.815 102.535 76.5635 102.575 77.3557C102.597 78.5719 102.538 79.7883 102.4 80.9936C99.1927 82.249 95.915 83.2329 92.5915 83.9381C87.7347 84.9469 79.411 85.0225 79.411 85.0225Z" fill="#37474F"/>
<path d="M80.6798 81.0315C80.6798 83.894 80.4526 86.8699 81.4514 88.9632C82.4502 91.0564 87.862 95.8986 92.9566 94.8835C96.2861 94.2152 106.169 88.7866 106.169 88.7866C106.169 88.7866 110.962 86.6871 110.983 85.1928C111.015 82.9924 110.888 79.8903 106.708 80.0227C102.897 80.1425 91.6565 82.9419 91.6565 82.9419L80.6798 81.0315Z" fill="#455A64"/>
<path d="M83.9403 58.3525C85.7477 56.1016 86.9685 55.9125 87.8352 56.1899C89.8271 56.87 91.7555 57.7911 93.5904 58.9388C93.5904 58.9388 92.8928 66.9966 96.1959 69.3168V81.8763C96.1959 81.8763 96.0955 83.2382 94.658 84.5938C93.3896 85.7854 90.5199 86.9897 87.0953 86.6492C83.026 86.2457 80.6795 81.0315 80.6795 81.0315C80.6795 81.0315 80.5738 70.7607 81.1498 66.6814C81.8263 61.9211 83.3166 59.1343 83.9403 58.3525Z" fill="#455A64"/>
<path d="M96.1957 69.9284C96.1957 69.9284 94.198 68.0369 93.5902 65.578C93.5902 65.578 93.828 69.4366 96.1957 71.3912V69.9284Z" fill="#37474F"/>
<path d="M114.688 75.8551C115.636 75.9017 116.57 75.5566 117.33 74.8779C117.33 74.8779 118.25 72.7468 119.381 72.9296C119.381 72.9296 119.581 72.0217 119.116 71.7254C118.651 71.429 118.45 71.511 118.26 71.1957C118.07 70.8805 118.049 70.2941 117.203 70.2941C116.854 70.2941 116.902 69.9978 116.056 69.878C115.211 69.7582 114.376 72.0847 113.757 72.0847L114.688 75.8551Z" fill="#FFA8A7"/>
<path d="M93.5909 58.9388C96.4923 59.4748 97.544 60.5025 98.601 61.6689C99.6579 62.8353 106.127 70.5778 106.127 70.5778L113.959 71.9208C114.37 72.3184 114.672 72.8544 114.826 73.4592C115.143 74.5563 114.857 75.7542 114.556 76.0379C114.556 76.0379 106.787 76.5928 105.26 76.246C103.733 75.8992 96.1699 69.9095 96.1699 69.9095C95.4471 69.2592 94.8408 68.4426 94.387 67.508C93.9331 66.5735 93.6409 65.5399 93.5275 64.4683C93.036 60.6664 93.5909 58.9388 93.5909 58.9388Z" fill="#455A64"/>
<path d="M86.6254 92.2417L74.6234 109.719C74.4902 109.739 74.3561 109.75 74.2218 109.751C73.7459 109.76 73.2755 109.627 72.853 109.366L62.7166 102.38L62.0296 101.907C61.6543 101.649 61.3425 100.59 61.3425 99.5429V96.5984C61.3421 93.5738 62.009 90.6024 63.2763 87.9827C64.5435 85.363 66.3664 83.1874 68.5617 81.6746L80.6641 73.3394L93.5433 82.2105L86.6254 92.2417Z" fill="#31AC18"/>
<g opacity="0.1">
<path d="M86.6254 92.2417L74.6234 109.719C74.4902 109.739 74.3561 109.75 74.2218 109.751C73.7459 109.76 73.2755 109.627 72.853 109.366L62.7166 102.38L62.0296 101.907C61.6543 101.649 61.3425 100.59 61.3425 99.5429V96.5984C61.3421 93.5738 62.009 90.6024 63.2763 87.9827C64.5435 85.363 66.3664 83.1874 68.5617 81.6746L80.6641 73.3394L93.5433 82.2105L86.6254 92.2417Z" fill="black"/>
</g>
<path d="M82.4873 98.2693L93.5274 82.2168L80.6481 73.3457L68.551 81.6746C66.9862 82.7554 65.6058 84.1777 64.4817 85.8674L82.4873 98.2693Z" fill="#31AC18"/>
<path d="M93.5271 95.1042C93.5271 96.1508 93.2206 97.21 92.8401 97.4685L92.153 97.9414L75.5796 109.36C75.2781 109.554 74.9478 109.676 74.6072 109.719C74.474 109.739 74.3399 109.75 74.2056 109.751V105.47C74.2052 102.444 74.8726 99.4721 76.1409 96.8522C77.4091 94.2324 79.2333 92.0573 81.43 90.5457L82.7988 89.6062L93.5271 82.2105V95.1042Z" fill="#31AC18"/>
<g opacity="0.2">
<path d="M93.5271 95.1042C93.5271 96.1508 93.2206 97.21 92.8401 97.4685L92.153 97.9414L75.5796 109.36C75.2781 109.554 74.9478 109.676 74.6072 109.719C74.474 109.739 74.3399 109.75 74.2056 109.751V105.47C74.2052 102.444 74.8726 99.4721 76.1409 96.8522C77.4091 94.2324 79.2333 92.0573 81.43 90.5457L82.7988 89.6062L93.5271 82.2105V95.1042Z" fill="black"/>
</g>
<path d="M97.0842 116.73L103.569 116.705L112.849 110.312L103.759 118.149L96.915 118.262L97.0842 116.73Z" fill="#E0E0E0"/>
<path d="M81.34 127.739C81.34 127.739 93.0302 122.48 94.0237 121.862C95.1898 121.01 96.2962 120.046 97.3321 118.981C97.5435 118.648 97.6428 118.232 97.6105 117.815C97.5782 117.399 97.4167 117.012 97.1577 116.73C97.1577 116.73 92.4013 116.472 91.1805 116.919C90.4987 117.165 79.4956 121.377 79.4956 121.377L81.34 127.739Z" fill="#E0E0E0"/>
<path d="M80.8172 121.862C79.8501 120.873 78.8777 121.282 78.6399 122.77C78.549 123.591 78.6218 124.426 78.8523 125.207C79.0828 125.989 79.4645 126.694 79.9664 127.266C80.9335 128.256 81.9059 127.852 82.1437 126.358C82.2341 125.537 82.1612 124.702 81.9307 123.921C81.7002 123.14 81.3188 122.435 80.8172 121.862Z" fill="#455A64"/>
</svg>
