<svg width="24" height="24" viewBox="0 0 24 24" fill="none" xmlns="http://www.w3.org/2000/svg">
<path d="M1.5752 11.5781L1.59863 12.3047C1.6502 13.8914 2.2127 15.4359 3.22988 16.7672C4.20488 18.0445 5.56426 19.0922 7.16504 19.7977C7.52129 19.9547 7.93613 19.793 8.09082 19.4367C8.24785 19.0805 8.08613 18.6656 7.72988 18.5109C6.34707 17.9016 5.17754 17.0039 4.34551 15.9141C3.66582 15.0234 3.23223 14.0227 3.07051 12.9844H20.9439C20.7799 14.0344 20.3393 15.0445 19.6455 15.9445C18.7994 17.0414 17.6111 17.9414 16.2049 18.5438C15.8486 18.6961 15.6846 19.1109 15.8369 19.4672C15.9518 19.7344 16.2096 19.8938 16.4838 19.8938C16.5775 19.8938 16.6713 19.875 16.7604 19.8375C20.1471 18.3797 22.315 15.4945 22.4158 12.3047L22.4393 11.5781H1.5752Z" fill="#F8F9F8"/>
<path d="M13.8725 18.7524H10.1459C9.3209 18.7524 8.64355 19.4274 8.64355 20.2548C8.64355 21.0821 9.31855 21.7571 10.1459 21.7571H13.8725C14.6975 21.7571 15.3748 21.0821 15.3748 20.2548C15.3748 19.4274 14.6975 18.7524 13.8725 18.7524ZM13.8725 20.3485H10.1459C10.0967 20.3485 10.0498 20.3017 10.0498 20.2524C10.0498 20.2032 10.0967 20.1563 10.1459 20.1563H13.8725C13.9217 20.1563 13.9686 20.2032 13.9686 20.2524C13.9686 20.3017 13.9217 20.3485 13.8725 20.3485Z" fill="#F8F9F8"/>
<path d="M11.6741 8.754C11.4491 8.4376 11.0085 8.36494 10.6921 8.59229C10.3757 8.81729 10.303 9.25791 10.5304 9.57432C10.7835 9.92822 10.9194 10.3478 10.9194 10.786C10.9194 11.1751 11.2335 11.4892 11.6226 11.4892C12.0116 11.4892 12.3257 11.1751 12.3257 10.786C12.3257 10.0501 12.1007 9.34697 11.6741 8.754ZM10.1343 7.54228C9.71943 7.37588 9.2835 7.2915 8.8335 7.2915C6.90693 7.2915 5.34131 8.85713 5.34131 10.7837C5.34131 11.1728 5.65537 11.4868 6.04443 11.4868C6.4335 11.4868 6.74756 11.1728 6.74756 10.7837C6.74756 9.63291 7.68271 8.69775 8.8335 8.69775C9.10303 8.69775 9.36318 8.74697 9.60928 8.84775C9.97021 8.99307 10.378 8.81728 10.5233 8.45635C10.6687 8.09541 10.4952 7.68525 10.1343 7.54228Z" fill="#F8F9F8"/>
<path d="M12.8767 6.43847C11.7821 5.36972 10.3525 4.7791 8.85011 4.7791C7.34777 4.7791 5.91808 5.36738 4.82355 6.43847C3.74308 7.49551 3.08917 8.92285 2.98136 10.4557C2.95323 10.8424 3.2462 11.1799 3.63292 11.2057C4.01964 11.2314 4.35714 10.9408 4.38292 10.5541C4.46495 9.36347 4.9712 8.25957 5.80558 7.44394C6.63527 6.63301 7.71573 6.18535 8.85011 6.18535C9.98214 6.18535 11.065 6.63301 11.8946 7.44394C12.729 8.25957 13.2329 9.36347 13.3173 10.5541C13.3431 10.9244 13.6525 11.208 14.0181 11.208C14.0345 11.208 14.0509 11.208 14.0673 11.2057C14.454 11.1775 14.747 10.8424 14.7189 10.4557C14.611 8.92285 13.9571 7.49551 12.8767 6.43847ZM20.979 9.04472C20.7095 8.59004 20.3298 8.18691 19.8517 7.84472L21.115 6.47832C21.3775 6.19238 21.361 5.74707 21.0751 5.48457C20.7892 5.22207 20.3439 5.23847 20.0814 5.52441L18.5579 7.17441C18.4407 7.13222 18.3212 7.09238 18.1993 7.05722L20.1306 3.32597C20.3087 2.98144 20.1751 2.55722 19.8282 2.3791C19.4837 2.20097 19.0595 2.33457 18.8814 2.68144L16.7439 6.81347C16.615 6.80644 16.4837 6.80176 16.3525 6.80176C15.8392 6.80176 15.3329 6.85801 14.8454 6.97051C14.4681 7.05722 14.2314 7.43457 14.3181 7.81426C14.4048 8.1916 14.7821 8.42832 15.1618 8.3416C15.5439 8.25254 15.9446 8.20801 16.3501 8.20801C17.372 8.20801 18.3235 8.48457 19.029 8.98847C19.6642 9.44082 20.0134 10.0197 20.0134 10.6174C20.0134 11.0064 20.3275 11.3205 20.7165 11.3205C21.1056 11.3205 21.4196 11.0064 21.4196 10.6174C21.4196 10.0666 21.272 9.53691 20.979 9.04472Z" fill="#F8F9F8"/>
</svg>
