<svg viewBox="0 0 24 24" fill="none" xmlns="http://www.w3.org/2000/svg">
<path d="M16.88 4.00004L19.03 6.10004L13.5 10.5L12.5 9.50004L16.87 4.00004H16.88ZM16.88 2.00004C16.5845 1.99809 16.2922 2.06165 16.0242 2.18614C15.7562 2.31064 15.5191 2.49297 15.33 2.72004L9.8 9.65004L13.34 13.19L20.28 7.67004C21.18 6.91004 21.25 5.54004 20.41 4.70004L18.3 2.59004C17.9 2.19004 17.39 2.00004 16.88 2.00004ZM9.1 10.36L8.39 11.07C8.20251 11.2608 8.09744 11.5176 8.09744 11.785C8.09744 12.0525 8.20251 12.3093 8.39 12.5L10.5 14.6C10.71 14.8 10.96 14.89 11.22 14.89C11.48 14.89 11.73 14.8 11.93 14.6L12.63 13.9L9.1 10.36ZM6 15C5.45 15 5 15.45 5 16C5 16.55 5.45 17 6 17C6.55 17 7 16.55 7 16C7 15.45 6.55 15 6 15ZM9 16C8.45 16 8 16.45 8 17C8 17.55 8.45 18 9 18C9.55 18 10 17.55 10 17C10 16.45 9.55 16 9 16ZM4 18C3.45 18 3 18.45 3 19C3 19.55 3.45 20 4 20C4.55 20 5 19.55 5 19C5 18.45 4.55 18 4 18ZM7 19C6.45 19 6 19.45 6 20C6 20.55 6.45 21 7 21C7.55 21 8 20.55 8 20C8 19.45 7.55 19 7 19Z" fill="#F8F9F8"/>
</svg>
