<svg width="48" height="49" viewBox="0 0 48 49" fill="none" xmlns="http://www.w3.org/2000/svg">
<g clip-path="url(#clip0_5768_3212)">
<path d="M46.0994 32.0015L46.1011 32.0002L46.1761 32.1002C46.4961 31.8602 46.4961 31.3802 46.3362 31.1401C45.6962 30.1801 45.3762 29.7801 42.0162 31.4601L46.0994 32.0015ZM46.0994 32.0015L33.9394 41.4414L33.9332 41.4462L33.9277 41.4518L33.8511 41.5283M46.0994 32.0015L33.8511 41.5283M33.8511 41.5283C33.3045 41.9962 32.77 42.2979 32.1682 42.3752H32.0961H32.0808L32.0658 42.3789C31.7624 42.4547 31.5363 42.4551 31.2161 42.4551H31.2067L31.1974 42.4565L20.6374 44.0566L20.6366 44.0567C19.1252 44.2953 17.5322 44.3751 16.0161 44.3751H5.74108V31.3649C6.70109 30.6905 8.26251 29.7419 9.85841 29.1678C10.6711 28.8754 11.4869 28.6823 12.2333 28.6689C12.979 28.6555 13.6479 28.8213 14.1789 29.2384L14.1788 29.2385L14.1819 29.2408C15.7246 30.3775 17.751 31.0251 19.7761 31.0251H22.8961C24.6983 31.0251 26.3367 31.8073 27.3513 33.3682L27.3521 33.3694C27.5044 33.5979 27.5984 33.8248 27.6448 34.0104C27.668 34.1033 27.6788 34.1837 27.6798 34.2472C27.6809 34.3088 27.6726 34.3447 27.6658 34.3608C27.6217 34.4315 27.5399 34.5012 27.4136 34.5666C27.2853 34.633 27.1205 34.6902 26.9257 34.7389C26.5373 34.836 26.0476 34.8953 25.5313 34.9352H25.531H25.5304H25.5298H25.5291H25.5285H25.5279H25.5272H25.5266H25.526H25.5253H25.5247H25.5241H25.5235H25.5228H25.5222H25.5216H25.5209H25.5203H25.5197H25.519H25.5184H25.5178H25.5171H25.5165H25.5159H25.5152H25.5146H25.514H25.5133H25.5127H25.5121H25.5115H25.5108H25.5102H25.5096H25.5089H25.5083H25.5077H25.507H25.5064H25.5058H25.5051H25.5045H25.5039H25.5032H25.5026H25.502H25.5014H25.5007H25.5001H25.4995H25.4988H25.4982H25.4976H25.4969H25.4963H25.4957H25.495H25.4944H25.4938H25.4932H25.4925H25.4919H25.4913H25.4906H25.49H25.4894H25.4887H25.4881H25.4875H25.4868H25.4862H25.4856H25.485H25.4843H25.4837H25.4831H25.4824H25.4818H25.4812H25.4805H25.4799H25.4793H25.4786H25.478H25.4774H25.4768H25.4761H25.4755H25.4749H25.4742H25.4736H25.473H25.4723H25.4717H25.4711H25.4705H25.4698H25.4692H25.4686H25.4679H25.4673H25.4667H25.466H25.4654H25.4648H25.4641H25.4635H25.4629H25.4623H25.4616H25.461H25.4604H25.4597H25.4591H25.4585H25.4578H25.4572H25.4566H25.456H25.4553H25.4547H25.4541H25.4534H25.4528H25.4522H25.4516H25.4509H25.4503H25.4497H25.449H25.4484H25.4478H25.4471H25.4465H25.4459H25.4453H25.4446H25.444H25.4434H25.4427H25.4421H25.4415H25.4409H25.4402H25.4396H25.439H25.4383H25.4377H25.4371H25.4364H25.4358H25.4352H25.4346H25.4339H25.4333H25.4327H25.432H25.4314H25.4308H25.4302H25.4295H25.4289H25.4283H25.4276H25.427H25.4264H25.4258H25.4251H25.4245H25.4239H25.4232H25.4226H25.422H25.4214H25.4207H25.4201H25.4195H25.4188H25.4182H25.4176H25.417H25.4163H25.4157H25.4151H25.4144H25.4138H25.4132H25.4126H25.4119H25.4113H25.4107H25.4101H25.4094H25.4088H25.4082H25.4075H25.4069H25.4063H25.4057H25.405H25.4044H25.4038H25.4031H25.4025H25.4019H25.4013H25.4006H25.4H25.3994H25.3988H25.3981H25.3975H25.3969H25.3962H25.3956H25.395H25.3944H25.3937H25.3931H25.3925H25.3919H25.3912H25.3906H25.39H25.3893H25.3887H25.3881H25.3875H25.3868H25.3862H25.3856H25.385H25.3843H25.3837H25.3831H25.3825H25.3818H25.3812H25.3806H25.3799H25.3793H25.3787H25.3781H25.3774H25.3768H25.3762H25.3756H25.3749H25.3743H25.3737H25.3731H25.3724H25.3718H25.3712H25.3706H25.3699H25.3693H25.3687H25.3681H25.3674H25.3668H25.3662H25.3656H25.3649H25.3643H25.3637H25.363H25.3624H25.3618H25.3612H25.3605H25.3599H25.3593H25.3587H25.358H25.3574H25.3568H25.3562H25.3555H25.3549H25.3543H25.3537H25.353H25.3524H25.3518H25.3512H25.3505H25.3499H25.3493H25.3487H25.3481H25.3474H25.3468H25.3462H25.3456H25.3449H25.3443H25.3437H25.3431H25.3424H25.3418H25.3412H25.3406H25.3399H25.3393H25.3387H25.3381H25.3374H25.3368H25.3362H25.3356H25.3349H25.3343H25.3337H25.3331H25.3325H25.3318H25.3312H25.3306H25.33H25.3293H25.3287H25.3281H25.3275H25.3268H25.3262H25.3256H25.325H25.3244H25.3237H25.3231H25.3225H25.3219H25.3212H25.3206H25.32H25.3194H25.3187H25.3181H25.3175H25.3169H25.3163H25.3156H25.315H25.3144H25.3138H25.3131H25.3125H25.3119H25.3113H25.3107H25.31H25.3094H25.3088H25.3082H25.3076H25.3069H25.3063H25.3057H25.3051H25.3044H25.3038H25.3032H25.3026H25.302H25.3013H25.3007H25.3001H25.2995H25.2989H25.2982H25.2976H25.297H25.2964H25.2957H25.2951H25.2945H25.2939H25.2933H25.2926H25.292H25.2914H25.2908H25.2902H25.2895H25.2889H25.2883H25.2877H25.2871H25.2864H25.2858H25.2852H25.2846H25.284H25.2833H25.2827H25.2821H25.2815H25.2809H25.2802H25.2796H25.279H25.2784H25.2778H25.2771H25.2765H25.2759H25.2753H25.2747H25.2741H25.2734H25.2728H25.2722H25.2716H25.271H25.2703H25.2697H25.2691H25.2685H25.2679H25.2672H25.2666H25.266H25.2654H25.2648H25.2642H25.2635H25.2629H25.2623H25.2617H25.2611H25.2604H25.2598H25.2592H25.2586H25.258H25.2574H25.2567H25.2561H25.2555H25.2549H25.2543H25.2537H25.253H25.2524H25.2518H25.2512H25.2506H25.25H25.2493H25.2487H25.2481H25.2475H25.2469H25.2463H25.2456H25.245H25.2444H25.2438H25.2432H25.2426H25.2419H25.2413H25.2407H25.2401H25.2395H25.2389H25.2382H25.2376H25.237H25.2364H25.2358H25.2352H25.2345H25.2339H25.2333H25.2327H25.2321H25.2315H25.2309H25.2302H25.2296H25.229H25.2284H25.2278H25.2272H25.2266H25.2259H25.2253H25.2247H25.2241H25.2235H25.2229H25.2223H25.2216H25.221H25.2204H25.2198H25.2192H25.2186H25.218H25.2173H25.2167H25.2161H25.2149H25.2137H25.2125H25.2113H25.2101H25.2089H25.2077H25.2065H25.2052H25.204H25.2028H25.2016H25.2004H25.1992H25.198H25.1968H25.1956H25.1944H25.1932H25.192H25.1908H25.1896H25.1884H25.1872H25.186H25.1848H25.1836H25.1824H25.1812H25.18H25.1788H25.1776H25.1764H25.1752H25.174H25.1728H25.1716H25.1704H25.1692H25.168H25.1668H25.1656H25.1644H25.1632H25.162H25.1608H25.1596H25.1584H25.1572H25.156H25.1549H25.1537H25.1525H25.1513H25.1501H25.1489H25.1477H25.1465H25.1453H25.1441H25.1429H25.1417H25.1406H25.1394H25.1382H25.137H25.1358H25.1346H25.1334H25.1322H25.1311H25.1299H25.1287H25.1275H25.1263H25.1251H25.1239H25.1228H25.1216H25.1204H25.1192H25.118H25.1168H25.1157H25.1145H25.1133H25.1121H25.1109H25.1097H25.1086H25.1074H25.1062H25.105H25.1038H25.1027H25.1015H25.1003H25.0991H25.098H25.0968H25.0956H25.0944H25.0933H25.0921H25.0909H25.0897H25.0886H25.0874H25.0862H25.085H25.0839H25.0827H25.0815H25.0803H25.0792H25.078H25.0768H25.0757H25.0745H25.0733H25.0722H25.071H25.0698H25.0687H25.0675H25.0663H25.0652H25.064H25.0628H25.0617H25.0605H25.0593H25.0582H25.057H25.0558H25.0547H25.0535H25.0524H25.0512H25.05H25.0489H25.0477H25.0466H25.0454H25.0442H25.0431H25.0419H25.0408H25.0396H25.0385H25.0373H25.0361H25.035H25.0338H25.0327H25.0315H25.0304H25.0292H25.0281H25.0269H25.0258H25.0246H25.0235H25.0223H25.0212H25.02H25.0189H25.0177H25.0166H25.0154H25.0143H25.0131H25.012H25.0108H25.0097H25.0085H25.0074H25.0062H25.0051H25.004H25.0028H25.0017H25.0005H24.9994H24.9982H24.9971H24.996H24.9948H24.9937H24.9925H24.9914H24.9903H24.9891H24.988H24.9869H24.9857H24.9846H24.9835H24.9823H24.9812H24.9801H24.9789H24.9778H24.9767H24.9755H24.9744H24.9733H24.9721H24.971H24.9699H24.9687H24.9676H24.9665H24.9654H24.9642H24.9631H24.962H24.9609H24.9597H24.9586H24.9575H24.9564H24.9552H24.9541H24.953H24.9519H24.9508H24.9496H24.9485H24.9474H24.9463H24.9452H24.944H24.9429H24.9418H24.9407H24.9396H24.9385H24.9373H24.9362H24.9351H24.934H24.9329H24.9318H24.9307H24.9296H24.9285H24.9273H24.9262H24.9251H24.924H24.9229H24.9218H24.9207H24.9196H24.9185H24.9174H24.9163H24.9152H24.9141H24.913H24.9119H24.9108H24.9097H24.9086H24.9075H24.9064H24.9053H24.9042H24.9031H24.902H24.9009H24.8998H24.8987H24.8976H24.8965H24.8954H24.8943H24.8932H24.8921H24.891H24.8899H24.8888H24.8878H24.8867H24.8856H24.8845H24.8834H24.8823H24.8812H24.8801H24.8791H24.878H24.8769H24.8758H24.8747H24.8736H24.8726H24.8715H24.8704H24.8693H24.8682H24.8671H24.8661H24.865H24.8639H24.8628H24.8618H24.8607H24.8596H24.8585H24.8575H24.8564H24.8553H24.8542H24.8532H24.8521H24.851H24.85H24.8489H24.8478H24.8468H24.8457H24.8446H24.8436H24.8425H24.8414H24.8404H24.8393H24.8382H24.8372H24.8361H24.8351H24.834H24.8329H24.8319H24.8308H24.8298H24.8287H24.8276H24.8266H24.8255H24.8245H24.8234H24.8224H24.8213H24.8203H24.8192H24.8182H24.8171H24.8161H24.815H24.814H24.8129H24.8119H24.8108H24.8098H24.8087H24.8077H24.8067H24.8056H24.8046H24.8035H24.8025H24.8014H24.8004H24.7994H24.7983H24.7973H24.7962H24.7952H24.7942H24.7931H24.7921H24.7911H24.79H24.789H24.788H24.7869H24.7859H24.7849H24.7839H24.7828H24.7818H24.7808H24.7797H24.7787H24.7777H24.7767H24.7756H24.7746H24.7736H24.7726H24.7716H24.7705H24.7695H24.7685H24.7675H24.7665H24.7654H24.7644H24.7634H24.7624H24.7614H24.7604H24.7594H24.7583H24.7573H24.7563H24.7553H24.7543H24.7533H24.7523H24.7513H24.7503H24.7493H24.7483H24.7473H24.7462H24.7452H24.7442H24.7432H24.7422H24.7412H24.7402H24.7392H24.7382H24.7372H24.7362H24.7353H24.7343H24.7333H24.7323H24.7313H24.7303H24.7293H24.7283H24.7273H24.7263H24.7253H24.7243H24.7234H24.7224H24.7214H24.7204H24.7194H24.7184H24.7175H24.7165H24.7155H24.7145H24.7135H24.7126H24.7116H24.7106H24.7096H24.7086H24.7077H24.7067H24.7057H24.7047H24.7038H24.7028H24.7018H24.7009H24.6999H24.6989H24.698H24.697H24.696H24.6951H24.6941H24.6931H24.6922H24.6912H24.6902H24.6893H24.6883H24.6874H24.6864H24.6854H24.6845H24.6835H24.6826H24.6816H24.6807H24.6797H24.6788H24.6778H24.6769H24.6759H24.675H24.674H24.6731H24.6721H24.6712H24.6702H24.6693H24.6683H24.6674H24.6665H24.6655H24.6646H24.6636H24.6627H24.6618H24.6608H24.6599H24.6589H24.658H24.6571H24.6561H17.4561C16.1977 34.9352 15.167 35.2395 14.4482 35.8124C13.726 36.3881 13.3311 37.2254 13.3311 38.2601C13.3311 38.5285 13.4211 38.7619 13.5877 38.9285C13.7543 39.0951 13.9877 39.1851 14.2561 39.1851C14.5245 39.1851 14.7579 39.0951 14.9245 38.9285C15.091 38.7619 15.1811 38.5285 15.1811 38.2601C15.1811 38.0615 15.1831 37.7039 15.451 37.3915C15.7173 37.0808 16.2738 36.7851 17.4561 36.7851H24.5761H24.5771H24.578H24.579H24.58H24.581H24.5819H24.5829H24.5839H24.5849H24.5858H24.5868H24.5878H24.5888H24.5898H24.5908H24.5917H24.5927H24.5937H24.5947H24.5957H24.5967H24.5977H24.5987H24.5997H24.6007H24.6017H24.6027H24.6037H24.6047H24.6056H24.6067H24.6077H24.6087H24.6097H24.6107H24.6117H24.6127H24.6137H24.6147H24.6157H24.6167H24.6177H24.6187H24.6197H24.6207H24.6218H24.6228H24.6238H24.6248H24.6258H24.6268H24.6279H24.6289H24.6299H24.6309H24.632H24.633H24.634H24.635H24.6361H24.6371H24.6381H24.6392H24.6402H24.6412H24.6423H24.6433H24.6443H24.6454H24.6464H24.6474H24.6485H24.6495H24.6506H24.6516H24.6526H24.6537H24.6547H24.6558H24.6568H24.6579H24.6589H24.66H24.661H24.6621H24.6631H24.6642H24.6652H24.6663H24.6674H24.6684H24.6695H24.6705H24.6716H24.6727H24.6737H24.6748H24.6758H24.6769H24.678H24.679H24.6801H24.6812H24.6823H24.6833H24.6844H24.6855H24.6866H24.6876H24.6887H24.6898H24.6909H24.6919H24.693H24.6941H24.6952H24.6963H24.6974H24.6985H24.6995H24.7006H24.7017H24.7028H24.7039H24.705H24.7061H24.7072H24.7083H24.7094H24.7105H24.7116H24.7127H24.7138H24.7149H24.716H24.7171H24.7182H24.7193H24.7204H24.7215H24.7226H24.7237H24.7249H24.726H24.7271H24.7282H24.7293H24.7304H24.7315H24.7327H24.7338H24.7349H24.736H24.7372H24.7383H24.7394H24.7405H24.7417H24.7428H24.7439H24.745H24.7462H24.7473H24.7484H24.7496H24.7507H24.7519H24.753H24.7541H24.7553H24.7564H24.7576H24.7587H24.7599H24.761H24.7621H24.7633H24.7644H24.7656H24.7667H24.7679H24.7691H24.7702H24.7714H24.7725H24.7737H24.7748H24.776H24.7772H24.7783H24.7795H24.7807H24.7818H24.783H24.7842H24.7853H24.7865H24.7877H24.7888H24.79H24.7912H24.7924H24.7935H24.7947H24.7959H24.7971H24.7983H24.7994H24.8006H24.8018H24.803H24.8042H24.8054H24.8066H24.8078H24.809H24.8101H24.8113H24.8125H24.8137H24.8149H24.8161H24.8173H24.8185H24.8197H24.8209H24.8221H24.8233H24.8245H24.8258H24.827H24.8282H24.8294H24.8306H24.8318H24.833H24.8342H24.8355H24.8367H24.8379H24.8391H24.8403H24.8416H24.8428H24.844H24.8452H24.8465H24.8477H24.8489H24.8502H24.8514H24.8526H24.8539H24.8551H24.8563H24.8576H24.8588H24.86H24.8613H24.8625H24.8638H24.865H24.8663H24.8675H24.8688H24.87H24.8713H24.8725H24.8738H24.875H24.8763H24.8775H24.8788H24.8801H24.8813H24.8826H24.8838H24.8851H24.8864H24.8876H24.8889H24.8902H24.8914H24.8927H24.894H24.8953H24.8965H24.8978H24.8991H24.9004H24.9017H24.9029H24.9042H24.9055H24.9068H24.9081H24.9094H24.9106H24.9119H24.9132H24.9145H24.9158H24.9171H24.9184H24.9197H24.921H24.9223H24.9236H24.9249H24.9262H24.9275H24.9288H24.9301H24.9314H24.9327H24.934H24.9354H24.9367H24.938H24.9393H24.9406H24.9419H24.9433H24.9446H24.9459H24.9472H24.9485H24.9499H24.9512H24.9525H24.9539H24.9552H24.9565H24.9578H24.9592H24.9605H24.9619H24.9632H24.9645H24.9659H24.9672H24.9686H24.9699H24.9712H24.9726H24.9739H24.9753H24.9766H24.978H24.9793H24.9807H24.9821H24.9834H24.9848H24.9861H24.9875H24.9889H24.9902H24.9916H24.9929H24.9943H24.9957H24.9971H24.9984H24.9998H25.0012H25.0025H25.0039H25.0053H25.0067H25.0081H25.0094H25.0108H25.0122H25.0136H25.015H25.0164H25.0178H25.0191H25.0205H25.0219H25.0233H25.0247H25.0261H25.0275H25.0289H25.0303H25.0317H25.0331H25.0345H25.0359H25.0373H25.0388H25.0402H25.0416H25.043H25.0444H25.0458H25.0472H25.0487H25.0501H25.0515H25.0529H25.0543H25.0558H25.0572H25.0586H25.06H25.0615H25.0629H25.0643H25.0658H25.0672H25.0686H25.0701H25.0715H25.073H25.0744H25.0758H25.0773H25.0787H25.0802H25.0816H25.0831H25.0845H25.086H25.0874H25.0889H25.0904H25.0918H25.0933H25.0947H25.0962H25.0977H25.0991H25.1006H25.1021H25.1035H25.105H25.1065H25.1079H25.1094H25.1109H25.1124H25.1139H25.1153H25.1168H25.1183H25.1198H25.1213H25.1228H25.1242H25.1257H25.1272H25.1287H25.1302H25.1317H25.1332H25.1347H25.1362H25.1377H25.1392H25.1407H25.1422H25.1437H25.1452H25.1467H25.1482H25.1498H25.1513H25.1528H25.1543H25.1558H25.1573H25.1589H25.1604H25.1619H25.1634H25.165H25.1665H25.168H25.1695H25.1711H25.1726H25.1741H25.1757H25.1772H25.1788H25.1803H25.1818H25.1834H25.1849H25.1865H25.188H25.1896H25.1911H25.1927H25.1942H25.1958H25.1973H25.1989H25.2004H25.202H25.2036H25.2051H25.2067H25.2083H25.2098H25.2114H25.213H25.2145H25.2161H25.2168H25.2175H25.2182H25.2189H25.2196H25.2203H25.2211H25.2218H25.2225H25.2232H25.2239H25.2246H25.2253H25.226H25.2267H25.2274H25.2281H25.2288H25.2295H25.2303H25.231H25.2317H25.2324H25.2331H25.2338H25.2345H25.2352H25.2359H25.2366H25.2374H25.2381H25.2388H25.2395H25.2402H25.2409H25.2416H25.2423H25.2431H25.2438H25.2445H25.2452H25.2459H25.2466H25.2474H25.2481H25.2488H25.2495H25.2502H25.2509H25.2517H25.2524H25.2531H25.2538H25.2545H25.2552H25.256H25.2567H25.2574H25.2581H25.2588H25.2596H25.2603H25.261H25.2617H25.2624H25.2632H25.2639H25.2646H25.2653H25.2661H25.2668H25.2675H25.2682H25.2689H25.2697H25.2704H25.2711H25.2718H25.2726H25.2733H25.274H25.2747H25.2755H25.2762H25.2769H25.2777H25.2784H25.2791H25.2798H25.2806H25.2813H25.282H25.2828H25.2835H25.2842H25.2849H25.2857H25.2864H25.2871H25.2879H25.2886H25.2893H25.2901H25.2908H25.2915H25.2923H25.293H25.2937H25.2945H25.2952H25.2959H25.2967H25.2974H25.2981H25.2989H25.2996H25.3003H25.3011H25.3018H25.3025H25.3033H25.304H25.3048H25.3055H25.3062H25.307H25.3077H25.3085H25.3092H25.3099H25.3107H25.3114H25.3122H25.3129H25.3136H25.3144H25.3151H25.3159H25.3166H25.3173H25.3181H25.3188H25.3196H25.3203H25.3211H25.3218H25.3226H25.3233H25.324H25.3248H25.3255H25.3263H25.327H25.3278H25.3285H25.3293H25.33H25.3308H25.3315H25.3323H25.333H25.3338H25.3345H25.3353H25.336H25.3368H25.3375H25.3383H25.339H25.3398H25.3405H25.3413H25.342H25.3428H25.3435H25.3443H25.345H25.3458H25.3465H25.3473H25.348H25.3488H25.3496H25.3503H25.3511H25.3518H25.3526H25.3533H25.3541H25.3549H25.3556H25.3564H25.3571H25.3579H25.3587H25.3594H25.3602H25.3609H25.3617H25.3624H25.3632H25.364H25.3647H25.3655H25.3663H25.367H25.3678H25.3685H25.3693H25.3701H25.3708H25.3716H25.3724H25.3731H25.3739H25.3747H25.3754H25.3762H25.377H25.3777H25.3785H25.3793H25.38H25.3808H25.3816H25.3823H25.3831H25.3839H25.3846H25.3854H25.3862H25.387H25.3877H25.3885H25.3893H25.39H25.3908H25.3916H25.3924H25.3931H25.3939H25.3947H25.3955H25.3962H25.397H25.3978H25.3986H25.3993H25.4001H25.4009H25.4017H25.4024H25.4032H25.404H25.4048H25.4055H25.4063H25.4071H25.4079H25.4087H25.4094H25.4102H25.411H25.4118H25.4126H25.4133H25.4141H25.4149H25.4157H25.4165H25.4173H25.418H25.4188H25.4196H25.4204H25.4212H25.422H25.4228H25.4235H25.4243H25.4251H25.4259H25.4267H25.4275H25.4283H25.4291H25.4298H25.4306H25.4314H25.4322H25.433H25.4338H25.4346H25.4354H25.4362H25.4369H25.4377H25.4385H25.4393H25.4401H25.4409H25.4417H25.4425H25.4433H25.4441H25.4449H25.4457H25.4465H25.4473H25.4481H25.4489H25.4497H25.4505H25.4513H25.4521H25.4529H25.4536H25.4544H25.4552H25.456H25.4568H25.4576H25.4584H25.4592H25.46H25.4608H25.4617H25.4625H25.4633H25.4641H25.4649H25.4657H25.4665H25.4673H25.4681H25.4689H25.4697H25.4705H25.4713H25.4721H25.4729H25.4737H25.4745H25.4753H25.4761H25.477H25.4778H25.4786H25.4794H25.4802H25.481H25.4818H25.4826H25.4834H25.4842H25.4851H25.4859H25.4867H25.4875H25.4883H25.4891H25.4899H25.4908H25.4916H25.4924H25.4932H25.494H25.4948H25.4956H25.4965H25.4973H25.4981H25.4989H25.4997H25.5005H25.5014H25.5022H25.503H25.5038H25.5046H25.5055H25.5063H25.5071H25.5079H25.5088H25.5096H25.5104H25.5112H25.512H25.5129H25.5137H25.5145H25.5153H25.5162H25.517H25.5178H25.5186H25.5195H25.5203H25.5211H25.522H25.5228H25.5236H25.5244H25.5253H25.5261H25.5269H25.5278H25.5286H25.5294H25.5303H25.5311H25.5319H25.5328H25.5336H25.5344H25.5353H25.5361H25.5369H25.5378H25.5386H25.5394H25.5403H25.5411H25.5419H25.5428H25.5436H25.5444H25.5453H25.5461H25.547H25.5478H25.5486H25.5495H25.5503H25.5512H25.552H25.5528H25.5537H25.5545H25.5554H25.5562H25.5571H25.5579H25.5587H25.5596H25.5604H25.5613H25.5621H25.563H25.5638H25.5647H25.5655H25.5664H25.5672H25.5681H25.5689H25.5697H25.5706H25.5714H25.5723H25.5731H25.574H25.5749H25.5757H25.5766H25.5774H25.5783H25.5791H25.58H25.5808H25.5817H25.5825H25.5834H25.5842H25.5851H25.5859H25.5868H25.5877H25.5885H25.5894H25.5902H25.5911H25.5919H25.5928H25.5937H25.5945H25.5954H25.5962H25.5971H25.598H25.5988H25.5997H25.6006H25.6014H25.6023H25.6031H25.604H25.6049H25.6057H25.6066H25.6075H25.6083H25.6092H25.6101H25.6109H25.6118H25.6127H25.6135H25.6144H25.6153H25.6161L33.8511 41.5283ZM41.0782 29.7495L41.078 29.7492L41.0705 29.7538L34.1931 33.9922C34.1926 33.9924 34.1922 33.9927 34.1918 33.9929C33.7354 34.2586 32.9783 34.4364 32.0711 34.5461C31.2281 34.648 30.2706 34.6895 29.3359 34.6946C29.6466 33.9523 29.4327 33.0823 28.7589 32.109L28.7587 32.1088C27.4547 30.2343 25.2559 29.0952 22.8961 29.0952H19.7761C18.1196 29.0952 16.5467 28.622 15.2911 27.6802C13.8017 26.5632 11.9036 26.6209 10.1247 27.119C8.44356 27.5897 6.84366 28.46 5.74108 29.1492V27.7002V27.5752H5.61608H0.0161133H-0.108887V27.7002V48.5002V48.6252H0.0161133H5.61608H5.74108V48.5002V46.2252H16.0161C17.0987 46.2252 18.2209 46.152 19.3255 46.08C19.8573 46.0453 20.385 46.0109 20.9023 45.985L20.9023 45.9857L20.915 45.9837L31.3056 44.3851C31.7155 44.3839 32.1211 44.3025 32.4415 44.2226C33.4272 44.0571 34.3257 43.5648 35.1368 42.8356L47.2138 33.2379L47.2138 33.238L47.216 33.2361C48.2266 32.3942 48.3966 30.8791 47.6361 29.8652C46.9027 28.8873 46.1503 28.3757 45.1174 28.3652C44.1029 28.3549 42.8379 28.8296 41.0782 29.7495ZM3.89105 46.7751H1.74105V29.4252H3.89105V30.5002V46.1002V46.7751Z" fill="#31AC18" stroke="#31AC18" stroke-width="0.25"/>
<path d="M6.1548 25.853L6.16071 25.8612L6.16785 25.8684C6.33602 26.0365 6.60641 26.2249 6.89627 26.2249H41.1363C41.4902 26.2249 41.7818 26.0489 41.8883 25.7583L44.7578 21.7729L44.7578 21.773L44.7603 21.7692C44.931 21.5133 45.0424 21.1336 44.8403 20.8306C44.6611 20.5618 44.3848 20.3749 44.0163 20.3749H42.5173C42.05 10.882 34.4341 3.26619 24.9413 2.7989V2.22494H26.4163C26.6847 2.22494 26.9181 2.13493 27.0847 1.96834C27.2513 1.80175 27.3413 1.56837 27.3413 1.29997C27.3413 1.03156 27.2513 0.798176 27.0847 0.631589C26.918 0.465003 26.6846 0.375 26.4162 0.375H21.6162C21.3478 0.375 21.1145 0.465005 20.9479 0.631596C20.7813 0.798188 20.6913 1.03157 20.6913 1.29997C20.6913 1.56837 20.7813 1.80175 20.9479 1.96834C21.1145 2.13493 21.3478 2.22494 21.6162 2.22494H23.0913V2.7989C13.5984 3.26619 5.98258 10.882 5.5153 20.3749H4.01618C3.82598 20.3749 3.64162 20.4456 3.49503 20.5471C3.34967 20.6477 3.22844 20.7877 3.17759 20.9404C3.08928 21.2054 3.08486 21.5681 3.27213 21.8492L3.27206 21.8492L3.27471 21.8529L6.1548 25.853ZM24.0162 4.62503C32.9449 4.62503 40.222 11.6226 40.685 20.3751H7.3487C7.89045 11.6216 15.1681 4.62503 24.0162 4.62503ZM6.41618 22.225H41.6162H42.1761L40.6711 24.375H7.36129L5.85629 22.225H6.41618Z" fill="#31AC18" stroke="#31AC18" stroke-width="0.25"/>
<path d="M24.016 6.1001C18.6561 6.1001 13.6161 8.9801 10.816 13.7001C10.656 14.1002 10.7361 14.5802 11.136 14.8202C11.296 14.9001 11.376 14.9001 11.536 14.9001C11.856 14.9001 12.096 14.7401 12.256 14.5001C14.656 10.3401 19.216 7.70013 24.016 7.70013C24.496 7.70013 24.816 7.38016 24.816 6.90016C24.816 6.42016 24.496 6.1001 24.016 6.1001Z" fill="#31AC18"/>
</g>
<defs>
<clipPath id="clip0_5768_3212">
<rect width="48" height="48" fill="white" transform="translate(0 0.5)"/>
</clipPath>
</defs>
</svg>
