<svg width="46" height="47" viewBox="0 0 46 47" fill="none" xmlns="http://www.w3.org/2000/svg">
<path d="M25.0124 31.6458H21.4091C18.8599 31.6458 16.7708 29.4991 16.7708 26.8541C16.7708 26.0683 17.4224 25.4166 18.2083 25.4166C18.9941 25.4166 19.6458 26.0683 19.6458 26.8541C19.6458 27.9083 20.4316 28.7708 21.4091 28.7708H25.0124C25.7599 28.7708 26.3541 28.1 26.3541 27.2758C26.3541 26.2408 26.0666 26.0874 25.4149 25.8574L19.6458 23.8449C18.4191 23.4233 16.7708 22.5225 16.7708 19.705C16.7708 17.3091 18.6683 15.335 20.9874 15.335H24.5907C27.1399 15.335 29.2291 17.4816 29.2291 20.1266C29.2291 20.9125 28.5774 21.5641 27.7916 21.5641C27.0058 21.5641 26.3541 20.9125 26.3541 20.1266C26.3541 19.0725 25.5682 18.21 24.5907 18.21H20.9874C20.2399 18.21 19.6458 18.8808 19.6458 19.705C19.6458 20.74 19.9332 20.8933 20.5849 21.1233L26.3541 23.1358C27.5808 23.5574 29.2291 24.4583 29.2291 27.2758C29.2291 29.6908 27.3316 31.6458 25.0124 31.6458Z" fill="#31AC18"/>
<path d="M23 33.5625C22.2142 33.5625 21.5625 32.9108 21.5625 32.125V14.875C21.5625 14.0892 22.2142 13.4375 23 13.4375C23.7858 13.4375 24.4375 14.0892 24.4375 14.875V32.125C24.4375 32.9108 23.7858 33.5625 23 33.5625Z" fill="#31AC18"/>
<path d="M22.9999 44.1043C11.6341 44.1043 2.39575 34.866 2.39575 23.5002C2.39575 12.1343 11.6341 2.896 22.9999 2.896C23.7858 2.896 24.4374 3.54766 24.4374 4.3335C24.4374 5.11933 23.7858 5.771 22.9999 5.771C13.2249 5.771 5.27075 13.7252 5.27075 23.5002C5.27075 33.2752 13.2249 41.2293 22.9999 41.2293C32.7749 41.2293 40.7291 33.2752 40.7291 23.5002C40.7291 22.7143 41.3808 22.0627 42.1666 22.0627C42.9524 22.0627 43.6041 22.7143 43.6041 23.5002C43.6041 34.866 34.3658 44.1043 22.9999 44.1043Z" fill="#31AC18"/>
<path d="M40.2499 15.3542H32.5833C31.7974 15.3542 31.1458 14.7025 31.1458 13.9167V6.25C31.1458 5.46417 31.7974 4.8125 32.5833 4.8125C33.3691 4.8125 34.0208 5.46417 34.0208 6.25V12.4792H40.2499C41.0358 12.4792 41.6874 13.1308 41.6874 13.9167C41.6874 14.7025 41.0358 15.3542 40.2499 15.3542Z" fill="#31AC18"/>
<path d="M32.5831 15.3539C32.2189 15.3539 31.8548 15.2198 31.5673 14.9323C31.0114 14.3764 31.0114 13.4564 31.5673 12.9006L41.1506 3.31727C41.7064 2.76143 42.6264 2.76143 43.1823 3.31727C43.7381 3.8731 43.7381 4.79309 43.1823 5.34893L33.5989 14.9323C33.3114 15.2198 32.9473 15.3539 32.5831 15.3539Z" fill="#31AC18"/>
</svg>
