<svg width="21" height="21" viewBox="0 0 21 21" fill="none" xmlns="http://www.w3.org/2000/svg">
<path d="M10.3917 18.5802C5.7095 18.5802 1.89746 14.7682 1.89746 10.086C1.89746 5.40383 5.7095 1.5918 10.3917 1.5918C15.0738 1.5918 18.8859 5.40383 18.8859 10.086C18.8859 14.7682 15.0738 18.5802 10.3917 18.5802ZM10.3917 2.83485C6.38903 2.83485 3.14052 6.09166 3.14052 10.086C3.14052 14.0804 6.38903 17.3372 10.3917 17.3372C14.3943 17.3372 17.6428 14.0804 17.6428 10.086C17.6428 6.09166 14.3943 2.83485 10.3917 2.83485Z" fill="#8E8E93"/>
<path d="M19.0928 19.4086C18.9353 19.4086 18.7779 19.3506 18.6536 19.2263L16.9962 17.5689C16.7558 17.3286 16.7558 16.9308 16.9962 16.6905C17.2365 16.4502 17.6343 16.4502 17.8746 16.6905L19.532 18.3479C19.7723 18.5882 19.7723 18.986 19.532 19.2263C19.4077 19.3506 19.2502 19.4086 19.0928 19.4086Z" fill="#8E8E93"/>
</svg>
