<svg width="46" height="47" viewBox="0 0 46 47" fill="none" xmlns="http://www.w3.org/2000/svg">
<path d="M18.1705 40.1559C17.2121 40.1559 16.5413 39.8301 16.1388 39.5234C15.3721 38.9676 14.1838 37.5301 14.9313 34.3101L16.0237 29.5951C16.1196 29.1926 15.9088 28.4642 15.6213 28.1576L11.8071 24.3434C9.79461 22.3309 9.9671 20.5867 10.2354 19.7242C10.5038 18.8617 11.3854 17.3476 14.1838 16.8684L19.0713 16.0634C19.4355 16.0059 20.0296 15.5651 20.1829 15.2392L22.8854 9.83423C24.1888 7.22757 25.9138 6.84424 26.8338 6.84424C27.7538 6.84424 29.4788 7.22757 30.7821 9.83423L33.4846 15.2392C33.6571 15.5651 34.2321 16.0059 34.5962 16.0634L39.4838 16.8684C42.2821 17.3284 43.1638 18.8617 43.4321 19.7242C43.7004 20.5867 43.8729 22.3309 41.8604 24.3434L38.0463 28.1576C37.7588 28.4451 37.548 29.1926 37.6438 29.5951L38.7363 34.3101C39.4838 37.5492 38.2954 38.9676 37.5287 39.5234C36.7621 40.0792 35.0563 40.7884 32.1813 39.0826L27.6004 36.3609C27.2171 36.1309 26.4121 36.1309 26.0287 36.3609L21.4479 39.0826C20.1254 39.8876 19.0138 40.1559 18.1705 40.1559ZM26.8338 9.71924C26.5271 9.71924 25.9713 10.0834 25.4538 11.1184L22.7513 16.5234C22.1763 17.6926 20.8154 18.6893 19.5313 18.9001L14.6438 19.7051C13.5513 19.8968 13.053 20.2993 12.9571 20.6059C12.8613 20.9126 13.0338 21.5259 13.8196 22.3118L17.6338 26.1259C18.6113 27.1034 19.1288 28.8859 18.8221 30.2276L17.7296 34.9426C17.4038 36.3034 17.6146 37.0317 17.8254 37.2042C18.0362 37.3576 18.8029 37.3384 19.9913 36.6101L24.5912 33.8884C25.8754 33.1217 27.8113 33.1217 29.0763 33.8884L33.6571 36.6101C34.8646 37.3192 35.6313 37.3576 35.8421 37.2042C36.053 37.0509 36.2638 36.3226 35.9379 34.9426L34.8454 30.2276C34.5388 28.8667 35.0371 27.1034 36.0337 26.1259L39.848 22.3118C40.6338 21.5259 40.8062 20.8934 40.7104 20.6059C40.6146 20.3184 40.1162 19.8968 39.0237 19.7051L34.1363 18.9001C32.8521 18.6893 31.4913 17.6926 30.9163 16.5234L28.2138 11.1184C27.6963 10.0834 27.1404 9.71924 26.8338 9.71924Z" fill="#31AC18"/>
<path d="M15.3335 11.521H3.8335C3.04766 11.521 2.396 10.8693 2.396 10.0835C2.396 9.29766 3.04766 8.646 3.8335 8.646H15.3335C16.1193 8.646 16.771 9.29766 16.771 10.0835C16.771 10.8693 16.1193 11.521 15.3335 11.521Z" fill="#31AC18"/>
<path d="M9.5835 38.354H3.8335C3.04766 38.354 2.396 37.7023 2.396 36.9165C2.396 36.1307 3.04766 35.479 3.8335 35.479H9.5835C10.3693 35.479 11.021 36.1307 11.021 36.9165C11.021 37.7023 10.3693 38.354 9.5835 38.354Z" fill="#31AC18"/>
<path d="M5.75016 24.9375H3.8335C3.04766 24.9375 2.396 24.2858 2.396 23.5C2.396 22.7142 3.04766 22.0625 3.8335 22.0625H5.75016C6.536 22.0625 7.18766 22.7142 7.18766 23.5C7.18766 24.2858 6.536 24.9375 5.75016 24.9375Z" fill="#31AC18"/>
</svg>
